<svg width="85" height="24" viewBox="0 0 85 24" fill="none" xmlns="http://www.w3.org/2000/svg">
<g id="Layer_1" clip-path="url(#clip0_0_2538)">
<path id="Vector" d="M60.3267 8.90332H57.1567V20.4981H60.3267V8.90332Z" fill="white"/>
<path id="Vector_2" d="M52.6664 8.90332L49.5641 17.3389L46.4619 8.90332H43.2935L47.5606 20.4981H48.4027H50.7239H51.5682L55.8336 8.90332H52.6664Z" fill="white"/>
<path id="Vector_3" d="M71.5144 11.4583V8.90369H67.7198V5.70557H64.5526V8.90369H62.0466V11.4583H64.5526V16.4457C64.5526 19.0196 65.8429 20.736 69.1288 20.736C70.401 20.736 71.5144 20.2732 71.5144 20.2732L71.1312 17.7682C71.1312 17.7682 70.5067 17.9528 69.7403 17.9528C68.8004 17.9528 67.7198 17.5503 67.7198 16.2499V11.4578H71.5144V11.4583Z" fill="white"/>
<path id="Vector_4" d="M40.935 20.498H44.3074L38.0605 3.51514H35.6156L29.3687 20.498H32.7422L33.9331 17.2576H39.7397L40.935 20.498ZM34.8735 14.699L36.8392 9.36105L38.8026 14.699H34.8735Z" fill="white"/>
<path id="Vector_5" d="M78.7802 8.60645C75.3474 8.60645 72.5622 11.3287 72.5622 14.681C72.5622 18.0332 75.3474 20.756 78.7802 20.756C82.2131 20.756 85 18.0354 85 14.681C85 11.3265 82.2114 8.60645 78.7802 8.60645ZM78.7802 17.8463C77.0158 17.8463 75.5836 16.4482 75.5836 14.7238C75.5836 12.9995 77.0158 11.5997 78.7802 11.5997C80.5447 11.5997 81.9769 12.9989 81.9769 14.7238C81.9769 16.4488 80.5475 17.8463 78.7802 17.8463Z" fill="white"/>
<path id="Vector_6" d="M60.7862 5.5071C60.7862 6.63372 59.8712 7.54642 58.7442 7.54642C57.6173 7.54642 56.7006 6.63428 56.7006 5.5071C56.7006 4.37991 57.6139 3.46777 58.7442 3.46777C59.8746 3.46777 60.7862 4.3816 60.7862 5.5071Z" fill="white"/>
<path id="Vector_7" d="M10.6756 5.33001C10.6756 8.27413 8.28659 10.6617 5.33864 10.6617C2.39069 10.6617 0 8.27413 0 5.33001C0 2.38589 2.39069 0 5.33864 0C8.28659 0 10.6756 2.38645 10.6756 5.33001Z" fill="#00AAFF"/>
<path id="Vector_8" d="M24.0318 17.5152C24.0318 21.0971 21.1234 24.0001 17.5368 24.0001C13.9502 24.0001 11.0463 21.0971 11.0463 17.5152C11.0463 13.9333 13.9519 11.0298 17.5368 11.0298C21.1217 11.0298 24.0318 13.9333 24.0318 17.5152Z" fill="#97CF26"/>
<path id="Vector_9" d="M21.7179 5.33021C21.7179 7.63595 19.8461 9.50594 17.5368 9.50594C15.2275 9.50594 13.359 7.63595 13.359 5.33021C13.359 3.02447 15.2309 1.15674 17.5368 1.15674C19.8427 1.15674 21.7179 3.02504 21.7179 5.33021Z" fill="#FF6163"/>
<path id="Vector_10" d="M8.36234 17.5151C8.36234 19.183 7.00762 20.5326 5.33809 20.5326C3.66857 20.5326 2.31384 19.183 2.31384 17.5151C2.31384 15.8471 3.66857 14.4976 5.33809 14.4976C7.00762 14.4976 8.36234 15.8471 8.36234 17.5151Z" fill="#A169F7"/>
</g>
<defs>
<clipPath id="clip0_0_2538">
<rect width="85" height="24" fill="white"/>
</clipPath>
</defs>
</svg>
