<svg width="97" height="100" fill="none" xmlns="http://www.w3.org/2000/svg"><g clip-path="url(#a)"><path d="M1.052 80.972c.239.14.239.368 0 .509-.238.14-.628.14-.873 0-.239-.14-.239-.368 0-.509.238-.14.628-.14.873 0ZM3.329 79.641c.238.14.238.368 0 .509-.238.14-.629.14-.874 0-.238-.14-.238-.368 0-.509.239-.14.629-.14.874 0ZM5.605 78.317c.239.14.239.368 0 .509-.238.14-.628.14-.873 0-.238-.14-.238-.368 0-.509.238-.14.629-.14.873 0ZM1.052 78.317c.239.14.239.368 0 .509-.238.14-.628.14-.873 0-.239-.14-.239-.368 0-.509.238-.14.628-.14.873 0ZM3.329 76.986c.238.14.238.368 0 .509-.238.14-.629.14-.874 0-.238-.14-.238-.368 0-.509.239-.14.629-.14.874 0ZM37.603 99.385c.239.14.239.367 0 .508-.238.14-.628.14-.873 0-.238-.14-.238-.368 0-.508s.629-.14.873 0ZM39.88 98.054c.238.14.238.367 0 .508-.238.14-.629.14-.874 0-.238-.14-.238-.368 0-.508.239-.14.63-.14.874 0ZM42.157 96.73c.238.14.238.367 0 .508-.239.14-.63.14-.874 0-.238-.14-.238-.368 0-.508.238-.141.629-.141.874 0ZM44.433 95.398c.239.141.239.368 0 .509-.238.14-.629.14-.873 0-.239-.14-.239-.368 0-.508.238-.14.628-.14.873 0ZM33.05 99.385c.239.14.239.367 0 .508-.238.14-.628.14-.873 0-.238-.14-.238-.368 0-.508s.628-.14.873 0ZM35.327 98.054c.238.14.238.367 0 .508-.238.14-.629.14-.874 0-.238-.14-.238-.368 0-.508.239-.14.63-.14.874 0ZM37.603 96.73c.239.14.239.367 0 .508-.238.14-.628.14-.873 0-.238-.14-.238-.368 0-.508.238-.141.629-.141.873 0ZM39.88 95.398c.238.141.238.368 0 .509-.238.14-.629.14-.874 0-.238-.14-.238-.368 0-.508.239-.14.63-.14.874 0ZM42.157 94.074c.238.14.238.368 0 .509-.239.14-.63.14-.874 0-.238-.14-.238-.368 0-.509.238-.14.629-.14.874 0ZM28.497 99.385c.238.14.238.367 0 .508-.238.14-.629.14-.873 0-.239-.14-.239-.368 0-.508.238-.14.628-.14.873 0ZM30.774 98.054c.238.14.238.367 0 .508-.239.14-.629.14-.874 0-.238-.14-.238-.368 0-.508s.629-.14.874 0ZM33.05 96.73c.239.14.239.367 0 .508-.238.14-.628.14-.873 0-.238-.14-.238-.368 0-.508.238-.141.628-.141.873 0ZM35.327 95.398c.238.141.238.368 0 .509-.238.14-.629.14-.874 0s-.238-.368 0-.508.629-.14.874 0ZM37.603 94.074c.239.14.239.368 0 .509-.238.14-.628.14-.873 0-.238-.14-.238-.368 0-.509.238-.14.629-.14.873 0ZM39.88 92.743c.238.14.238.368 0 .509-.238.14-.629.14-.874 0-.238-.14-.238-.368 0-.509.239-.14.63-.14.874 0ZM26.2 98.04c.239.14.239.368 0 .509-.238.14-.628.14-.873 0-.238-.14-.238-.368 0-.509.238-.14.629-.14.874 0ZM28.477 96.716c.238.14.238.368 0 .509-.238.14-.628.14-.873 0-.239-.141-.239-.368 0-.509.238-.14.628-.14.873 0ZM30.754 95.385c.238.14.238.368 0 .508-.238.141-.629.141-.874 0-.238-.14-.238-.367 0-.508.239-.14.629-.14.874 0ZM33.03 94.054c.239.14.239.368 0 .509-.238.14-.628.14-.873 0-.238-.14-.238-.368 0-.509.238-.14.629-.14.873 0ZM35.307 92.73c.238.14.238.368 0 .508s-.629.14-.874 0c-.238-.14-.238-.367 0-.508.239-.14.63-.14.874 0ZM37.584 91.4c.238.14.238.367 0 .507-.239.14-.63.14-.874 0-.238-.14-.238-.367 0-.508.238-.14.629-.14.874 0ZM23.924 96.716c.238.14.238.368 0 .509-.238.14-.629.14-.873 0-.239-.141-.239-.368 0-.509.238-.14.628-.14.873 0ZM26.2 95.385c.239.14.239.368 0 .508-.238.141-.628.141-.873 0-.238-.14-.238-.367 0-.508.238-.14.629-.14.874 0ZM28.477 94.054c.238.14.238.368 0 .509-.238.14-.628.14-.873 0-.239-.14-.239-.368 0-.509.238-.14.628-.14.873 0ZM30.754 92.73c.238.14.238.368 0 .508s-.629.14-.874 0c-.238-.14-.238-.367 0-.508.239-.14.629-.14.874 0ZM21.648 95.385c.238.14.238.368 0 .508-.239.141-.63.141-.874 0-.238-.14-.238-.367 0-.508.238-.14.629-.14.873 0ZM23.924 94.054c.238.14.238.368 0 .509-.238.14-.629.14-.873 0-.239-.14-.239-.368 0-.509.238-.14.628-.14.873 0ZM26.2 92.73c.239.14.239.368 0 .508-.238.14-.628.14-.873 0-.238-.14-.238-.367 0-.508.238-.14.629-.14.874 0ZM28.477 91.4c.238.14.238.367 0 .507s-.628.14-.873 0c-.239-.14-.239-.367 0-.508.238-.14.628-.14.873 0ZM19.37 94.054c.24.14.24.368 0 .509-.237.14-.628.14-.873 0-.238-.14-.238-.368 0-.509.238-.14.629-.14.874 0ZM21.648 92.73c.238.14.238.368 0 .508-.239.14-.63.14-.874 0-.238-.14-.238-.367 0-.508.238-.14.629-.14.873 0ZM23.924 91.4c.238.14.238.367 0 .507s-.629.14-.873 0c-.239-.14-.239-.367 0-.508.238-.14.628-.14.873 0ZM26.2 90.075c.239.14.239.368 0 .508-.238.14-.628.14-.873 0-.238-.14-.238-.368 0-.508s.629-.14.874 0ZM17.094 92.73c.238.14.238.368 0 .508s-.629.14-.873 0c-.239-.14-.239-.367 0-.508.238-.14.628-.14.873 0ZM19.37 91.4c.24.14.24.367 0 .507-.237.14-.628.14-.873 0-.238-.14-.238-.367 0-.508.238-.14.629-.14.874 0ZM21.648 90.075c.238.14.238.368 0 .508-.239.14-.63.14-.874 0-.238-.14-.238-.368 0-.508s.629-.14.873 0ZM23.924 88.744c.238.14.238.368 0 .508s-.629.14-.873 0c-.239-.14-.239-.367 0-.508.238-.14.628-.14.873 0ZM14.818 91.4c.238.14.238.367 0 .507-.239.14-.63.14-.874 0-.238-.14-.238-.367 0-.508.238-.14.629-.14.874 0ZM17.094 90.075c.238.14.238.368 0 .508s-.629.14-.873 0c-.239-.14-.239-.368 0-.508.238-.14.628-.14.873 0ZM19.37 88.744c.24.14.24.368 0 .508-.237.14-.628.14-.873 0-.238-.14-.238-.367 0-.508.238-.14.629-.14.874 0ZM21.648 87.413c.238.14.238.368 0 .508-.239.14-.63.14-.874 0-.238-.14-.238-.368 0-.508s.629-.14.873 0ZM12.541 90.075c.238.14.238.368 0 .508s-.629.14-.873 0c-.239-.14-.239-.368 0-.508.238-.14.628-.14.873 0ZM14.818 88.744c.238.14.238.368 0 .508-.239.14-.63.14-.874 0-.238-.14-.238-.367 0-.508.238-.14.629-.14.874 0ZM17.094 87.413c.238.14.238.368 0 .508s-.629.14-.873 0c-.239-.14-.239-.368 0-.508.238-.14.628-.14.873 0ZM19.37 86.089c.24.14.24.368 0 .508-.237.14-.628.14-.873 0-.244-.14-.238-.368 0-.508.239-.14.629-.14.874 0ZM10.264 88.744c.239.14.239.368 0 .508-.238.14-.628.14-.873 0-.238-.14-.238-.367 0-.508.238-.14.629-.14.873 0ZM12.541 87.413c.238.14.238.368 0 .508s-.629.14-.873 0c-.239-.14-.239-.368 0-.508.238-.14.628-.14.873 0ZM14.818 86.089c.238.14.238.368 0 .508-.239.14-.63.14-.874 0-.238-.14-.238-.368 0-.508s.629-.14.874 0ZM17.094 84.758c.238.14.238.368 0 .508s-.629.14-.873 0c-.239-.14-.239-.368 0-.508.238-.14.628-.14.873 0ZM7.968 87.4c.238.14.238.367 0 .508-.238.14-.629.14-.874 0-.238-.14-.238-.368 0-.508.239-.14.63-.14.874 0ZM10.245 86.075c.238.14.238.368 0 .509-.239.14-.63.14-.874 0-.238-.14-.238-.368 0-.509.238-.14.629-.14.874 0ZM12.521 84.745c.238.14.238.367 0 .508-.238.14-.629.14-.873 0-.239-.14-.239-.368 0-.508.238-.141.628-.141.873 0ZM14.798 83.42c.238.14.238.368 0 .509-.238.14-.629.14-.874 0-.238-.14-.238-.368 0-.509.239-.14.629-.14.874 0ZM5.691 86.075c.239.14.239.368 0 .509-.238.14-.628.14-.873 0-.238-.14-.238-.368 0-.509.238-.14.629-.14.873 0ZM7.968 84.745c.238.14.238.367 0 .508-.238.14-.629.14-.874 0-.238-.14-.238-.368 0-.508.239-.141.63-.141.874 0ZM10.245 83.42c.238.14.238.368 0 .509-.239.14-.63.14-.874 0-.238-.14-.238-.368 0-.509.238-.14.629-.14.874 0ZM12.521 82.09c.238.14.238.367 0 .508-.238.14-.629.14-.873 0-.239-.14-.239-.368 0-.509.238-.14.628-.14.873 0ZM3.415 84.745c.238.14.238.367 0 .508-.238.14-.629.14-.874 0-.238-.14-.238-.368 0-.508.239-.141.63-.141.874 0ZM5.691 83.42c.239.14.239.368 0 .509-.238.14-.628.14-.873 0-.238-.14-.238-.368 0-.509.238-.14.629-.14.873 0ZM7.968 82.09c.238.14.238.367 0 .508-.238.14-.629.14-.874 0-.238-.14-.238-.368 0-.509.239-.14.63-.14.874 0ZM10.245 80.758c.238.14.238.368 0 .509-.239.14-.63.14-.874 0-.238-.14-.238-.368 0-.509.238-.14.629-.14.874 0ZM1.138 83.42c.239.14.239.368 0 .509-.238.14-.628.14-.873 0s-.239-.368 0-.509c.238-.14.628-.14.873 0ZM3.415 82.09c.238.14.238.367 0 .508-.238.14-.629.14-.874 0-.238-.14-.238-.368 0-.509.239-.14.63-.14.874 0ZM5.691 80.758c.239.14.239.368 0 .509-.238.14-.628.14-.873 0-.238-.14-.238-.368 0-.509.238-.14.629-.14.873 0ZM7.968 79.434c.238.14.238.368 0 .508s-.629.14-.874 0c-.238-.14-.238-.367 0-.508.239-.14.63-.14.874 0ZM45.843 94.088c.238-.14.629-.14.873 0 .239.14.239.368 0 .508-.238.14-.628.14-.873 0-.238-.14-.238-.368 0-.508ZM48.993 92.763c.238.141.238.368 0 .509-.238.14-.629.14-.873 0-.239-.14-.239-.368 0-.509.238-.14.628-.14.873 0ZM51.27 91.433c.238.14.238.367 0 .508-.239.14-.629.14-.874 0-.238-.14-.238-.368 0-.508s.629-.14.874 0ZM53.546 90.102c.238.14.238.367 0 .508-.238.14-.629.14-.873 0-.239-.14-.239-.368 0-.508.238-.14.628-.14.873 0ZM55.823 88.778c.238.14.238.367 0 .508-.239.14-.629.14-.874 0-.238-.14-.238-.368 0-.508.238-.141.629-.141.874 0ZM58.1 87.447c.238.14.238.367 0 .508-.239.14-.63.14-.874 0-.238-.14-.238-.368 0-.508s.629-.14.873 0ZM60.376 86.116c.238.14.238.367 0 .508-.238.14-.629.14-.874 0-.238-.14-.238-.368 0-.508.239-.14.63-.14.874 0ZM62.653 84.791c.238.14.238.368 0 .508-.239.141-.63.141-.874 0-.238-.14-.238-.367 0-.508.238-.14.629-.14.874 0ZM64.93 83.46c.237.14.237.368 0 .509-.239.14-.63.14-.874 0-.239-.14-.239-.368 0-.509.238-.14.628-.14.873 0ZM67.206 82.136c.238.14.238.368 0 .508s-.629.14-.874 0c-.238-.14-.238-.368 0-.508.239-.14.629-.14.874 0ZM74.035 78.15c.239.14.239.368 0 .508-.238.14-.628.14-.873 0-.238-.14-.238-.368 0-.508s.629-.14.873 0ZM76.312 76.82c.238.14.238.367 0 .507s-.629.14-.873 0c-.239-.14-.239-.367 0-.508.238-.14.628-.14.873 0ZM78.589 75.495c.238.14.238.368 0 .508-.239.14-.629.14-.874 0-.238-.14-.238-.368 0-.508s.629-.14.874 0ZM80.865 74.164c.239.14.239.368 0 .508-.238.14-.628.14-.873 0-.239-.14-.239-.368 0-.508.238-.14.629-.14.873 0ZM83.142 72.833c.238.14.238.368 0 .508s-.629.14-.874 0c-.238-.14-.238-.368 0-.508.239-.14.629-.14.874 0ZM69.482 80.805c.239.14.239.368 0 .508-.238.14-.628.14-.873 0-.238-.14-.238-.367 0-.508.238-.14.628-.14.873 0ZM71.759 79.474c.238.14.238.368 0 .509-.238.14-.629.14-.874 0-.238-.14-.238-.368 0-.509.239-.14.63-.14.874 0ZM43.566 92.763c.239-.14.629-.14.874 0 .238.141.238.368 0 .509-.238.14-.629.14-.874 0-.238-.14-.245-.368 0-.509ZM46.716 91.433c.239.14.239.367 0 .508-.238.14-.628.14-.873 0-.238-.14-.238-.368 0-.508s.629-.14.873 0ZM48.993 90.102c.238.14.238.367 0 .508-.238.14-.629.14-.873 0-.239-.14-.239-.368 0-.508.238-.14.628-.14.873 0ZM51.27 88.778c.238.14.238.367 0 .508-.239.14-.63.14-.874 0-.245-.14-.238-.368 0-.508.238-.141.629-.141.874 0ZM53.546 87.447c.238.14.238.367 0 .508-.238.14-.629.14-.873 0-.239-.14-.239-.368 0-.508.238-.14.628-.14.873 0ZM55.823 86.116c.238.14.238.367 0 .508-.239.14-.629.14-.874 0-.238-.14-.238-.368 0-.508s.629-.14.874 0ZM58.1 84.791c.238.14.238.368 0 .508-.239.141-.63.141-.874 0-.238-.14-.238-.367 0-.508.238-.14.629-.14.873 0ZM60.376 83.46c.238.14.238.368 0 .509-.238.14-.629.14-.874 0-.238-.14-.238-.368 0-.509.239-.14.63-.14.874 0ZM62.653 82.136c.238.14.238.368 0 .508-.239.14-.63.14-.874 0-.238-.14-.238-.368 0-.508s.629-.14.874 0ZM69.482 78.15c.239.14.239.368 0 .508-.238.14-.628.14-.873 0-.238-.14-.238-.368 0-.508s.628-.14.873 0ZM71.759 76.82c.238.14.238.367 0 .507s-.629.14-.874 0c-.238-.14-.238-.367 0-.508.239-.14.63-.14.874 0ZM74.035 75.495c.239.14.239.368 0 .508-.238.14-.628.14-.873 0-.238-.14-.238-.368 0-.508s.629-.14.873 0ZM76.312 74.164c.238.14.238.368 0 .508s-.629.14-.873 0c-.239-.14-.239-.368 0-.508.238-.14.628-.14.873 0ZM78.589 72.833c.238.14.238.368 0 .508-.239.14-.629.14-.874 0-.238-.14-.238-.368 0-.508s.629-.14.874 0ZM80.865 71.509c.239.14.239.368 0 .508-.238.14-.628.14-.873 0-.239-.14-.239-.368 0-.508.238-.14.629-.14.873 0ZM64.93 80.805c.237.14.237.368 0 .508-.239.14-.63.14-.874 0-.239-.14-.239-.367 0-.508.238-.14.628-.14.873 0ZM67.206 79.474c.238.14.238.368 0 .509-.238.14-.629.14-.874 0-.238-.14-.238-.368 0-.509.239-.14.629-.14.874 0ZM51.27 86.116c.238.14.238.367 0 .508-.239.14-.629.14-.874 0-.238-.14-.238-.368 0-.508s.629-.14.874 0ZM53.546 84.791c.238.14.238.368 0 .508-.238.141-.629.141-.873 0-.239-.14-.239-.367 0-.508.238-.14.628-.14.873 0ZM55.823 83.46c.238.14.238.368 0 .509-.239.14-.629.14-.874 0-.238-.14-.238-.368 0-.509.238-.14.629-.14.874 0ZM58.1 82.136c.238.14.238.368 0 .508-.239.14-.63.14-.874 0-.238-.14-.238-.368 0-.508s.629-.14.873 0ZM60.376 80.805c.238.14.238.368 0 .508s-.629.14-.874 0c-.238-.14-.238-.367 0-.508.239-.14.63-.14.874 0ZM67.206 76.82c.238.14.238.367 0 .507s-.629.14-.874 0c-.238-.14-.238-.367 0-.508.239-.14.629-.14.874 0ZM69.482 75.495c.239.14.239.368 0 .508-.238.14-.628.14-.873 0-.238-.14-.238-.368 0-.508s.628-.14.873 0ZM71.759 74.164c.238.14.238.368 0 .508s-.629.14-.874 0c-.238-.14-.238-.368 0-.508.239-.14.63-.14.874 0ZM74.035 72.833c.239.14.239.368 0 .508-.238.14-.628.14-.873 0-.238-.14-.238-.368 0-.508s.629-.14.873 0ZM76.312 71.509c.238.14.238.368 0 .508s-.629.14-.873 0c-.239-.14-.239-.368 0-.508.238-.14.628-.14.873 0ZM78.589 70.178c.238.14.238.368 0 .508-.239.14-.629.14-.874 0-.238-.14-.238-.368 0-.508s.629-.14.874 0ZM62.653 79.474c.238.14.238.368 0 .509-.239.14-.63.14-.874 0-.238-.14-.238-.368 0-.509.238-.14.629-.14.874 0ZM64.93 78.15c.237.14.237.368 0 .508-.239.14-.63.14-.874 0-.239-.14-.239-.368 0-.508.238-.14.628-.14.873 0ZM51.25 83.447c.238.14.238.368 0 .508-.239.14-.629.14-.874 0-.238-.14-.238-.367 0-.508.238-.14.629-.14.874 0ZM53.526 82.123c.239.14.239.368 0 .508-.238.14-.628.14-.873 0-.238-.14-.238-.368 0-.508s.629-.14.873 0ZM55.803 80.792c.238.14.238.368 0 .508s-.629.14-.874 0c-.238-.14-.238-.368 0-.508.239-.14.63-.14.874 0ZM58.08 79.46c.238.141.238.369 0 .51-.239.14-.63.14-.874 0-.238-.141-.238-.369 0-.51.238-.14.629-.14.874 0ZM64.91 75.482c.238.14.238.367 0 .508-.239.14-.63.14-.874 0-.239-.14-.239-.368 0-.508.238-.14.629-.14.873 0ZM67.186 74.15c.238.141.238.368 0 .509-.238.14-.629.14-.874 0-.238-.14-.238-.368 0-.508.239-.14.63-.14.874 0ZM69.463 72.82c.238.14.238.368 0 .508-.239.14-.63.14-.874 0-.238-.14-.238-.368 0-.508s.629-.14.874 0ZM71.74 71.496c.237.14.237.367 0 .508-.24.14-.63.14-.874 0-.239-.14-.239-.368 0-.508.238-.141.628-.141.873 0ZM74.016 70.165c.238.14.238.367 0 .508-.239.14-.63.14-.874 0-.238-.14-.238-.368 0-.508s.629-.14.874 0ZM76.292 68.834c.239.14.239.367 0 .508-.238.14-.629.14-.873 0-.239-.14-.239-.368 0-.508.238-.14.628-.14.873 0ZM60.356 78.137c.238.14.238.367 0 .508-.238.14-.629.14-.873 0-.239-.14-.239-.368 0-.508.238-.14.628-.14.873 0ZM62.633 76.806c.238.14.238.368 0 .508-.239.14-.629.14-.874 0-.238-.14-.238-.368 0-.508s.629-.14.874 0ZM51.25 80.792c.238.14.238.368 0 .508-.239.14-.629.14-.874 0-.238-.14-.238-.368 0-.508s.629-.14.874 0ZM53.526 79.97c-.238.14-.628.14-.873 0-.238-.141-.238-.369 0-.51.238-.14 1.112.369.873.51ZM69.462 70.165c.239.14.239.367 0 .508-.238.14-.628.14-.873 0-.238-.14.629-.649.873-.508ZM84.565 71.522c.238-.14.629-.14.873 0 .239.14.245.368 0 .508-.238.14-.628.14-.873 0-.239-.14-.239-.367 0-.508ZM87.715 70.191c.238.14.238.368 0 .509-.238.14-.629.14-.874 0-.238-.14-.238-.368 0-.509.239-.14.63-.14.874 0ZM89.992 68.86c.238.14.238.368 0 .509-.239.14-.63.14-.874 0-.245-.14-.238-.368 0-.509.238-.14.629-.14.874 0ZM92.268 67.536c.238.14.238.368 0 .508s-.629.14-.874 0c-.238-.14-.238-.367 0-.508.239-.14.63-.14.874 0ZM94.545 66.205c.238.14.238.368 0 .508-.239.14-.629.14-.874 0-.238-.14-.238-.367 0-.508.238-.14.629-.14.874 0ZM96.821 64.874c.239.14.239.368 0 .509-.238.14-.628.14-.873 0-.238-.14-.238-.368 0-.509.238-.14.628-.14.873 0ZM82.288 70.191c.238-.14.629-.14.874 0 .238.14.238.368 0 .509-.239.14-.629.14-.874 0-.238-.14-.238-.368 0-.509ZM85.438 68.86c.239.14.239.368 0 .509-.238.14-.628.14-.873 0-.239-.14-.239-.368 0-.509.238-.14.629-.14.873 0ZM87.715 67.536c.238.14.238.368 0 .508s-.629.14-.874 0c-.238-.14-.238-.367 0-.508.239-.14.63-.14.874 0ZM89.992 66.205c.238.14.238.368 0 .508-.239.14-.63.14-.874 0-.238-.14-.238-.367 0-.508.238-.14.629-.14.874 0ZM92.268 64.874c.238.14.238.368 0 .509-.238.14-.629.14-.874 0-.238-.14-.238-.368 0-.509.239-.14.63-.14.874 0ZM94.545 63.55c.238.14.238.368 0 .508-.239.14-.629.14-.874 0-.238-.14-.238-.368 0-.508s.629-.14.874 0ZM96.821 62.22c.239.14.239.367 0 .507-.238.14-.628.14-.873 0-.238-.14-.238-.367 0-.508.238-.14.628-.14.873 0ZM80.012 68.86c.238-.14.628-.14.873 0 .238.14.245.368 0 .509-.238.14-.629.14-.873 0-.239-.14-.245-.368 0-.509ZM83.162 67.536c.238.14.238.368 0 .508-.239.14-.629.14-.874 0-.238-.14-.238-.367 0-.508.238-.14.629-.14.874 0ZM92.268 62.22c.238.14.238.367 0 .507s-.629.14-.874 0c-.238-.14-.238-.367 0-.508.239-.14.63-.14.874 0ZM94.545 60.895c.238.14.238.368 0 .508-.239.14-.629.14-.874 0-.238-.14-.238-.368 0-.508s.629-.14.874 0ZM96.821 59.564c.239.14.239.368 0 .508-.238.14-.628.14-.873 0-.238-.14-.238-.368 0-.508s.628-.14.873 0ZM77.715 67.523c.238-.14.629-.14.874 0 .238.14.245.368 0 .508-.239.14-.629.14-.874 0-.238-.14-.245-.368 0-.508ZM80.865 66.192c.239.14.239.368 0 .508-.238.14-.628.14-.873 0-.239-.14-.239-.368 0-.508.238-.14.629-.14.873 0ZM92.248 59.55c.239.141.239.368 0 .509-.238.14-.628.14-.873 0-.239-.14-.239-.368 0-.508.238-.14.628-.14.873 0ZM94.525 58.22c.238.14.238.367 0 .508-.238.14-.629.14-.874 0-.238-.14-.238-.368 0-.508.239-.14.63-.14.874 0ZM75.439 66.192c.238-.14.628-.14.873 0 .238.14.245.368 0 .508-.238.14-.629.14-.873 0-.239-.14-.245-.368 0-.508ZM78.589 64.86c.238.141.238.369 0 .51-.239.14-.629.14-.874 0-.238-.141-.238-.369 0-.51.238-.14.629-.14.874 0ZM80.865 64.045c-.238.14-.628.14-.873 0-.239-.14-.239-.368 0-.508.238-.14 1.112.367.873.508ZM92.248 56.895c.239.14.239.368 0 .509-.238.14-.628.14-.873 0-.239-.14-.239-.368 0-.509.238-.14.628-.14.873 0Z" fill="#16171B"/><path d="M81.891 24.077a4.097 4.097 0 0 1-1.826-3.665l.099-1.605c.08-1.371-2.998 2-4.09 1.177l4.56-2.675c.165-.094.178-.328.026-.449C72.805 10.975 61.501 4.046 52.527.348a3.947 3.947 0 0 1-.139-.054 1.295 1.295 0 0 0-.715 0c-2.33.595-15.108 6.936-22.48 12.24-2.728 1.959-5.256 4.734-7.354 7.925-.258.388-.496.789-.74 1.183l-.2.322c-.37.622-.727 1.257-1.058 1.906-3.495 6.801-6.393 14.158-7.664 17.53h-.006c-.378 1.002-1.046 1.912-1.787 2.474-.1.073-.205.147-.311.207a2.659 2.659 0 0 0-.43.321c-.43.374-.808.916-1.026 1.511 0 0 .006-.006.013-.006 0 .007-.007.02-.013.027L3.428 59.958c-.966 2.595-1.668 7.25-1.826 8.354-.027.16-.04.328-.04.488-.053 2.34.291 4.461 1.059 6.207 0 0 .397.702.582.782.225.274.583.642 1.066 1.077a2.363 2.363 0 0 0 2.316.495 2.35 2.35 0 0 1 2.032.28c2.17 1.445 7.816 5.084 13.818 7.986a2.69 2.69 0 0 1 1.443 1.752c.231.863.668 1.94 1.476 2.301 1.82.823 3.739 1.632 5.75 2.415 0 0 .841-4.649 1.57-6.862l6.273-17.075c.165-.515.437-.983.787-1.391l25.202-29.334a4.022 4.022 0 0 1 2.693-1.391l16.91-1.505a4.042 4.042 0 0 0 2.52-1.197l3.482-3.558-8.637-5.698-.013-.007Z" fill="#FFDB4D"/><path d="m31.29 92.422-.278-.107a121.996 121.996 0 0 1-5.764-2.42c-.894-.402-1.37-1.559-1.615-2.462a2.494 2.494 0 0 0-1.31-1.592C16.3 82.932 10.629 79.274 8.47 77.836a2.091 2.091 0 0 0-1.82-.248 2.603 2.603 0 0 1-2.554-.548c-.47-.428-.828-.79-1.066-1.07-.205-.14-.457-.529-.635-.85-.788-1.785-1.152-3.906-1.092-6.333 0-.174.02-.348.046-.522.252-1.719.94-5.972 1.84-8.4l5.188-14.038a4.102 4.102 0 0 1 1.099-1.612c.152-.134.311-.254.47-.348.1-.053.192-.12.284-.194.715-.535 1.35-1.418 1.708-2.354l.04-.08c1.396-3.706 4.229-10.828 7.643-17.483.305-.595.656-1.224 1.066-1.92.033-.06.073-.12.112-.18l.086-.14c.245-.402.49-.81.748-1.198 2.164-3.29 4.732-6.052 7.419-7.992C36.406 7.042 49.225.67 51.62.053c.285-.073.563-.073.828 0 .06.014.119.04.185.067 9.364 3.86 20.9 11.09 28.173 16.54.139.1.212.267.205.441a.52.52 0 0 1-.252.422l-3.904 2.294c.503-.154 1.145-.562 1.668-.89.794-.508 1.317-.843 1.667-.635.16.093.232.274.219.535l-.1 1.605a3.865 3.865 0 0 0 1.715 3.444l8.888 5.866-3.687 3.772a4.294 4.294 0 0 1-2.673 1.27l-16.91 1.505a3.756 3.756 0 0 0-2.534 1.305L39.906 66.927c-.33.388-.575.823-.734 1.311L32.898 85.32c-.708 2.16-1.549 6.768-1.555 6.815l-.053.294v-.007ZM7.313 76.986c.503 0 1 .147 1.43.435 2.15 1.431 7.795 5.076 13.791 7.972A2.975 2.975 0 0 1 24.11 87.3c.212.796.616 1.82 1.337 2.14a119.69 119.69 0 0 0 5.467 2.308c.198-1.064.893-4.695 1.522-6.601l6.274-17.082a4.316 4.316 0 0 1 .827-1.47l25.201-29.335a4.238 4.238 0 0 1 2.86-1.471l16.908-1.505a3.823 3.823 0 0 0 2.37-1.124l3.269-3.337-8.392-5.538A4.36 4.36 0 0 1 79.82 20.4l.099-1.606v-.073c-.205.027-.761.381-1.138.622-1.013.642-2.158 1.37-2.853.843l-.297-.221 4.884-2.863C73.268 11.637 61.772 4.427 52.44.581c-.033-.013-.1-.04-.12-.046a1.076 1.076 0 0 0-.581 0c-2.37.609-15.09 6.942-22.402 12.206-2.641 1.9-5.162 4.614-7.293 7.858-.259.388-.497.783-.735 1.177l-.093.147-.106.168a37.725 37.725 0 0 0-1.052 1.892c-3.428 6.675-6.267 13.831-7.65 17.503l-.04.08c-.397 1.01-1.065 1.92-1.846 2.502-.113.08-.219.154-.331.22a2.166 2.166 0 0 0-.39.288 3.573 3.573 0 0 0-.888 1.237l-.06.167-5.2 14.052c-.888 2.388-1.563 6.601-1.814 8.3-.02.154-.04.308-.04.461-.053 2.355.298 4.408 1.04 6.1.165.287.383.609.462.655l.06.027.026.04c.219.268.576.636 1.04 1.057a2.124 2.124 0 0 0 2.078.441c.264-.087.536-.127.807-.127Z" fill="#16171B"/><path d="M57.974 11.022C47.888 5.223 44.288 3.638 43.619 3.986 38.927 6.4 33.236 9.631 29.18 12.553c-2.727 1.96-5.255 4.736-7.353 7.926-.258.388-.496.789-.741 1.184l-.199.32c-.37.623-.727 1.258-1.058 1.907-3.495 6.802-6.393 14.158-7.664 17.53h-.007c-.377 1.002-1.045 1.912-1.787 2.474-.099.073-.205.147-.31.207a3.187 3.187 0 0 0-.788.696s.768 1.418 4.156 3.698c3.395 2.288 17.405 10.995 23.845 12.574 6.439 1.578 8-5.01 8-5.01L72.56 19.964s-4.487-3.13-14.586-8.935v-.007Z" fill="#FFDB4D"/><path d="M58.331 15.416C48.245 9.617 44.645 8.032 43.977 8.38c-4.693 2.414-10.384 5.645-14.44 8.568-2.727 1.96-5.256 4.735-7.354 7.925-.258.388-.496.79-.74 1.184l-.2.32c-.37.623-.727 1.258-1.058 1.907-3.494 6.802-6.393 14.158-7.664 17.53h-.006c-.378 1.01-1.046 1.912-1.787 2.474-.1.073-.205.147-.311.207a3.186 3.186 0 0 0-.788.696s.768 1.418 4.156 3.698c3.395 2.287 17.406 10.995 23.845 12.574 6.44 1.578 8.001-5.01 8.001-5.01l27.286-36.095s-4.494-3.13-14.586-8.935v-.007Z" fill="#FCEBCC"/><path d="M39.172 61.55a8.343 8.343 0 0 1-1.966-.254c-6.763-1.658-21.336-10.868-23.924-12.614-3.388-2.28-4.202-3.725-4.235-3.785l-.08-.147.113-.127c.132-.16.265-.294.384-.401.152-.134.31-.255.47-.348.099-.054.192-.12.284-.194.715-.535 1.35-1.418 1.708-2.354l.033-.08c1.396-3.7 4.222-10.822 7.643-17.483.305-.596.656-1.224 1.066-1.92.033-.06.073-.12.113-.18l.086-.14c.244-.402.49-.81.747-1.198 2.165-3.29 4.732-6.053 7.42-7.992 4.99-3.592 11.78-7.197 14.466-8.588.642-.327 2.846.295 14.586 7.043 9.987 5.745 14.56 8.915 14.6 8.942l.211.147-.159.207-27.26 36.056c-.112.421-.886 3.11-3.196 4.534-.926.575-1.972.856-3.13.856l.02.02ZM9.576 44.803c.285.408 1.304 1.666 3.984 3.472 2.575 1.738 17.075 10.901 23.765 12.54 1.82.448 3.409.26 4.72-.549 2.282-1.411 2.977-4.247 2.984-4.28l.046-.094L72.21 20.004c-1.006-.682-5.586-3.732-14.354-8.775C47 4.99 44.188 3.96 43.732 4.193c-2.68 1.378-9.444 4.976-14.408 8.548-2.64 1.9-5.162 4.614-7.293 7.858-.258.388-.496.783-.734 1.177l-.093.148c-.033.053-.073.113-.106.167a37.9 37.9 0 0 0-1.052 1.892c-3.435 6.682-6.267 13.838-7.65 17.503l-.04.08c-.397 1.01-1.066 1.92-1.847 2.508-.112.08-.218.154-.33.221a2.164 2.164 0 0 0-.391.288c-.073.06-.139.133-.218.214l.006.006Z" fill="#16171B"/><path d="M54.81 79.494s-2.395 1.913-7.233-1.157c-4.838-3.07-8.822-2.876-11.482-1.056-2.654 1.819 2.031-14.386 2.25-14.768.218-.38 9.232-8.915 10.086-8.915.853 0 10.72 9.878 10.72 9.878l-4.34 16.018Z" fill="#FCEBCC"/><path d="M54.837 77.421s-2.396 1.913-7.234-1.157c-4.837-3.07-8.821-2.876-11.482-1.057-2.654 1.82 2.032-14.386 2.25-14.767.219-.381 9.232-8.915 10.086-8.915.854 0 10.721 9.878 10.721 9.878l-4.341 16.018Z" fill="#FFDB4D"/><path d="M52.593 80.337c-1.23 0-2.945-.395-5.142-1.786-4.275-2.708-8.26-3.09-11.217-1.056-.457.314-.742.16-.874.04-1.43-1.344 2.707-15.015 2.773-15.135.053-.087 9.186-9.043 10.298-9.043.886 0 8.563 7.618 10.893 9.952l.1.1-4.402 16.24-.06.053c-.059.047-.84.648-2.369.648v-.013ZM40.53 75.71c1.919 0 4.315.602 7.18 2.421 4.222 2.675 6.5 1.465 6.89 1.21l4.281-15.79c-3.712-3.712-9.748-9.544-10.463-9.704-.86.16-9.45 8.213-9.86 8.801-.537 1.157-3.852 13.657-2.853 14.52.047.04.166-.02.258-.087.947-.649 2.475-1.371 4.573-1.371h-.006Z" fill="#16171B"/><path d="M94.882 52.2s-.609.682-5.446-2.387c-4.838-3.07-8.822-2.876-11.483-1.057-2.66 1.82 2.032-14.386 2.25-14.767.219-.381.365 1.505 1.218 1.505.854 0 14.712 11.69 14.712 11.69l-1.25 5.016Z" fill="#FCEBCC"/><path d="M94.558 50.254s-.609.682-5.447-2.388c-4.837-3.07-8.821-2.875-11.482-1.056-2.654 1.819 2.032-14.386 2.25-14.768.219-.38.364 1.505 1.218 1.505s14.712 11.691 14.712 11.691l-1.251 5.016Z" fill="#FFDB4D"/><path d="M94.604 52.515c-.642 0-2.084-.449-5.3-2.488-4.276-2.709-8.26-3.09-11.218-1.057-.457.314-.741.16-.874.04-1.423-1.338 2.707-15.015 2.773-15.135.1-.174.239-.18.291-.174.219.02.292.22.417.562.146.395.37.996.715.996.874 0 11.601 8.99 14.87 11.745l.12.1-1.304 5.223-.04.047c-.066.074-.198.147-.456.147l.006-.006Zm-12.216-5.33c1.919 0 4.314.601 7.18 2.42 3.733 2.368 4.851 2.441 5.11 2.408l1.177-4.742c-5.235-4.414-13.686-11.363-14.46-11.53-.629 0-.94-.736-1.125-1.237-.741 2.314-3.693 13.289-2.72 14.132.04.04.165-.02.258-.087.946-.65 2.468-1.371 4.566-1.371l.014.006Z" fill="#16171B"/><path d="M84.181 66.018s-2.581.02-5.38-1.76c-2.8-1.778-4.223-2.668-5.05-3.718-.827-1.05 4.414-10.199 4.414-10.199l3.819-6.033s5.93 2.14 8.597 4.996c2.667 2.863-3.303 10.815-3.303 10.815l-3.097 5.906v-.007Z" fill="#FCEBCC"/><path d="M84.247 61.029c-2.376-2.549-7.326-4.515-8.391-4.923l2.283-5.845s-5.242 9.149-4.414 10.199c.827 1.05 2.25 1.94 5.05 3.719a11.458 11.458 0 0 0 4.552 1.692l.126-.234s3.461-1.746.794-4.608Z" fill="#FFDB4D"/><path d="M84.174 66.265c-.212 0-2.74-.04-5.5-1.799l-.257-.167c-2.68-1.705-4.03-2.562-4.851-3.612-.86-1.096 3.15-8.3 4.394-10.48l3.931-6.206.185.067c.245.087 6.016 2.193 8.697 5.063 2.779 2.976-3.038 10.8-3.29 11.128l-3.15 6h-.159v.006ZM82.09 44.603l-3.713 5.865c-2.475 4.32-4.877 9.35-4.434 9.918.774.984 2.098 1.826 4.732 3.498l.258.168c2.343 1.484 4.533 1.692 5.109 1.718l3.031-5.765c.08-.113 5.837-7.852 3.342-10.527-2.336-2.508-7.306-4.48-8.319-4.869l-.006-.006Z" fill="#16171B"/><path d="M92.261 52.85c.477 4.112-1.8 9.456-5.089 11.93-3.289 2.475-6.34 1.144-6.816-2.969-.477-4.113 1.8-9.457 5.089-11.931 3.289-2.475 6.34-1.144 6.816 2.97Z" fill="#16171B"/><path d="M83.989 66.272c-.483 0-.94-.094-1.377-.28-1.37-.596-2.256-2.074-2.501-4.154-.483-4.187 1.84-9.638 5.182-12.16 1.66-1.25 3.329-1.61 4.705-1.016 1.37.596 2.257 2.074 2.502 4.154.483 4.186-1.84 9.637-5.182 12.159-1.138.856-2.283 1.297-3.329 1.297Zm4.633-17.389c-.94 0-1.986.408-3.038 1.197-3.216 2.421-5.46 7.671-4.99 11.704.218 1.9 1.006 3.23 2.21 3.759 1.205.528 2.7.187 4.216-.956 3.216-2.421 5.46-7.672 4.99-11.705-.218-1.899-1.006-3.23-2.21-3.758-.371-.16-.768-.241-1.185-.241h.007Z" fill="#16171B"/><path d="M84.644 63.83c-.357 0-.695-.066-1.019-.206-1.006-.442-1.661-1.519-1.84-3.044-.35-3.03 1.33-6.975 3.753-8.801 1.217-.916 2.442-1.177 3.448-.736 1.005.442 1.66 1.519 1.84 3.043.35 3.03-1.33 6.976-3.753 8.802-.827.622-1.668.943-2.435.943h.006Zm3.329-12.5c-.662 0-1.396.288-2.144.85-2.297 1.733-3.892 5.471-3.56 8.347.151 1.338.7 2.28 1.548 2.642.84.368 1.893.127 2.965-.682 2.296-1.726 3.891-5.471 3.56-8.347-.152-1.338-.701-2.28-1.548-2.642a2.003 2.003 0 0 0-.821-.167Z" fill="#FFDB4D"/><path d="M84.644 63.824c-.569 0-1.092-.174-1.542-.522l-.205-.42.338-.021c.628-.04 1.317-.334 1.992-.843 2.296-1.725 3.891-5.47 3.56-8.346-.126-1.084-.516-1.913-1.125-2.381l-.212-.167.344-.281c1.628-.107 2.793 1.136 3.038 3.237.35 3.03-1.33 6.975-3.752 8.801-.828.622-1.668.936-2.436.936v.007Zm-.668-.602c.807.281 1.8.027 2.813-.736 2.296-1.725 3.89-5.47 3.56-8.346-.179-1.525-.88-2.522-1.9-2.756.437.555.715 1.311.821 2.227.351 3.03-1.33 6.976-3.752 8.802-.51.381-1.033.655-1.542.81Z" fill="#FFDB4D"/><path d="M42.852 90.938s-2.581.02-5.38-1.76c-2.8-1.778-4.223-2.668-5.05-3.718-.828-1.05 4.414-10.2 4.414-10.2l3.819-6.032s5.93 2.14 8.596 4.996c2.667 2.863-3.302 10.815-3.302 10.815l-3.097 5.905v-.006Z" fill="#FCEBCC"/><path d="m42.574 90.877.728-1.384s1.68.448-.986-2.408c-2.668-2.862-8.597-4.996-8.597-4.996l2.561-5.671c-1.383 2.515-4.388 8.193-3.746 9.002.827 1.05 2.25 1.94 5.05 3.718 2.157 1.372 4.176 1.673 4.996 1.74h-.006Z" fill="#FFDB4D"/><path d="M42.845 91.185c-.212 0-2.74-.04-5.5-1.799l-.258-.167c-2.68-1.706-4.03-2.562-4.85-3.612-.861-1.097 3.15-8.3 4.394-10.48l3.93-6.206.186.066c.245.087 6.016 2.187 8.696 5.063 2.78 2.977-3.037 10.802-3.289 11.13l-3.15 5.998h-.159v.007ZM40.76 69.522l-3.712 5.866c-2.476 4.32-4.878 9.35-4.434 9.918.774.983 2.098 1.826 4.731 3.498l.258.167c2.343 1.485 4.534 1.692 5.11 1.72l3.03-5.766c.08-.114 5.838-7.852 3.343-10.527-2.336-2.508-7.306-4.48-8.32-4.869l-.006-.007Z" fill="#16171B"/><path d="M50.932 77.769c.477 4.113-1.8 9.457-5.09 11.931-3.288 2.475-6.34 1.144-6.816-2.97-.476-4.112 1.8-9.456 5.09-11.93 3.289-2.475 6.34-1.144 6.816 2.969Z" fill="#16171B"/><path d="M42.666 91.198c-.483 0-.946-.093-1.376-.28-1.37-.596-2.257-2.074-2.502-4.154-.483-4.186 1.84-9.637 5.182-12.152 1.661-1.25 3.336-1.612 4.706-1.017 1.37.596 2.256 2.074 2.501 4.154.483 4.187-1.84 9.637-5.182 12.159-1.138.856-2.283 1.297-3.329 1.297v-.007ZM47.3 73.81c-.94 0-1.986.407-3.038 1.197-3.216 2.42-5.46 7.67-4.99 11.704.219 1.9 1.006 3.23 2.21 3.758 1.205.529 2.7.188 4.216-.956 3.217-2.421 5.46-7.671 4.99-11.704-.218-1.9-1.006-3.23-2.21-3.759-.37-.16-.768-.24-1.185-.24h.007Z" fill="#16171B"/><path d="M43.315 88.75c-.358 0-.695-.066-1.02-.207-1.005-.441-1.66-1.518-1.84-3.043-.35-3.03 1.331-6.975 3.753-8.801 1.218-.916 2.442-1.177 3.448-.736 1.006.442 1.661 1.518 1.84 3.043.35 3.03-1.33 6.976-3.752 8.802-.828.622-1.668.943-2.436.943h.007Zm3.329-12.5c-.662 0-1.397.288-2.145.85-2.296 1.726-3.891 5.47-3.56 8.347.152 1.337.701 2.28 1.548 2.642.841.367 1.893.127 2.965-.683 2.297-1.725 3.892-5.47 3.56-8.346-.151-1.338-.7-2.28-1.548-2.642a2.003 2.003 0 0 0-.82-.167Z" fill="#FFDB4D"/><path d="M43.315 88.744c-.57 0-1.092-.174-1.542-.522l-.199-.421.331-.02c.629-.04 1.317-.335 1.992-.843 2.297-1.725 3.892-5.47 3.56-8.347-.125-1.083-.516-1.912-1.124-2.38l-.291-.228.43-.214c1.628-.107 2.792 1.137 3.037 3.237.351 3.03-1.33 6.976-3.752 8.802-.827.622-1.668.936-2.435.936h-.007Zm-.668-.602c.807.28 1.8.027 2.812-.736 2.297-1.725 3.891-5.47 3.56-8.346-.178-1.525-.88-2.529-1.899-2.756.437.555.715 1.311.82 2.227.352 3.03-1.33 6.976-3.752 8.802-.51.381-1.032.655-1.541.809Z" fill="#FFDB4D"/><path d="m30.794 91.573-.146-.334c-1.654-3.76-1.383-9.263.735-14.962l5.228-14.071c.284-.77.827-1.458 1.416-1.8.887-.514 1.707-1.551 2.144-2.708 1.278-3.39 4.223-10.875 7.77-17.75 2.343-4.541 5.645-8.467 9.205-11.089 5.229-3.852 14.084-6.26 21.118-8.875-.727.274 1.006.689 1.51 1.525 1.654 2.742 7.484 3.939 8.735 8.32.132.461.523.628.993.414l1.019-.461s1.992 1.378 2.541 6.735c.053.548.298.936.622 1.197 2.065 1.705 2.734 4.474 2.978 12.24.02.661-.377 1.484-.94 1.945-.575.462-1.137.408-1.316-.133-.755-2.274-2.23-8.36-9.1-4.167-6.466 3.953-8.431 12.614-9.014 16.72-.192 1.344-1.112 2.782-2.184 3.444L55.412 79.22c-.94.575-1.727.214-1.82-.823-.304-3.424-1.912-10.547-9.88-5.758-6.572 3.946-8.392 12.58-8.875 16.205-.132.97.523 1.157-.258 1.599l-2.343 1.444c-.635.362-1.198.241-1.436-.3l-.006-.014Z" fill="#16171B"/><path d="M31.548 92.335c-.12 0-.238-.02-.344-.053-.278-.094-.497-.301-.629-.602l-.145-.334c-1.688-3.84-1.423-9.357.727-15.149l5.229-14.072c.304-.816.887-1.558 1.522-1.926.84-.488 1.621-1.478 2.038-2.581 1.41-3.739 4.302-11.029 7.783-17.777 2.33-4.515 5.625-8.48 9.278-11.17 4.018-2.956 10.08-5.042 15.937-7.062 1.84-.635 3.573-1.23 5.234-1.853l.153.415c0-.033 0-.073-.014-.093.04.06.278.2.45.307.424.254.947.562 1.212 1.003.641 1.07 1.998 1.92 3.434 2.823 2.138 1.344 4.56 2.869 5.328 5.55.026.101.092.235.218.295.113.054.272.04.444-.04l1.144-.522.113.08c.086.06 2.091 1.505 2.64 6.916.047.435.225.782.53 1.037 2.138 1.759 2.826 4.548 3.07 12.426.02.742-.41 1.645-1.032 2.147-.39.314-.794.435-1.145.334-.264-.08-.463-.287-.562-.581l-.133-.409c-.483-1.511-1.297-4.046-3.302-4.802-1.383-.521-3.17-.127-5.308 1.178-6.485 3.959-8.378 12.888-8.894 16.54-.199 1.397-1.165 2.922-2.303 3.617L55.525 79.434c-.543.335-1.079.401-1.496.187-.397-.2-.642-.628-.688-1.197-.179-1.993-.827-5.518-3.157-6.721-1.581-.816-3.726-.428-6.36 1.15-6.498 3.9-8.285 12.507-8.755 16.025-.047.334.013.561.073.755.105.388.139.69-.45 1.024l-2.337 1.438c-.284.16-.555.24-.814.24h.007Zm-.53-.856c.073.174.186.281.338.335.205.067.477.02.755-.147l2.336-1.438c.31-.174.304-.194.225-.469a2.26 2.26 0 0 1-.086-.95c.476-3.59 2.316-12.379 8.994-16.385 2.786-1.672 5.089-2.067 6.83-1.164 2.534 1.311 3.229 5.023 3.42 7.116.034.395.186.676.424.796.265.134.63.074 1.026-.167L73.976 67.55c1.02-.628 1.893-2 2.071-3.263.656-4.629 2.707-12.975 9.127-16.894 2.27-1.385 4.202-1.8 5.73-1.218 2.231.843 3.085 3.518 3.594 5.117l.133.401c.046.14.126.234.238.267.179.054.443-.04.695-.24.503-.408.867-1.157.847-1.746-.238-7.704-.887-10.407-2.892-12.058-.41-.341-.649-.803-.708-1.365-.457-4.46-1.933-6.106-2.336-6.474l-.88.401c-.312.14-.603.154-.854.04-.232-.106-.397-.32-.483-.608-.715-2.501-3.051-3.973-5.116-5.27-1.483-.937-2.885-1.82-3.594-2.983-.205-.334-.668-.615-1.045-.836-.272-.16-.483-.288-.59-.428-1.541.568-3.143 1.117-4.83 1.699-5.824 2.006-11.853 4.08-15.81 6.989-3.594 2.648-6.837 6.554-9.134 11.002-3.474 6.728-6.353 13.99-7.763 17.723-.45 1.204-1.317 2.287-2.25 2.836-.542.314-1.045.956-1.31 1.672l-5.228 14.071c-2.105 5.672-2.376 11.056-.742 14.774l.146.335.027-.014Z" fill="#16171B"/><path d="M88.694 30.243v-.02a.722.722 0 0 1-.225-.348c-1.621-5.664-6.2-10.8-7.485-12.774-.29-.441-.767-.628-1.343-.481-7.459 1.912-16.565 7.898-22.508 12.272-3.627 2.669-6.955 6.675-9.331 11.303-3.501 6.815-6.4 14.192-7.67 17.55-.437 1.157-1.258 2.187-2.145 2.708-.589.341-1.131 1.03-1.416 1.8 0 0 13.097-9.946 26.062-18.259 12.964-8.313 26.061-13.757 26.061-13.757v.006Z" fill="#16171B"/><path d="M36.571 62.507h-.35l.125-.335c.305-.816.887-1.558 1.522-1.926.84-.488 1.622-1.478 2.039-2.582 1.39-3.685 4.229-10.861 7.683-17.576 2.382-4.635 5.718-8.674 9.404-11.39 6.208-4.567 15.169-10.413 22.588-12.312.668-.174 1.257.04 1.608.582.271.414.708.996 1.21 1.665 1.88 2.501 5.024 6.681 6.308 11.176.026.093.073.16.145.234l.08.067.013.28-.159.087c-.132.054-13.23 5.531-26.022 13.738C50.158 52.3 37.273 62.038 36.73 62.453l-.066.047h-.093v.007ZM80.018 16.82c-.099 0-.212.014-.324.04-7.346 1.887-16.247 7.692-22.422 12.233-3.627 2.669-6.916 6.655-9.258 11.216-3.435 6.688-6.274 13.85-7.657 17.523-.457 1.203-1.317 2.287-2.25 2.835a2.86 2.86 0 0 0-.768.696c3.23-2.414 14.295-10.607 25.161-17.576 11.78-7.551 23.812-12.801 25.81-13.657a.845.845 0 0 1-.079-.194c-1.257-4.408-4.368-8.54-6.22-11.009-.53-.709-.954-1.264-1.232-1.692a.857.857 0 0 0-.76-.421v.006Z" fill="#16171B"/><path d="M88.47 29.896a34.104 34.104 0 0 0-.55-1.706c-4.414 1.873-9.146 4.127-9.146 4.127l-2.515.876v2.983c7.161-3.726 12.429-5.913 12.429-5.913v-.02a.72.72 0 0 1-.225-.347h.007Z" fill="#16171B"/><path d="M88.251 30.183c-1.257.535-5.85 2.542-11.747 5.591v-2.4l2.37-.83c.046-.02 4.553-2.167 8.815-3.986l-.16-.468c-4.281 1.826-8.814 3.986-8.84 3.993l-2.675.936v3.565l.358-.188c5.996-3.116 10.708-5.176 12.038-5.745l-.159-.468Z" fill="#FFDB4D"/><path d="M77.497 33.36a235.982 235.982 0 0 0-9.22 5.157c-.45.267-.82.066-.84-.449-.31-7.845-1.045-14.406-1.052-14.48l-1.8 1.225c.007.073.728 6.527 1.04 14.265.019.542-.358 1.224-.828 1.512-6.102 3.705-11.092 6.975-17.267 11.49h-.006c-.457.341-.887.247-1-.207-.31-1.238-1.058-2.2-1.058-2.2l-3.184 4.761-1.456 1.592-.648 1.672-.046.033c-.437 1.157-1.258 2.187-2.145 2.702-.589.341-1.131 1.03-1.416 1.8 0 0 13.097-9.946 26.062-18.259 5.327-3.418 10.681-6.347 15.135-8.62v-2.148l-.271.14v.014Z" fill="#16171B"/><path d="m40.74 56.915-.384.923-.013.047.033-.02.364-.95Z" fill="#FFDB4D"/><path d="M77.384 33.146a233.391 233.391 0 0 0-9.232 5.163c-.145.087-.271.107-.35.06-.073-.04-.12-.154-.126-.307a219.54 219.54 0 0 0-1.04-14.36l-1.197.83.741-.509a225.14 225.14 0 0 1 1.006 14.052c.013.334.145.589.377.722.238.134.53.107.827-.066a231.495 231.495 0 0 1 9.127-5.104v1.586c-5.42 2.768-10.477 5.644-15.023 8.56-8.948 5.739-17.902 12.206-22.64 15.704l-2.515 1.873c-.14.254-.305.595-.463.963 1.555-1.17 13.825-10.387 25.876-18.118 4.573-2.93 9.655-5.826 15.115-8.608L78 35.52v-2.709l-.629.335h.013Z" fill="#FFDB4D"/><path d="M45.466 50.114c.231.36.622 1.043.82 1.825.066.275.232.475.464.556.278.1.602.026.926-.214 5.744-4.2 10.741-7.531 17.247-11.484.549-.334.972-1.11.946-1.732-.285-7.083-.913-13.095-1.02-14.125l-.456.314c.166 1.545.728 7.216.993 13.824.02.448-.318 1.05-.715 1.291-6.519 3.96-11.528 7.297-17.293 11.51-.178.127-.35.18-.463.14-.073-.026-.126-.1-.159-.213a6.824 6.824 0 0 0-1.105-2.294l-.205-.268-3.19 4.782-.98 1.866 1.205-1.324 2.985-4.468v.014Z" fill="#FFDB4D"/><path d="M57.477 31.394a88.05 88.05 0 0 1 9.544-6.36c1.733-.997 3.368-.97 4.36.113 1.794 1.96 4.084 6.3 3.224 15.41-1.33 14.071-18.842 33.72-18.842 33.72l-2.594 1.62c.232.909.35 1.798.417 2.52.093 1.037.88 1.398 1.82.823l18.696-11.456c1.085-.663 1.998-2.114 2.19-3.472.437-3.063 1.641-8.634 4.891-12.907.807-7.458 1.079-16.005-1.006-20.613-2.482-5.484-4.97-8.889-7.604-10.855-.443-.328-1.066-.32-1.74.047-5.077 2.789-10.12 6.273-13.68 8.902-3.56 2.622-6.863 6.54-9.206 11.089-3.547 6.875-6.492 14.359-7.77 17.75 1.907-1.525 3.575-3.84 4.594-6.36 1.065-2.636 2.614-6.254 4.394-9.705 2.131-4.147 5.083-7.785 8.319-10.26l-.007-.006Z" fill="#16171B"/><path d="M66.901 24.82a88.074 88.074 0 0 0-9.57 6.38c-3.262 2.494-6.24 6.173-8.384 10.346-1.814 3.532-3.395 7.237-4.408 9.725-.873 2.16-2.23 4.16-3.792 5.631l-.39.943-.02.067c1.925-1.545 3.62-3.892 4.652-6.447 1.006-2.482 2.581-6.173 4.388-9.685 2.111-4.106 5.043-7.724 8.252-10.179a87.047 87.047 0 0 1 9.517-6.34c1.641-.943 3.157-.923 4.057.067 1.9 2.08 3.99 6.407 3.157 15.222-1.284 13.597-18.028 32.731-18.756 33.554l-2.217 1.358.12.508 2.382-1.465.668-.421s-.225-.06.378-.776c3.732-4.428 16.77-20.673 17.908-32.712.847-8.995-1.317-13.45-3.283-15.603-1.065-1.163-2.806-1.224-4.659-.16v-.014ZM80.402 30.692c-2.402-5.304-4.917-8.889-7.683-10.949l-.04-.02-.655.254h-.014c.153.034.298.08.417.168 2.7 2.013 5.162 5.537 7.532 10.76 1.687 3.726 2.025 10.715.992 20.346l.556-.67c.973-9.496.602-16.104-1.105-19.883v-.006Z" fill="#FFDB4D"/><path d="M55.724 74.331c-.14 0-.278-.027-.404-.08-.318-.134-.55-.428-.649-.83-.476-1.939-1.323-3.283-2.528-3.986-1.45-.849-3.157-.628-4.335-.287-.522.147-1.012.074-1.37-.214-.416-.334-.635-.916-.608-1.652.258-7.11-1.78-12.139-2.515-13.336-.55-.903-1.238-.528-1.264-.508l.258-.582c.43-.04.986.12 1.423.83.754 1.236 2.859 6.386 2.587 13.616-.02.569.126 1.01.417 1.244.239.187.556.234.94.12 1.27-.36 3.117-.602 4.712.335 1.317.776 2.244 2.22 2.753 4.294.04.173.14.4.358.495.211.086.49.033.794-.148L70.945 64.7c1.588-.97 2.998-3.003 3.508-5.056.893-3.598 2.812-8.66 6.862-12.3l.325.369c-3.958 3.558-5.837 8.514-6.711 12.052-.543 2.173-2.038 4.327-3.726 5.357l-14.652 8.942c-.285.174-.57.26-.834.26l.007.007Z" fill="#FFDB4D"/><path d="M83.129 39.36c.092 1.036.212 3.029.033 4.948-.04.395.33.428.589.047a6.686 6.686 0 0 0 1.112-3.484c.046-1.639-.616-2.114-1.152-2.24-.258-.06-.615.374-.582.728Z" fill="#16171B"/><path d="M83.367 44.877a.384.384 0 0 1-.152-.027c-.166-.06-.325-.234-.298-.562.179-1.906.053-3.892-.033-4.909-.027-.327.159-.648.357-.822.166-.148.351-.208.523-.168.523.12 1.397.602 1.344 2.488a6.88 6.88 0 0 1-1.152 3.612c-.159.24-.377.381-.589.381v.007Zm0-5.538c.093 1.03.218 3.057.033 4.996v.034a.418.418 0 0 0 .14-.148 6.48 6.48 0 0 0 1.071-3.35c.02-.803-.126-1.8-.96-1.993-.013 0-.072.026-.138.1-.1.107-.16.254-.146.361Z" fill="#FFDB4D"/><path d="m43.996 68.225-1.442.843c-.338.2-.616-.014-.616-.468 0-.455.278-.99.616-1.191l1.442-.843c.338-.2.616.014.616.468 0 .455-.278.99-.616 1.191Z" fill="#16171B"/><path d="M42.302 69.389a.576.576 0 0 1-.278-.074c-.212-.127-.337-.388-.337-.715 0-.542.324-1.164.734-1.405l1.443-.843c.225-.133.463-.14.649-.033.211.127.337.388.337.715 0 .542-.324 1.164-.734 1.405l-1.443.843a.697.697 0 0 1-.37.107Zm1.933-2.649s-.073.014-.12.04l-1.442.843c-.265.154-.497.609-.497.977 0 .16.047.26.093.287.033.02.093 0 .159-.033l1.443-.843c.264-.154.49-.609.49-.977 0-.16-.047-.26-.093-.287-.007 0-.02-.007-.033-.007ZM30.072 83.775c-.06.073-.112.147-.165.22l-.02 1.184c.113-.394.298-.762.563-1.083a48.919 48.919 0 0 1 9.913-9.036l.596-.99c-5.56 3.652-9.378 7.892-10.887 9.711v-.006Z" fill="#FFDB4D"/><path d="m70.482 46.154-2.647 1.177c-.642.288-1.125-.066-1.125-.822s.483-1.672 1.125-2.14l2.647-1.913c.946-.689 1.787-.308 1.787.81 0 1.116-.834 2.467-1.787 2.888Z" fill="#16171B"/><path d="M67.418 47.672a.876.876 0 0 1-.49-.14c-.298-.194-.457-.562-.457-1.023 0-.843.516-1.826 1.231-2.341l2.647-1.913c.55-.394 1.112-.495 1.542-.274.404.207.629.675.629 1.284 0 1.224-.887 2.649-1.932 3.117l-2.648 1.177c-.178.08-.357.12-.516.12l-.006-.007Zm3.964-5.316c-.225 0-.483.1-.755.3L67.98 44.57c-.576.415-1.026 1.264-1.026 1.94 0 .287.086.515.239.615.132.087.33.08.549-.013l2.647-1.177c.86-.382 1.641-1.652 1.641-2.662 0-.422-.132-.722-.364-.843a.6.6 0 0 0-.271-.06l-.013-.014Z" fill="#FFDB4D"/><path d="M68.516 45.452c0 .85.543 1.25 1.27.93l1.152-.509c.748-.581 1.33-1.672 1.33-2.601 0-.93-.582-1.338-1.33-1.05l-1.151.83c-.722.52-1.27 1.557-1.27 2.407v-.007Z" fill="#16171B"/><path d="M69.31 46.736a.97.97 0 0 1-.536-.154c-.324-.214-.503-.615-.503-1.13 0-.936.576-2.033 1.37-2.608l1.205-.863c.43-.167.834-.14 1.145.073.33.235.516.663.516 1.204 0 .977-.603 2.154-1.43 2.803l-.053.033-1.151.515c-.199.087-.39.134-.57.134l.007-.007Zm1.74-4.307-1.124.816c-.655.475-1.165 1.445-1.165 2.207 0 .341.1.595.278.716.159.107.39.1.648-.014l1.126-.501c.694-.555 1.21-1.579 1.21-2.395 0-.374-.105-.662-.304-.796-.165-.113-.403-.127-.668-.033Z" fill="#FFDB4D"/><path d="M70.634 45.76h-.49c0-.863.582-1.88 1.324-2.314l.675-.395.245.428-.675.395c-.583.34-1.08 1.204-1.08 1.886ZM26.313 17.904S23.097 20.479 14.6 40.255a3.903 3.903 0 0 0 1.112 4.555c2.594 2.12 8.008 5.785 18.742 10.594 1.867.836 4.044-.06 4.805-1.973 2.343-5.906 7.28-17.623 10.953-21.449 0 0 1.674-1.852 3.349-3.31.701-.609.608-1.733-.186-2.207l-20.8-12.367a2.037 2.037 0 0 0-2.277.127c-1.165.883-2.951 2.335-3.984 3.666v.013Z" fill="#FFDB4D"/><path d="M35.916 55.972c-.53 0-1.059-.113-1.562-.334-10.628-4.769-16.088-8.414-18.795-10.627a4.175 4.175 0 0 1-1.185-4.85c8.134-18.933 11.423-22.137 11.76-22.424 1.026-1.318 2.747-2.729 4.018-3.692a2.286 2.286 0 0 1 2.548-.147l20.8 12.366c.443.268.728.716.774 1.237a1.616 1.616 0 0 1-.549 1.371c-1.641 1.432-3.309 3.27-3.329 3.29-3.593 3.746-8.372 15.002-10.906 21.376a3.82 3.82 0 0 1-2.125 2.154c-.47.194-.96.287-1.45.287v-.007Zm-9.45-37.874c-.053.04-3.343 2.936-11.642 22.258a3.668 3.668 0 0 0 1.046 4.267c2.687 2.2 8.107 5.818 18.69 10.56.84.375 1.773.395 2.627.04a3.34 3.34 0 0 0 1.853-1.879c2.54-6.407 7.352-17.73 11.005-21.529.014-.013 1.701-1.873 3.362-3.324.278-.24.417-.588.384-.95a1.098 1.098 0 0 0-.536-.856l-20.8-12.366a1.8 1.8 0 0 0-2.005.114c-1.251.943-2.945 2.34-3.938 3.618l-.04.04-.007.007Z" fill="#16171B"/><path d="M28.252 47.17c-.675-.36-1.27-.855-1.7-1.49-1.179-1.74-.298-2.977-2.76-4.689-2.012-1.398-3.448-.709-4.163-.127a.736.736 0 0 1-1.105-.194c-.47-.802-.536-1.812-.179-2.722 8.895-22.806 15.109-23.321 15.109-23.321l-.88-.522a2.036 2.036 0 0 0-2.277.127c-1.165.883-2.951 2.334-3.984 3.665 0 0-3.21 2.575-11.694 22.318-.688 1.605-.251 3.491 1.099 4.595 2.594 2.127 8.008 5.785 18.742 10.594 1.866.836 4.044-.06 4.805-1.973.092-.234.191-.475.29-.729-4.506-2.026-8.252-3.892-11.296-5.538l-.007.007Z" fill="#FFDB4D"/><path d="M37.59 51.933c.16.1.331.2.53.294-.1.248-.199.495-.291.73a3.594 3.594 0 0 1-4.342 2.14c.35.16.708.32 1.072.48 1.867.837 4.044-.06 4.805-1.972.093-.234.192-.475.291-.73-.708-.32-1.39-.628-2.065-.942ZM19.788 41.058s-1.357-.548-1.344-.569c-.417-.789-.45-1.591-.106-2.467 7.34-18.814 12.846-22.452 14.553-23.154.073-.128.14-.248.212-.368l-.536-.321a2.037 2.037 0 0 0-2.276.127c-1.165.883-2.952 2.334-3.985 3.665 0 0-3.21 2.575-11.694 22.318a3.98 3.98 0 0 0-.165 2.635c1.648.308 4.123-.629 5.347-1.866h-.006Z" fill="#16171B"/><path d="M35.916 55.972c-.53 0-1.059-.113-1.562-.334-10.628-4.769-16.088-8.414-18.802-10.634-1.423-1.164-1.9-3.177-1.165-4.882 8.12-18.9 11.41-22.098 11.747-22.392 1.026-1.317 2.747-2.729 4.018-3.692a2.286 2.286 0 0 1 2.547-.147l1.55.916-.769.06c-.06 0-6.214.883-14.897 23.161-.324.836-.264 1.773.166 2.508a.478.478 0 0 0 .33.234.51.51 0 0 0 .411-.107c.735-.601 2.29-1.384 4.454.114 1.615 1.124 1.866 2.093 2.118 3.036.139.542.29 1.104.708 1.72.384.568.926 1.043 1.615 1.417 3.328 1.8 7.127 3.659 11.283 5.524l.219.094-.378.943a3.82 3.82 0 0 1-2.124 2.154c-.47.194-.96.287-1.45.287l-.02.02Zm-4.381-41.907c-.384 0-.768.12-1.086.368-1.025.776-2.892 2.274-3.937 3.618l-.04.04s-3.309 2.876-11.621 22.218c-.649 1.512-.225 3.277 1.025 4.307 2.687 2.2 8.108 5.819 18.69 10.56.84.375 1.773.395 2.627.04a3.341 3.341 0 0 0 1.853-1.879l.199-.508c-4.084-1.84-7.816-3.672-11.099-5.444-.754-.408-1.356-.936-1.787-1.572-.463-.689-.622-1.29-.774-1.872-.245-.93-.457-1.733-1.92-2.756-1.806-1.257-3.096-.769-3.864-.14a.966.966 0 0 1-.8.207.963.963 0 0 1-.663-.468c-.503-.863-.575-1.966-.198-2.943 7.392-18.954 12.938-22.606 14.718-23.308l-.39-.227a1.818 1.818 0 0 0-.92-.254l-.013.013Z" fill="#16171B"/><path d="M53.56 28.678c.701-.608.608-1.732-.186-2.207l-20.8-12.366a2.036 2.036 0 0 0-2.277.127c-1.165.883-2.951 2.334-3.984 3.665 0 0 6.612 3.732 23.898 14.085 0 0 1.674-1.852 3.349-3.31v.006Z" fill="#FFDB4D"/><path d="M53.454 28.812s.053-.06.08-.087c-.034-.027-.06-.053-.1-.073l-20.8-12.367a2.036 2.036 0 0 0-2.277.128c-.794.601-1.88 1.47-2.82 2.387 2.694 1.552 9.65 5.585 22.561 13.323 0 0 1.675-1.853 3.35-3.31h.006Z" fill="#FCEBCC"/><path d="m50.257 32.303-.172-.1C32.997 21.97 26.254 18.158 26.195 18.118l-.252-.14.178-.228c1.026-1.317 2.76-2.749 4.03-3.712a2.286 2.286 0 0 1 2.549-.147l20.8 12.366c.443.268.728.716.774 1.238a1.616 1.616 0 0 1-.549 1.37c-1.641 1.432-3.309 3.271-3.329 3.291l-.132.147h-.007ZM26.684 17.83c1.363.776 8.332 4.769 23.48 13.845.437-.469 1.84-1.973 3.23-3.184.278-.24.417-.588.384-.95a1.099 1.099 0 0 0-.536-.856l-20.8-12.366a1.787 1.787 0 0 0-2.006.114c-1.178.89-2.753 2.18-3.759 3.397h.007Z" fill="#16171B"/><path d="M90.905 36.022c-.013-.756-.033-2.756.681-3.585 0 0 1.476-.441 2.515.936.033.04.027.1 0 .134l-1.297 1.512-1.654 1.123a.157.157 0 0 1-.245-.127v.007Z" fill="#FFDB4D"/><path d="M91.057 36.416a.363.363 0 0 1-.185-.046.386.386 0 0 1-.212-.348c-.013-.702-.053-2.83.741-3.752l.046-.054.067-.02s1.654-.474 2.78 1.024c.098.133.092.32-.014.448l-1.344 1.558-1.654 1.117a.387.387 0 0 1-.225.067v.007Zm.662-3.765c-.397.522-.59 1.599-.576 3.19l1.49-1.01 1.204-1.404a2.167 2.167 0 0 0-2.118-.782v.006Z" fill="#16171B"/><path d="M90.885 36.069c0 .776.496 1.137 1.151.842l1.046-.461c.675-.528 1.211-1.518 1.211-2.368 0-.849-.53-1.217-1.21-.956l-1.047.756c-.655.475-1.151 1.418-1.151 2.187Z" fill="#FFDB4D"/><path d="M90.07 36.724c0 .776.497 1.137 1.152.843l1.046-.462c.675-.528 1.211-1.518 1.211-2.367 0-.85-.53-1.218-1.21-.957l-1.047.756c-.655.475-1.151 1.418-1.151 2.187Z" fill="#FCEBCC"/><path d="M91.606 37.26a.872.872 0 0 1-.503-.148c-.297-.2-.463-.568-.463-1.043 0-.856.53-1.866 1.257-2.388l1.099-.79c.397-.153.774-.126 1.059.075.31.213.483.608.483 1.116 0 .897-.55 1.973-1.304 2.562l-.053.033-1.045.462a1.34 1.34 0 0 1-.53.12Zm1.595-3.913-1.019.735c-.589.428-1.052 1.298-1.052 1.987 0 .3.086.528.245.628.139.094.337.087.569-.013l1.019-.455c.622-.501 1.092-1.418 1.092-2.153 0-.335-.093-.589-.271-.71-.146-.1-.351-.106-.583-.026v.007Z" fill="#16171B"/><path d="M90.554 31.675s.57-1.505-.02-1.893c0 0 1.152-.863 2.263.575.61.79-2.243 1.318-2.243 1.318Z" fill="#FFDB4D"/><path d="m90.17 31.996.152-.408c.199-.529.364-1.405.073-1.599l-.291-.194.278-.214s1.357-.99 2.6.622a.565.565 0 0 1 .1.569c-.258.682-1.972 1.05-2.495 1.143l-.423.08h.006Zm.741-2.14c.225.42.113 1.07 0 1.49.821-.193 1.628-.5 1.721-.748 0-.014.013-.034-.026-.087-.682-.876-1.344-.79-1.688-.655h-.007Z" fill="#16171B"/><path d="M90.356 32.47c0 .596.377.87.88.65l.8-.355c.517-.408.927-1.164.927-1.813 0-.648-.41-.93-.927-.729l-.8.582c-.503.361-.88 1.084-.88 1.679v-.014Z" fill="#FFDB4D"/><path d="M89.608 32.979c0 .595.377.87.88.648l.8-.354c.517-.408.927-1.164.927-1.812 0-.65-.41-.93-.926-.73l-.801.582c-.503.362-.88 1.084-.88 1.68v-.014Z" fill="#FCEBCC"/><path d="M90.911 33.44a.76.76 0 0 1-.417-.12c-.244-.16-.383-.462-.383-.85 0-.675.416-1.464.986-1.879l.853-.608c.325-.128.63-.1.867.06.252.174.39.495.39.903 0 .702-.43 1.545-1.018 2.006l-.053.034-.801.354c-.146.067-.291.1-.43.1h.006Zm1.245-3.003L91.38 31c-.436.315-.78.963-.78 1.478 0 .208.059.368.158.435.12.08.291.027.377-.014l.775-.34c.463-.375.807-1.057.807-1.599 0-.24-.066-.415-.179-.495-.092-.067-.231-.073-.383-.02v-.007ZM41.822 29.924 28.527 36.79l.223.44 13.295-6.866-.223-.44ZM35.918 37.01l-8.516 4.398.223.44 8.516-4.397-.223-.44ZM39.442 35.272l-1.874.968.223.44 1.874-.967-.223-.44Z" fill="#16171B"/><path d="m26.307 84.925-4.832-2.02c-3.408-1.424-6.87-3.444-10.284-5.999L6.36 73.281c-.271-.207-.477-.602-.477-.923v-2.327c0-.361.252-.502.556-.328l19.795 11.55c.304.18.556.616.556.977v2.327c0 .321-.206.482-.477.361l-.006.007Z" fill="#FCEBCC"/><path d="M25.506 83.394a.776.776 0 0 1-.265-.054l-4.831-2.02c-3.428-1.431-6.91-3.457-10.337-6.026L5.242 71.67c-.338-.254-.576-.722-.576-1.123v-2.328c0-.26.106-.475.284-.575.179-.107.417-.094.636.04l19.794 11.55c.377.221.682.743.682 1.191v2.327c0 .248-.093.449-.258.562a.498.498 0 0 1-.291.087l-.007-.007Zm-.08-.516c.053.02.087.02.1.014.013-.013.04-.06.04-.147v-2.328c0-.267-.206-.628-.437-.762L5.334 68.105c-.08-.047-.132-.047-.145-.04-.02.006-.04.06-.04.147v2.327c0 .248.165.562.377.722l4.831 3.625c3.395 2.549 6.837 4.555 10.232 5.973l4.83 2.02h.007Z" fill="#16171B"/><path d="m15.427 76.545-.133-.08c-.496-.288-.9-1.07-.9-1.746v-.615c0-.67.404-.983.9-.69l.133.081c.496.288.9 1.07.9 1.746v.615c0 .669-.404.983-.9.689Z" fill="#16171B"/><path d="M15.79 76.9a.992.992 0 0 1-.482-.141l-.133-.08c-.576-.335-1.026-1.198-1.026-1.96v-.615c0-.442.16-.79.437-.95.245-.14.543-.127.834.047l.132.08c.576.334 1.026 1.19 1.026 1.953v.615c0 .442-.159.79-.437.95a.643.643 0 0 1-.35.094v.006Zm-.853-3.345a.231.231 0 0 0-.112.027c-.12.067-.192.268-.192.522v.615c0 .582.357 1.284.78 1.532l.133.08c.08.047.231.114.344.047.12-.067.192-.268.192-.522v-.615c0-.582-.357-1.284-.781-1.525l-.132-.08a.502.502 0 0 0-.239-.074l.007-.007Z" fill="#16171B"/><path d="m15.427 75.274-.133-.08c-.496-.288-.9-1.07-.9-1.746v-.615c0-.669.404-.983.9-.689l.133.08c.496.288.9 1.07.9 1.746v.615c0 .67-.404.984-.9.69Z" fill="#FFDB4D"/><path d="m16.155 76.09-.133-.08c-.496-.288-.9-1.07-.9-1.746v-.615c0-.669.404-.983.9-.689l.133.08c.496.288.9 1.07.9 1.746v.615c0 .669-.404.983-.9.69Z" fill="#FFDB4D"/><path d="m15.95 73.014-.133-.08c-.496-.288-.9.02-.9.688v.615c0 .215.046.442.12.656.085.08.171.16.264.214l.132.08c.497.288.9-.02.9-.689v-.615c0-.214-.046-.441-.119-.655a1.545 1.545 0 0 0-.264-.214Z" fill="#FCEBCC"/><path d="M15.79 75.629a.992.992 0 0 1-.482-.14l-.133-.081c-.576-.335-1.026-1.19-1.026-1.953v-.615c0-.442.16-.79.437-.95.245-.14.543-.127.834.047l.132.08c.576.335 1.026 1.197 1.026 1.96v.615c0 .441-.159.79-.437.95a.644.644 0 0 1-.35.093v-.006Zm-.238-.569c.08.047.232.114.345.047.119-.067.191-.268.191-.522v-.615c0-.582-.357-1.284-.78-1.532l-.133-.08c-.08-.047-.231-.114-.344-.047-.12.067-.192.268-.192.522v.615c0 .582.357 1.284.781 1.525l.132.08v.007Z" fill="#16171B"/><path d="M25.559 74.452c.794-1.15 2.905-3.732 5.711-3.298.437.067.88-.093 1.112-.448.642-.976 2.038-2.769 3.666-2.882.225-.014.364.154.477.34.867 1.465 1.145 7.786-4.567 8.956-3.924.803-5.684-.635-6.373-1.518a.962.962 0 0 1-.033-1.144l.007-.006Z" fill="#FFDB4D"/><path d="M29.8 77.595c-2.527 0-3.811-1.09-4.4-1.846a1.215 1.215 0 0 1-.04-1.438c.808-1.17 2.998-3.859 5.95-3.404.357.053.701-.08.873-.341.702-1.07 2.138-2.876 3.859-2.996.423-.027.622.327.701.461.556.95.834 3.531-.126 5.725-.582 1.33-1.853 3.036-4.6 3.598-.826.167-1.554.241-2.21.241h-.006Zm-4.036-3.003a.719.719 0 0 0 .02.85c.668.862 2.362 2.2 6.128 1.424 2.038-.415 3.468-1.532 4.249-3.31.926-2.114.602-4.522.159-5.278-.126-.214-.192-.227-.252-.22-1.568.107-2.958 1.98-3.48 2.775-.279.422-.808.642-1.351.555-2.674-.407-4.719 2.1-5.473 3.197v.007Z" fill="#16171B"/><path d="M2.866 62.059c1.403 2.28 2.951 2.688 3.798 2.701.39.007.722-.254.847-.662.404-1.33 1.112-4.588-.74-6.594-.292-.314-.411-.77-.285-1.17.357-1.11.893-3.311.08-4.696a.284.284 0 0 0-.074-.08l-2.991 8.3c-.232.636-.45 1.398-.649 2.2h.014Z" fill="#FFDB4D"/><path d="M6.684 65.015h-.026c-.86-.02-2.522-.415-4.004-2.823l-.053-.087.026-.1a23.84 23.84 0 0 1 .656-2.227l3.11-8.648.271.248s.08.073.12.14c.853 1.451.33 3.692-.06 4.896-.1.3-.007.669.225.923 1.939 2.1 1.198 5.477.794 6.835-.152.502-.576.836-1.059.836v.007Zm-3.56-2.997C4.467 64.152 5.917 64.5 6.67 64.52c.278.007.516-.188.602-.489.384-1.27 1.086-4.44-.681-6.353a1.441 1.441 0 0 1-.338-1.411c.265-.823.781-2.756.285-4.107l-2.8 7.785c-.198.555-.41 1.25-.615 2.073Z" fill="#16171B"/><path d="M7.525 64.105c.152-.515.35-1.31.437-2.207-.1-1.478-.84-2.628-1.78-2.649-1.026-.02-1.88 1.318-1.913 2.99a4.433 4.433 0 0 0 .31 1.759c.835.609 1.596.762 2.105.776.39.007.722-.254.847-.662l-.006-.007Z" fill="#FFDB4D"/><path d="M7.69 65.108c.152-.515.35-1.31.437-2.207-.1-1.471-.84-2.628-1.78-2.648-1.026-.02-1.88 1.317-1.913 2.99A4.433 4.433 0 0 0 4.745 65c.834.609 1.595.763 2.105.776.39.007.721-.254.847-.662l-.007-.007Z" fill="#FCEBCC"/><path d="M6.697 65.015h-.026c-.53-.014-1.343-.168-2.244-.823l-.052-.04-.027-.067a4.621 4.621 0 0 1-.33-1.86c.012-.855.237-1.651.621-2.253.41-.636.96-.983 1.542-.97 1.066.02 1.913 1.23 2.019 2.876-.086.97-.291 1.779-.444 2.294-.152.502-.575.836-1.059.836v.007ZM4.778 63.83c.775.548 1.463.675 1.906.689.278.006.516-.188.602-.489.146-.494.345-1.27.424-2.16-.086-1.324-.754-2.36-1.542-2.374-.417 0-.807.254-1.118.75-.338.527-.53 1.236-.543 1.999-.013.568.08 1.117.271 1.592v-.007Z" fill="#16171B"/><path d="M30.708 73.475c-.702-1.063-2.522-1.077-4.07-.033-.444.294-.801.648-1.092 1.023a.952.952 0 0 0 .046 1.11c.49.635 1.549 1.552 3.56 1.719.007 0 .014-.007.02-.013 1.549-1.044 2.237-2.75 1.536-3.813v.007Z" fill="#FFDB4D"/><path d="M30.013 74.244c-.702-1.063-2.522-1.077-4.07-.033-.444.294-.801.648-1.092 1.023a.953.953 0 0 0 .046 1.11c.49.636 1.549 1.552 3.56 1.719.007 0 .014-.007.02-.013 1.549-1.044 2.237-2.75 1.536-3.813v.007Z" fill="#FCEBCC"/><path d="M29.133 77.541c-2.165-.18-3.27-1.21-3.733-1.812a1.206 1.206 0 0 1-.06-1.398 4.903 4.903 0 0 1 1.165-1.097c1.655-1.117 3.634-1.07 4.408.1.774 1.171.06 3.037-1.602 4.154l-.073.047h-.105v.006Zm-.166-4.635c-.681 0-1.47.248-2.197.736-.39.268-.741.596-1.032.97a.713.713 0 0 0 .046.81c.41.528 1.383 1.43 3.302 1.618 1.403-.977 2.032-2.502 1.417-3.431-.312-.468-.874-.703-1.536-.703ZM13.421 48.482a28.58 28.58 0 0 1-1.773-1.291 6.673 6.673 0 0 0 2.687 4.16c1.489 1.05 3.878 2.595 7.63 4.688 3.124 1.746 5.215 2.856 6.598 3.558a6.052 6.052 0 0 0 5.07.194c-7.049-2.962-17.366-9.39-20.212-11.31Z" fill="#16171B"/><path d="M31.31 60.5c-.98 0-1.96-.227-2.86-.682-1.674-.85-3.897-2.046-6.61-3.565-3.157-1.765-5.732-3.35-7.651-4.701a6.889 6.889 0 0 1-2.786-4.314l-.133-.656.523.415c.543.435 1.119.85 1.754 1.284 2.965 2 13.263 8.387 20.172 11.29l.053.033.344.26-.397.168a6.305 6.305 0 0 1-2.416.482l.007-.014ZM12.058 47.813a6.38 6.38 0 0 0 2.416 3.33c1.906 1.345 4.467 2.917 7.61 4.676 2.707 1.511 4.924 2.708 6.592 3.558a5.815 5.815 0 0 0 4.282.394c-6.923-3.016-16.777-9.136-19.676-11.082-.43-.287-.834-.575-1.224-.87v-.006Z" fill="#16171B"/><path d="M6.77 76.017c0 .755-.523 1.063-1.171.682-.649-.382-1.172-1.298-1.172-2.047 0-.749.523-1.063 1.172-.682.648.375 1.171 1.297 1.171 2.047Z" fill="#FCEBCC"/><path d="M5.652 76.304c-.205 0-.424-.067-.649-.194-.728-.421-1.29-1.418-1.29-2.26 0-.455.165-.803.463-.977.304-.174.682-.147 1.072.08.728.422 1.29 1.418 1.29 2.261 0 .455-.165.803-.463.976a.855.855 0 0 1-.423.114Zm-1.046-3.056a.348.348 0 0 0-.185.046c-.14.08-.219.281-.219.549 0 .662.484 1.505 1.046 1.832.232.134.444.168.583.08.139-.08.218-.28.218-.554 0-.662-.483-1.505-1.046-1.833a.803.803 0 0 0-.403-.127l.006.007Z" fill="#16171B"/><path d="M27.743 87.841c0 .756-.523 1.063-1.172.682-.648-.374-1.171-1.297-1.171-2.046 0-.75.523-1.064 1.171-.683.649.375 1.172 1.298 1.172 2.047Z" fill="#FCEBCC"/><path d="M26.618 88.135c-.205 0-.424-.067-.649-.194-.728-.421-1.29-1.418-1.29-2.26 0-.455.165-.803.463-.977.304-.174.681-.147 1.072.08.728.422 1.29 1.418 1.29 2.261 0 .455-.165.803-.463.977a.855.855 0 0 1-.423.113Zm-1.046-3.056a.348.348 0 0 0-.185.047c-.14.08-.219.28-.219.555 0 .662.483 1.505 1.046 1.832.232.134.443.167.582.08.14-.08.219-.28.219-.548 0-.662-.483-1.505-1.046-1.832a.804.804 0 0 0-.404-.127l.007-.007Z" fill="#16171B"/><path d="m24.632 65.971-.43-.294a74.25 74.25 0 0 0-10.92-6.227.7.7 0 0 0-.986.562l-.211 1.986a3.633 3.633 0 0 0 1.528 3.378l.027.02c.483.341.98.669 1.482.983a1.478 1.478 0 0 0 1.264 2.227c.543 0 1.013-.3 1.264-.742.556.3 1.112.588 1.675.863a3.562 3.562 0 0 0 3.726-.382l1.614-1.237a.712.712 0 0 0-.026-1.144l-.007.007Z" fill="#FFDB4D"/><path d="m25.327 67.282-.43-.294a74.244 74.244 0 0 0-10.92-6.227.7.7 0 0 0-.986.562l-.212 1.986a3.633 3.633 0 0 0 1.53 3.378l.026.02c.483.34.979.669 1.482.983a1.478 1.478 0 0 0 1.264 2.227c.543 0 1.013-.301 1.264-.742.556.3 1.112.588 1.674.862a3.562 3.562 0 0 0 3.726-.38l1.615-1.238a.712.712 0 0 0-.026-1.144l-.007.007Z" fill="#FCEBCC"/><path d="M20.88 69.342a3.843 3.843 0 0 1-1.661-.381c-.47-.228-.96-.482-1.496-.77a1.683 1.683 0 0 1-1.343.663 1.724 1.724 0 0 1-1.582-2.388 64.51 64.51 0 0 1-1.304-.87 3.91 3.91 0 0 1-1.661-3.624l.218-1.987a.942.942 0 0 1 1.33-.762 74.795 74.795 0 0 1 10.96 6.253l.43.294a.938.938 0 0 1 .41.763.949.949 0 0 1-.37.782l-1.615 1.238a3.807 3.807 0 0 1-2.316.789Zm-3.322-1.8.205.114c.602.328 1.151.61 1.667.863a3.305 3.305 0 0 0 3.475-.354l1.615-1.238a.461.461 0 0 0-.02-.742l-.43-.294a74.387 74.387 0 0 0-10.887-6.207.45.45 0 0 0-.635.368l-.219 1.986a3.395 3.395 0 0 0 1.423 3.15c.483.342.966.663 1.502.997l.2.127-.12.207a1.217 1.217 0 0 0-.172.616c0 .682.55 1.237 1.224 1.237.437 0 .827-.234 1.053-.615l.119-.208v-.006Z" fill="#16171B"/><path d="m60.958 68.105.225-.71 13.395-7.905.245.428-13.865 8.187Z" fill="#FFDB4D"/></g><defs><clipPath id="a"><path fill="#fff" d="M0 0h97v100H0z"/></clipPath></defs></svg>