<svg width="35" height="30" viewBox="0 0 35 30" fill="none" xmlns="http://www.w3.org/2000/svg">
<g clip-path="url(#clip0_59_67)">
<path d="M20.6727 29.9999C19.4453 29.9752 18.3265 29.588 17.2411 29.0689C15.0369 28.0225 13.1082 26.5888 11.2881 25.0068C7.28883 21.5133 3.82389 17.5665 1.0603 13.0348C0.609439 12.3015 0.166929 11.56 0.0416906 10.6783C-0.141993 9.31881 0.200326 8.11585 1.15214 7.12711C2.1457 6.08893 3.17265 5.08371 4.21631 4.09497C5.31006 3.0568 6.9966 3.02384 8.10705 4.05378C9.27595 5.13315 10.4031 6.25372 11.5052 7.40725C12.5488 8.5031 12.5071 10.151 11.4718 11.2551C11.0376 11.7165 10.5701 12.145 10.1276 12.5981C9.50138 13.2326 9.40953 13.9412 9.86039 14.7074C11.2631 17.0804 13.1333 19.0167 15.4711 20.4998C16.1975 20.9612 16.9823 20.8706 17.6085 20.2691C18.076 19.8159 18.5269 19.3545 18.9945 18.9096C20.2301 17.7231 21.9501 17.7149 23.1858 18.9096C24.2294 19.9148 25.2564 20.9365 26.275 21.9582C27.4522 23.1364 27.4606 24.8503 26.3 26.0367C25.2898 27.0584 24.2628 28.0637 23.2359 29.0689C22.5262 29.761 21.6495 30.0164 20.6727 29.9999Z" fill="#1D1D1D"/>
<path d="M28.0534 4.52359C28.0534 5.12507 28.0534 5.72655 28.0534 6.33628C28.0367 7.74523 27.0432 8.84108 25.6154 8.96468C25.1145 9.01411 24.5968 8.99763 24.1042 8.92348C22.9437 8.75045 22.0086 7.81939 21.9501 6.66586C21.8833 5.22394 21.875 3.76555 21.9501 2.32364C22.0169 1.1042 23.0606 0.131937 24.3046 0.0495416C24.8974 0.0083441 25.5152 0.00834409 26.083 0.131937C27.2268 0.379121 28.02 1.40906 28.0451 2.56259C28.0618 3.21351 28.0451 3.87267 28.0451 4.52359H28.0534ZM26.801 4.48239C26.801 3.88091 26.801 3.27118 26.801 2.6697C26.801 2.64498 26.801 2.62026 26.801 2.59555C26.7676 1.89519 26.275 1.34314 25.5737 1.26899C25.2397 1.23603 24.8974 1.22779 24.5634 1.25251C23.7285 1.29371 23.1942 1.82927 23.1608 2.66146C23.1441 3.04872 23.1608 3.43597 23.1608 3.81499C23.1608 4.63894 23.1524 5.46289 23.1608 6.2786C23.1775 7.06959 23.645 7.63812 24.3964 7.72875C24.7805 7.77819 25.1813 7.76995 25.5653 7.72875C26.3084 7.64636 26.7927 7.07783 26.8094 6.33628C26.8177 5.71831 26.8094 5.10035 26.8094 4.48239H26.801Z" fill="#1D1D1D"/>
<path d="M17.0993 8.98093C16.6317 8.98093 16.1642 8.98093 15.6966 8.98093C15.2374 8.98093 14.9702 8.72551 14.9786 8.34649C14.9786 7.97571 15.2458 7.75325 15.6883 7.75325C16.6234 7.75325 17.5668 7.76149 18.502 7.75325C19.1616 7.74501 19.6458 7.34127 19.8044 6.73155C19.938 6.18774 19.7043 5.58626 19.1866 5.31436C18.9695 5.199 18.694 5.15781 18.4435 5.13309C18.0177 5.09189 17.5835 5.13309 17.1577 5.07541C15.8886 4.91062 14.9702 3.80653 14.9953 2.51293C15.0203 1.23581 15.9972 0.139954 17.283 0.0575592C18.335 -0.0083568 19.387 0.0163617 20.4473 0.0246012C20.8481 0.0246012 21.1069 0.312984 21.0986 0.650803C21.0902 0.996862 20.823 1.24405 20.4223 1.24405C19.4955 1.25229 18.5771 1.24405 17.6503 1.25229C16.8321 1.26876 16.2727 1.77961 16.2393 2.50469C16.2059 3.26272 16.7403 3.83949 17.5501 3.88892C17.8758 3.91364 18.2014 3.88892 18.527 3.89716C19.9631 3.93012 21.0819 5.03421 21.0902 6.42669C21.0986 7.81092 19.9881 8.93973 18.5521 8.98917C18.0678 9.00565 17.5919 8.98917 17.1076 8.98917L17.0993 8.98093Z" fill="#1D1D1D"/>
<path d="M31.0424 8.98114C30.5582 8.98114 30.0823 8.98114 29.598 8.98114C29.1388 8.98114 28.88 8.72572 28.8883 8.33846C28.8967 7.96768 29.1555 7.75346 29.6063 7.75346C30.5331 7.75346 31.4515 7.75346 32.3783 7.75346C32.9627 7.75346 33.4136 7.48979 33.6474 6.95422C33.8645 6.46809 33.7893 5.99844 33.4386 5.58647C33.1882 5.28161 32.8459 5.1333 32.4451 5.12506C32.0026 5.11682 31.5601 5.12506 31.1176 5.07562C29.79 4.91083 28.8633 3.81498 28.8883 2.48842C28.9134 1.20306 29.9153 0.123684 31.2344 0.0495289C32.2614 -0.00814757 33.2884 0.0165709 34.3153 0.0248104C34.7244 0.0248104 34.9833 0.288474 34.9916 0.626294C34.9916 0.980592 34.7244 1.24426 34.2986 1.24426C33.3719 1.2525 32.4534 1.24426 31.5267 1.2525C30.7418 1.26897 30.1908 1.7551 30.1407 2.43898C30.0739 3.23821 30.6166 3.8397 31.4599 3.88913C31.7688 3.90561 32.0861 3.88913 32.395 3.88913C33.8561 3.91385 34.9833 5.02618 34.9916 6.4269C34.9916 7.82761 33.8645 8.94818 32.4033 8.98114C31.9441 8.98938 31.4933 8.98114 31.0341 8.98114H31.0424Z" fill="#1D1D1D"/>
</g>
<defs>
<clipPath id="clip0_59_67">
<rect width="35" height="30" fill="white"/>
</clipPath>
</defs>
</svg>
