<svg width="30" height="30" viewBox="0 0 30 30" fill="none" xmlns="http://www.w3.org/2000/svg">
<g clip-path="url(#clip0_61_74)">
<path d="M15.145 30.0001C12.126 29.9701 9.48688 29.2301 7.08768 27.7301C5.46822 28.4301 3.82877 29.1401 2.19931 29.8301C1.70947 30.0401 1.18965 30.0201 0.759791 29.7901C0.369921 29.5801 0.100011 29.2001 0.030034 28.7501C-0.0399427 28.3301 0.090014 27.9101 0.179984 27.7101C0.849761 26.1001 1.53953 24.5001 2.2393 22.9101C-1.75937 16.5001 -0.25987 7.89007 5.65816 3.26007C8.68715 0.880069 12.026 -0.209931 15.5948 0.0300692C22.0227 0.450069 26.5112 3.68007 28.9404 9.62007C31.3996 15.6401 29.4802 22.6801 24.262 26.7501C21.5429 28.8701 18.4839 29.9601 15.155 29.9901L15.145 30.0001ZM7.09768 26.5701C7.29761 26.5701 7.49754 26.6301 7.69748 26.7501C9.90674 28.1301 12.3459 28.8101 15.145 28.8401C18.214 28.8101 21.043 27.8001 23.5522 25.8401C28.2806 22.1401 30.1 15.5101 27.8708 10.0501C25.6215 4.56007 21.4629 1.57007 15.5249 1.18007C12.256 0.960069 9.17698 1.97007 6.37792 4.16007C0.909741 8.44007 -0.479796 16.3801 3.20897 22.2601C3.4389 22.6201 3.45889 22.9701 3.28895 23.3701C2.59918 24.9601 1.90941 26.5601 1.23963 28.1601C1.16965 28.3301 1.14966 28.4801 1.16965 28.5601C1.18965 28.6701 1.23963 28.7501 1.3196 28.7901C1.42957 28.8501 1.58951 28.8501 1.74946 28.7801C3.38891 28.0801 5.01837 27.3801 6.64783 26.6801C6.80777 26.6101 6.95772 26.5801 7.10767 26.5801L7.09768 26.5701ZM18.204 21.8801C18.004 21.8801 17.8041 21.8701 17.6342 21.8501C16.6545 21.7601 15.6748 21.4201 14.7251 20.8401C12.3159 19.3701 10.3966 17.4301 9.03703 15.0601C8.45722 14.0501 8.11734 12.9801 8.10734 12.0401C8.10734 10.7201 8.44723 9.82007 9.19698 9.12007L9.34693 8.98007C9.61684 8.72007 9.89674 8.47007 10.1767 8.23007C10.7765 7.73007 11.5762 7.77007 12.136 8.32007C12.6358 8.81007 13.1257 9.30007 13.6155 9.80007C14.1553 10.3601 14.1653 11.1401 13.6155 11.7001C13.3556 11.9701 13.0957 12.2401 12.8158 12.4901L12.8658 12.7601C12.9457 13.0301 13.0157 13.2901 13.1357 13.5001C13.9754 14.9301 15.115 16.0701 16.5445 16.8801C16.7245 16.9801 16.9644 17.0501 17.2243 17.1101L17.4842 17.1801C17.7141 16.9001 17.9641 16.6701 18.204 16.4301C18.8238 15.8301 19.6135 15.8201 20.1733 16.3701C20.6732 16.8601 21.163 17.3501 21.6528 17.8501C22.2026 18.4101 22.2326 19.2401 21.7328 19.8201C21.3929 20.2101 20.993 20.6601 20.5432 21.0701C19.8034 21.7401 18.9237 21.8901 18.204 21.8901V21.8801Z" fill="white"/>
</g>
<defs>
<clipPath id="clip0_61_74">
<rect width="30" height="30" fill="white"/>
</clipPath>
</defs>
</svg>
