<svg width="133" height="64" viewBox="0 0 133 64" fill="none" xmlns="http://www.w3.org/2000/svg">
<g clip-path="url(#clip0_0_2129)">
<path d="M20.6014 24.4623C21.7084 23.7873 22.6444 22.8962 23.3644 21.8162C24.0844 20.7542 24.5524 19.5662 24.7684 18.2972C25.0744 17.0012 25.0024 15.6511 24.5524 14.3911C24.1654 13.3291 23.4364 12.4111 22.4914 11.7991C21.6274 11.2771 20.7274 10.8271 19.8004 10.4761C18.9183 10.125 18.0003 9.83704 17.0643 9.62104C16.4343 9.49504 15.8673 9.28803 15.3453 8.97303C15.1743 8.86503 15.1383 8.78403 15.1383 8.78403C15.1563 8.71202 15.1923 8.55002 15.7863 8.55002C16.8483 8.61302 17.8743 8.86503 18.8373 9.30603C20.1064 9.81904 21.3034 10.4311 22.4284 11.1421C22.5814 11.2321 22.7434 11.2771 22.9054 11.2771C23.2024 11.2771 23.4904 11.1331 23.6614 10.8721L27.4325 5.11197L23.4814 25.1733C23.4274 25.4343 23.4994 25.7133 23.6704 25.9203C23.8414 26.1273 24.0934 26.2533 24.3634 26.2533L31.7075 26.2713C32.1395 26.2713 32.5086 25.9653 32.5896 25.5423L34.0926 17.9192H39.1327L37.6926 25.2183C37.6386 25.4793 37.7106 25.7583 37.8816 25.9653C38.0526 26.1723 38.3046 26.2893 38.5746 26.2893H45.9188C46.3508 26.2893 46.7198 25.9833 46.8008 25.5603L51.3728 2.31292C51.4268 2.05192 51.3548 1.77292 51.1838 1.56591C51.0128 1.35891 50.7608 1.24191 50.4908 1.24191H43.1467C42.7147 1.24191 42.3457 1.54791 42.2647 1.97092L40.6357 10.251H35.5956L37.1436 2.38493C37.1616 2.31292 37.1796 2.23192 37.1796 2.15092C37.1796 1.65591 36.7746 1.25091 36.2796 1.25091H28.9265C28.4945 1.25091 28.1255 1.55691 28.0445 1.97992L27.5765 4.35596C27.5315 4.15795 27.4235 3.96895 27.2435 3.84295C25.9205 2.87093 24.4534 2.14192 22.8694 1.69191C21.1774 1.16991 19.3953 0.899902 17.6043 0.899902C14.5353 0.899902 11.8982 1.62891 9.7652 3.07794C8.72118 3.76195 7.82117 4.64396 7.11916 5.69698C6.41715 6.74999 5.94014 7.92001 5.70613 9.16203C5.40913 10.3951 5.49913 11.7181 5.97614 12.9421C6.38115 13.9771 7.11916 14.8591 8.07317 15.4261C8.93718 15.9301 9.8462 16.3531 10.7732 16.6861C11.6552 17.0192 12.5822 17.2892 13.5093 17.4872C14.1393 17.5952 14.6973 17.8022 15.2103 18.0992C15.3813 18.2072 15.4083 18.2882 15.4083 18.2882C15.3813 18.4502 15.3093 18.7922 14.2833 18.7922C13.2573 18.7922 12.0512 18.4592 10.6292 17.8112C9.32419 17.2442 8.17217 16.4521 7.18216 15.4531C7.01115 15.2821 6.78615 15.1921 6.54315 15.1921C6.51615 15.1921 6.48915 15.1921 6.45315 15.1921C6.18314 15.2191 5.94014 15.3631 5.79614 15.5881L1.93508 21.3392C1.69207 21.7082 1.74607 22.2032 2.07008 22.5002C3.5101 23.8323 5.17513 24.8223 7.03816 25.4343C8.96419 26.1183 10.9982 26.4603 13.0592 26.4693C13.1493 26.4693 13.2663 26.4693 13.3743 26.4693C15.9123 26.4693 18.4053 25.7763 20.5744 24.4623H20.6014Z" fill="white"/>
<path d="M58.9149 26.0104C59.0859 26.2174 59.338 26.3344 59.608 26.3344H66.2861C66.7181 26.3344 67.0871 26.0284 67.1681 25.6054L69.0311 16.2182L74.2422 25.8844C74.3952 26.1724 74.7012 26.3614 75.0342 26.3614H81.1723C81.6043 26.3614 81.9733 26.0554 82.0543 25.6324L86.4194 3.43803L91.0184 18.4953L89.6774 25.3264C89.6234 25.5874 89.6954 25.8664 89.8664 26.0734C90.0374 26.2804 90.2894 26.3974 90.5594 26.3974H97.9035C98.3356 26.3974 98.7046 26.0914 98.7856 25.6684L100.172 18.6393L111.152 2.80802C111.341 2.52902 111.368 2.17801 111.206 1.88101C111.044 1.584 110.747 1.395 110.405 1.395H103.088C102.791 1.395 102.512 1.539 102.341 1.79101L97.3365 9.14412L95.1765 2.00701C95.0595 1.629 94.7085 1.368 94.3125 1.368H86.9954C86.7614 1.368 86.5544 1.476 86.3834 1.638C86.2124 1.458 85.9784 1.341 85.7264 1.341H79.0753C78.6433 1.341 78.2742 1.647 78.1932 2.07001L76.3302 11.5202L71.0921 1.80001C70.9391 1.512 70.6331 1.323 70.3001 1.323H64.162C63.73 1.323 63.361 1.629 63.28 2.05201L58.7079 25.2634C58.6539 25.5244 58.7259 25.8034 58.8969 26.0104H58.9149Z" fill="white"/>
<path d="M44.6227 28.0534C44.4517 27.8464 44.1997 27.7294 43.9297 27.7294H36.1716C35.8566 27.7294 35.5596 27.8914 35.3976 28.1704L29.3585 38.2595L27.3605 28.4134C27.2795 27.9904 26.9104 27.6934 26.4784 27.6934H18.7203C18.2883 27.6934 17.9193 27.9994 17.8383 28.4224L13.2842 51.6337C13.2302 51.8947 13.3022 52.1737 13.4732 52.3807C13.6442 52.5877 13.8962 52.7048 14.1662 52.7048H20.5563C20.9884 52.7048 21.3574 52.3987 21.4384 51.9757L22.9684 44.1546L23.8954 49.7167C23.9674 50.1487 24.3454 50.4727 24.7864 50.4727H29.6015C29.9255 50.4727 30.2315 50.2927 30.3845 50.0137L33.4806 44.4876L32.0765 51.6697C32.0225 51.9307 32.0945 52.2097 32.2655 52.4167C32.4365 52.6238 32.6885 52.7407 32.9585 52.7407H39.3486C39.7807 52.7407 40.1497 52.4347 40.2307 52.0117L44.8027 28.8004C44.8567 28.5394 44.7847 28.2604 44.6137 28.0534H44.6227Z" fill="white"/>
<path d="M55.1439 28.0804C54.9729 27.8734 54.7209 27.7563 54.4509 27.7563H47.1068C46.6748 27.7563 46.3058 28.0624 46.2248 28.4854L41.6437 51.6967C41.5897 51.9577 41.6617 52.2367 41.8327 52.4437C42.0037 52.6507 42.2557 52.7677 42.5257 52.7677H49.8699C50.3019 52.7677 50.6709 52.4617 50.7519 52.0387L55.3329 28.8274C55.3869 28.5664 55.3149 28.2874 55.1439 28.0804Z" fill="white"/>
<path d="M100.874 31.2933C98.8396 28.8453 95.8876 27.6123 92.1075 27.6123H91.9275C88.3634 27.6123 84.8894 28.8633 82.1354 31.1223C79.5163 33.1834 77.6803 36.0634 76.8793 39.2945C76.8523 39.2315 76.8343 39.1685 76.7893 39.1145C76.6183 38.9074 76.3663 38.7904 76.0963 38.7904H69.7962C69.3642 38.7904 68.9951 39.0965 68.9141 39.5195L67.9421 44.4335C67.2041 44.7125 66.4301 44.8835 65.6381 44.9375C64.5131 44.9285 63.6941 44.5415 63.1271 43.7495C62.524 42.9125 62.371 41.8415 62.632 40.4735C62.875 39.1595 63.5411 37.9444 64.5311 37.0624C65.4221 36.2074 66.5651 35.7484 67.7621 35.7484C68.5541 35.7664 69.3731 35.9734 70.0932 36.3514C70.8672 36.7204 71.5422 37.2514 72.0552 37.8904C72.2172 38.0884 72.4512 38.2144 72.7122 38.2234C72.7302 38.2234 72.7392 38.2234 72.7572 38.2234C73.0002 38.2234 73.2252 38.1244 73.3962 37.9534L78.5803 32.7244C78.9223 32.3823 78.9313 31.8333 78.5983 31.4823C77.4373 30.2313 75.9793 29.2503 74.3862 28.6473C72.6942 27.9543 70.8942 27.6033 69.0491 27.6033H68.8331C65.2061 27.6033 61.66 28.8633 58.843 31.1403C55.9719 33.3634 54.0099 36.5674 53.3259 40.1585C52.5969 43.8305 53.2449 46.9446 55.2339 49.4196C57.232 51.8946 60.148 53.1547 63.9011 53.1547C65.7911 53.1187 67.6541 52.8127 69.4452 52.2547C71.2542 51.7596 73.0182 51.0036 74.6652 50.0406C74.8902 49.9146 75.0432 49.6896 75.0882 49.4376L76.4023 42.7955C76.3753 45.3695 77.1223 47.6016 78.6523 49.4646C80.6863 51.9307 83.6294 53.1817 87.4184 53.1817C91.0455 53.1817 94.5825 51.9126 97.3906 49.6086C100.19 47.3136 102.134 44.0915 102.845 40.5365C103.574 36.8554 102.917 33.7504 100.874 31.3023V31.2933ZM93.5475 40.1945C93.3045 41.5355 92.6655 42.7235 91.7025 43.6595C90.7665 44.5505 89.8125 44.9915 88.7775 44.9915H88.6785C88.2554 44.9915 87.8414 44.8925 87.4724 44.6945C87.0764 44.4875 86.7434 44.1815 86.5004 43.8125C85.8884 42.9305 85.7354 41.8685 85.9964 40.5365C86.2304 39.2225 86.9054 38.0074 87.8774 37.1164C88.7234 36.2794 89.8035 35.8204 90.9555 35.8024H91.0815C91.4685 35.8024 91.8645 35.8924 92.2065 36.0814C92.5845 36.2794 92.8995 36.5764 93.1245 36.9454C93.6825 37.8094 93.8175 38.8714 93.5475 40.2035V40.1945Z" fill="white"/>
<path d="M132.203 28.2244C132.032 28.0174 131.78 27.9004 131.51 27.9004H123.752C123.437 27.9004 123.14 28.0714 122.978 28.3414L116.957 38.4666L114.959 28.6294C114.878 28.2064 114.509 27.9094 114.077 27.9094H106.319C105.887 27.9094 105.518 28.2154 105.437 28.6384L100.865 51.8318C100.811 52.0928 100.883 52.3718 101.054 52.5788C101.225 52.7858 101.477 52.9028 101.747 52.9028H108.137C108.569 52.9028 108.938 52.5968 109.019 52.1738L110.549 44.3436L111.476 49.9057C111.548 50.3377 111.926 50.6617 112.367 50.6617H117.182C117.506 50.6617 117.812 50.4817 117.965 50.2027L121.061 44.6767L119.657 51.8588C119.603 52.1198 119.675 52.3988 119.846 52.6058C120.017 52.8128 120.269 52.9298 120.539 52.9298H126.929C127.361 52.9298 127.73 52.6238 127.811 52.2008L132.383 28.9714C132.437 28.7104 132.365 28.4314 132.194 28.2244H132.203Z" fill="white"/>
<path d="M48.4028 25.9742C48.5738 26.1812 48.8258 26.2982 49.0958 26.2982L56.4399 26.3162C56.8719 26.3162 57.2409 26.0102 57.3219 25.5872L61.849 2.26781C61.867 2.19581 61.876 2.1148 61.876 2.0338C61.876 1.5388 61.471 1.13379 60.976 1.13379H53.6229C53.1909 1.13379 52.8219 1.43979 52.7409 1.8628L48.2138 25.2362C48.1598 25.4972 48.2318 25.7762 48.4028 25.9832V25.9742Z" fill="white"/>
<path d="M11.2682 25.1103C9.27014 25.1103 7.28111 24.7683 5.38208 24.1023C3.59105 23.5083 1.97102 22.5543 0.585001 21.2673C0.422999 21.1143 0.395999 20.8713 0.522001 20.6913L4.38306 14.9402C4.45506 14.8322 4.58106 14.7512 4.71607 14.7422C4.73407 14.7422 4.74307 14.7422 4.76107 14.7422C4.87807 14.7422 4.99507 14.7872 5.07607 14.8772C6.11109 15.9122 7.30811 16.7312 8.64913 17.3252C10.1342 18.0092 11.4302 18.3512 12.5012 18.3512C13.9052 18.3512 14.0222 17.7482 14.0672 17.5232C14.0942 17.4062 14.1482 17.1272 13.6442 16.8122C13.0952 16.4882 12.4832 16.2722 11.8352 16.1552C10.9082 15.9572 10.0081 15.6962 9.13513 15.3722C8.23512 15.0482 7.35311 14.6342 6.52509 14.1572C5.65208 13.6352 4.97707 12.8341 4.60806 11.8891C4.16706 10.7461 4.08606 9.52209 4.36506 8.32507C4.58106 7.16406 5.03107 6.04804 5.70608 5.04902C6.37209 4.05001 7.2271 3.20399 8.23512 2.54698C10.2872 1.16096 12.8342 0.449951 15.8132 0.449951C17.5593 0.449951 19.2963 0.710955 20.9613 1.22396C22.4823 1.65597 23.9044 2.35798 25.1824 3.303C25.3714 3.447 25.4254 3.708 25.2904 3.91501L21.4833 9.7381C21.3933 9.8731 21.2493 9.9451 21.1053 9.9451C21.0243 9.9451 20.9433 9.9181 20.8623 9.8731C19.7193 9.15309 18.4953 8.52308 17.2353 8.01907C16.1912 7.54206 15.1022 7.28106 13.9772 7.21806C13.0142 7.21806 12.9242 7.63206 12.8882 7.81207C12.8702 7.92007 12.8162 8.17207 13.3202 8.48708C13.8782 8.82008 14.4902 9.05408 15.1382 9.18009C16.0652 9.39609 16.9743 9.6751 17.8293 10.0261C18.7203 10.3681 19.5933 10.8001 20.4213 11.3041C21.2943 11.8621 21.9603 12.6991 22.3113 13.6622C22.7343 14.8502 22.7973 16.1282 22.5003 17.3432C22.3023 18.5222 21.8523 19.6562 21.1683 20.6823C20.4933 21.6903 19.5843 22.5543 18.5493 23.1933C16.4432 24.4623 14.0312 25.1373 11.5742 25.1373H11.2412L11.2682 25.1103Z" fill="#FFDB4D"/>
<path d="M15.8222 0.899915C17.5232 0.899915 19.2153 1.15192 20.8353 1.65593C22.3023 2.07893 23.6883 2.76294 24.9214 3.66296L21.1143 9.48605C19.9443 8.74804 18.7023 8.10903 17.4152 7.59602C16.3442 7.11001 15.1922 6.82201 14.0132 6.75901C13.1042 6.75901 12.5912 7.07401 12.4652 7.71302C12.3842 8.15403 12.5912 8.54103 13.0952 8.85604C13.7072 9.21605 14.3732 9.46805 15.0662 9.60305C15.9572 9.81005 16.8302 10.0801 17.6762 10.4221C18.5493 10.7641 19.3953 11.1781 20.2053 11.6641C20.9883 12.1681 21.5913 12.9151 21.9063 13.7971C22.2933 14.8951 22.3563 16.0832 22.0863 17.2172C21.8973 18.3602 21.4653 19.4492 20.8173 20.4122C20.1693 21.3752 19.3233 22.1852 18.3333 22.7883C16.2992 24.0123 13.9682 24.6603 11.5922 24.6603C11.4841 24.6603 11.3851 24.6603 11.2771 24.6603C9.32411 24.6603 7.38008 24.3273 5.53506 23.6703C3.80703 23.1033 2.223 22.1672 0.899983 20.9252L4.76104 15.1741C5.83206 16.2452 7.09208 17.1092 8.4691 17.7122C10.0171 18.4232 11.3581 18.7742 12.5012 18.7742C13.6442 18.7742 14.3552 18.3782 14.5082 17.5862C14.5982 17.1182 14.3912 16.7312 13.8872 16.4072C13.2752 16.0472 12.6092 15.8041 11.9162 15.6871C11.0251 15.4981 10.1521 15.2461 9.29711 14.9221C8.4151 14.6071 7.56909 14.2111 6.75907 13.7431C5.97606 13.2751 5.37305 12.5551 5.04005 11.7001C4.63504 10.6471 4.55404 9.50405 4.81504 8.40603C5.02205 7.29001 5.45405 6.219 6.09306 5.27398C6.72307 4.32897 7.54209 3.51896 8.4961 2.89795C10.4851 1.54793 12.9332 0.872914 15.8312 0.872914M15.8312 -0.0270996C12.7622 -0.0270996 10.1251 0.701912 7.99209 2.15093C6.94808 2.83495 6.04806 3.71696 5.34605 4.76998C4.64404 5.82299 4.16703 6.99301 3.93303 8.23503C3.63603 9.46805 3.72603 10.7911 4.20303 12.0151C4.60804 13.0501 5.34605 13.9321 6.30007 14.4991C7.16408 15.0031 8.0731 15.4261 9.00011 15.7591C9.88212 16.0922 10.8091 16.3622 11.7362 16.5602C12.3662 16.6682 12.9242 16.8752 13.4372 17.1722C13.6082 17.2802 13.6352 17.3612 13.6352 17.3612C13.6082 17.5232 13.5362 17.8652 12.5102 17.8652C11.4841 17.8652 10.2781 17.5322 8.85611 16.8842C7.55109 16.3172 6.39907 15.5251 5.40905 14.5261C5.23805 14.3551 5.01305 14.2651 4.77004 14.2651C4.74304 14.2651 4.71604 14.2651 4.68004 14.2651C4.41004 14.2921 4.16703 14.4361 4.02303 14.6611L0.152971 20.4302C-0.0900326 20.7992 -0.0360318 21.2942 0.287973 21.5912C1.728 22.9233 3.39302 23.9133 5.25605 24.5253C7.18208 25.2093 9.21611 25.5513 11.2771 25.5603C11.3671 25.5603 11.4841 25.5603 11.5922 25.5603C14.1302 25.5603 16.6232 24.8673 18.7923 23.5533C19.8993 22.8783 20.8353 21.9872 21.5553 20.9072C22.2753 19.8452 22.7433 18.6572 22.9593 17.3882C23.2653 16.0922 23.1933 14.7421 22.7433 13.4821C22.3563 12.4201 21.6273 11.5021 20.6823 10.8901C19.8183 10.3681 18.9183 9.91806 17.9913 9.56705C17.1092 9.21605 16.1912 8.92804 15.2552 8.71204C14.6252 8.58604 14.0582 8.37903 13.5362 8.06403C13.3652 7.95603 13.3292 7.87502 13.3292 7.87502C13.3472 7.80302 13.3832 7.64102 13.9772 7.64102C15.0392 7.70402 16.0652 7.95603 17.0282 8.39703C18.2973 8.91004 19.4943 9.52205 20.6193 10.2331C20.7723 10.3231 20.9343 10.3681 21.0963 10.3681C21.3933 10.3681 21.6813 10.2241 21.8523 9.96306L25.6594 4.13997C25.9204 3.74396 25.8214 3.20395 25.4434 2.92495C24.1203 1.95293 22.6533 1.22392 21.0693 0.773913C19.3863 0.269905 17.6132 -9.91877e-05 15.8222 -9.91877e-05L15.8312 -0.0270996Z" fill="white"/>
<path d="M36.7837 24.9484C36.6487 24.9484 36.5226 24.8854 36.4326 24.7864C36.3426 24.6784 36.3156 24.5434 36.3426 24.4174L37.8907 16.5783H31.9326L30.3576 24.5614C30.3126 24.7684 30.1326 24.9214 29.9165 24.9214L22.5724 24.9034C22.4374 24.9034 22.3114 24.8404 22.2214 24.7414C22.1404 24.6334 22.1044 24.4984 22.1314 24.3724L26.6945 1.17006C26.7395 0.963061 26.9195 0.810059 27.1355 0.810059H34.4796C34.6146 0.810059 34.7406 0.87306 34.8306 0.972061C34.9206 1.08006 34.9476 1.21506 34.9206 1.34107L33.2466 9.8102H39.1957L40.8967 1.17006C40.9417 0.963061 41.1217 0.810059 41.3377 0.810059H48.6818C48.8168 0.810059 48.9428 0.87306 49.0328 0.972061C49.1138 1.08006 49.1498 1.21506 49.1228 1.34107L44.5508 24.5884C44.5058 24.7954 44.3258 24.9484 44.1098 24.9484H36.7657H36.7837Z" fill="#FFDB4D"/>
<path d="M48.6998 1.26012L44.1277 24.5075H36.7836L38.4396 16.1374H31.5635L29.9165 24.4805L22.5724 24.4625L27.1355 1.26012H34.4796L32.7066 10.2603H39.5737L41.3467 1.26012H48.6908M48.6818 0.360107H41.3377C40.9057 0.360107 40.5367 0.666112 40.4557 1.08912L38.8267 9.36925H33.7866L35.3346 1.50313C35.3526 1.43112 35.3706 1.35012 35.3706 1.26912C35.3706 0.774114 34.9656 0.369108 34.4706 0.369108H27.1175C26.6855 0.369108 26.3165 0.675112 26.2355 1.09812L21.6634 24.2915C21.6094 24.5525 21.6814 24.8315 21.8524 25.0385C22.0234 25.2455 22.2754 25.3715 22.5454 25.3715L29.8895 25.3895C30.3215 25.3895 30.6905 25.0835 30.7715 24.6605L32.2746 17.0374H37.3146L35.8746 24.3365C35.8206 24.5975 35.8926 24.8765 36.0636 25.0835C36.2346 25.2905 36.4866 25.4165 36.7566 25.4165H44.1007C44.5327 25.4165 44.9017 25.1105 44.9827 24.6875L49.5818 1.43112C49.6358 1.17012 49.5638 0.891116 49.3928 0.684112C49.2218 0.477109 48.9698 0.360107 48.6998 0.360107H48.6818Z" fill="white"/>
<path d="M73.2342 25.0205C73.0722 25.0205 72.9192 24.9305 72.8382 24.7865L67.0421 14.0223L64.936 24.6335C64.891 24.8405 64.711 24.9935 64.495 24.9935H57.8169C57.6819 24.9935 57.5559 24.9305 57.4659 24.8315C57.3849 24.7235 57.3489 24.5885 57.3759 24.4625L61.948 1.25112C61.993 1.04412 62.173 0.891113 62.389 0.891113H68.5271C68.6891 0.891113 68.8421 0.981115 68.9231 1.12512L74.7552 11.9523L76.8612 1.26912C76.9062 1.06212 77.0862 0.909114 77.3022 0.909114H83.9533C84.0883 0.909114 84.2143 0.972115 84.3043 1.07112C84.3944 1.17912 84.4214 1.31412 84.3944 1.44012L79.8223 24.6695C79.7773 24.8765 79.5973 25.0295 79.3813 25.0295H73.2342V25.0205Z" fill="#FFDB4D"/>
<path d="M68.5271 1.32311L74.9532 13.2483L77.3022 1.34111H83.9533L79.3813 24.5705H73.2432L66.8531 12.6993L64.504 24.5435H57.8259L62.398 1.33211H68.5361M68.5361 0.432096H62.398C61.966 0.432096 61.597 0.738101 61.516 1.16111L56.9439 24.3725C56.8899 24.6335 56.9619 24.9125 57.1329 25.1195C57.3039 25.3265 57.5559 25.4435 57.8259 25.4435H64.504C64.936 25.4435 65.305 25.1375 65.386 24.7145L67.2491 15.3273L72.4601 24.9935C72.6131 25.2815 72.9192 25.4705 73.2522 25.4705H79.3903C79.8223 25.4705 80.1913 25.1645 80.2723 24.7415L84.8443 1.51211C84.8983 1.25111 84.8263 0.972104 84.6553 0.765101C84.4843 0.558098 84.2323 0.441096 83.9623 0.441096H77.3112C76.8792 0.441096 76.5102 0.747101 76.4292 1.17011L74.5662 10.6203L69.3281 0.900103C69.1751 0.612099 68.8691 0.423096 68.5361 0.423096V0.432096Z" fill="white"/>
<path d="M88.7595 25.0564C88.6245 25.0564 88.4985 24.9934 88.4084 24.8944C88.3184 24.7864 88.2914 24.6514 88.3184 24.5254L89.6865 17.5863L84.7814 1.51204C84.7364 1.37704 84.7634 1.22404 84.8534 1.11604C84.9344 0.999036 85.0694 0.936035 85.2134 0.936035H92.5305C92.7285 0.936035 92.9085 1.06204 92.9625 1.26004L95.4016 9.29717L100.937 1.17004C101.018 1.04404 101.162 0.972036 101.306 0.972036H108.623C108.794 0.972036 108.947 1.06204 109.019 1.21504C109.1 1.35904 109.082 1.53904 108.992 1.68305L97.9576 17.5863L96.5536 24.7054C96.5086 24.9124 96.3286 25.0654 96.1126 25.0654H88.7684L88.7595 25.0564Z" fill="#FFDB4D"/>
<path d="M92.5215 1.37706L95.2305 10.3142L101.297 1.40407H108.614L97.5255 17.3883L96.1035 24.6064H88.7594L90.1454 17.5593L85.2043 1.37706H92.5215ZM92.5215 0.477051H85.2043C84.9163 0.477051 84.6463 0.612053 84.4843 0.837056C84.3133 1.06206 84.2593 1.35906 84.3493 1.63807L89.2184 17.6043L87.8774 24.4354C87.8234 24.6964 87.8954 24.9754 88.0664 25.1824C88.2374 25.3894 88.4894 25.5064 88.7594 25.5064H96.1035C96.5355 25.5064 96.9045 25.2004 96.9855 24.7774L98.3715 17.7483L109.352 1.91707C109.541 1.63807 109.568 1.28706 109.406 0.990059C109.253 0.693054 108.947 0.504051 108.605 0.504051H101.288C100.991 0.504051 100.712 0.648053 100.541 0.900057L95.5365 8.25317L93.3765 1.11606C93.2595 0.738055 92.9085 0.477051 92.5125 0.477051H92.5215Z" fill="white"/>
<path d="M31.1675 51.3908C31.0325 51.3908 30.9065 51.3278 30.8165 51.2288C30.7355 51.1208 30.6994 50.9858 30.7264 50.8598L32.6705 40.9147L28.1974 48.8978C28.1164 49.0418 27.9634 49.1318 27.8014 49.1318H22.9863C22.7703 49.1318 22.5813 48.9698 22.5453 48.7538L21.2133 40.7347L19.2063 51.0038C19.1613 51.2198 18.9813 51.3638 18.7653 51.3638H12.3752C12.2402 51.3638 12.1142 51.3008 12.0242 51.2018C11.9432 51.0938 11.9072 50.9588 11.9342 50.8328L16.4882 27.6215C16.5332 27.4055 16.7132 27.2615 16.9292 27.2615H24.6874C24.9034 27.2615 25.0834 27.4145 25.1284 27.6215L27.3514 38.6017L33.9845 27.5135C34.0655 27.3785 34.2095 27.2975 34.3715 27.2975H42.1296C42.2646 27.2975 42.3906 27.3605 42.4806 27.4595C42.5616 27.5675 42.5976 27.7025 42.5706 27.8285L37.9986 51.0398C37.9536 51.2468 37.7736 51.3999 37.5576 51.3999H31.1675V51.3908Z" fill="black"/>
<path d="M24.6783 27.6935L27.1354 39.8167L34.3715 27.7295H42.1296L37.5575 50.9408H31.1674L33.6515 38.2326L27.8104 48.6728H22.9953L21.2583 38.1966L18.7742 50.9048H12.3841L16.9382 27.6935H24.6963M24.6963 26.7935H16.9382C16.5062 26.7935 16.1372 27.0995 16.0562 27.5225L11.5021 50.7338C11.4481 50.9948 11.5201 51.2738 11.6911 51.4808C11.8621 51.6878 12.1141 51.8048 12.3841 51.8048H18.7742C19.2063 51.8048 19.5753 51.4988 19.6563 51.0758L21.1863 43.2547L22.1133 48.8168C22.1853 49.2488 22.5633 49.5728 23.0043 49.5728H27.8194C28.1434 49.5728 28.4494 49.3928 28.6024 49.1138L31.6984 43.5877L30.2944 50.7698C30.2404 51.0308 30.3124 51.3098 30.4834 51.5168C30.6544 51.7238 30.9064 51.8408 31.1764 51.8408H37.5665C37.9985 51.8408 38.3676 51.5348 38.4486 51.1118L43.0206 27.9005C43.0746 27.6395 43.0026 27.3605 42.8316 27.1535C42.6606 26.9465 42.4086 26.8295 42.1386 26.8295H34.3805C34.0655 26.8295 33.7685 26.9915 33.6065 27.2705L27.5674 37.3596L25.5694 27.5135C25.4883 27.0905 25.1193 26.7935 24.6873 26.7935H24.6963Z" fill="white"/>
<path d="M40.7255 51.4178C40.5905 51.4178 40.4645 51.3548 40.3745 51.2558C40.2845 51.1478 40.2575 51.0128 40.2845 50.8868L44.8656 27.6754C44.9106 27.4684 45.0906 27.3154 45.3066 27.3154H52.6507C52.7857 27.3154 52.9117 27.3784 53.0017 27.4774C53.0917 27.5854 53.1187 27.7204 53.0917 27.8464L48.5107 51.0578C48.4657 51.2648 48.2857 51.4178 48.0696 51.4178H40.7255Z" fill="black"/>
<path d="M52.6508 27.7565L48.0697 50.9678H40.7256L45.3066 27.7565H52.6508ZM52.6508 26.8564H45.3066C44.8746 26.8564 44.5056 27.1624 44.4246 27.5855L39.8436 50.7968C39.7896 51.0578 39.8616 51.3368 40.0326 51.5438C40.2036 51.7508 40.4556 51.8768 40.7256 51.8768H48.0697C48.5017 51.8768 48.8707 51.5708 48.9517 51.1478L53.5328 27.9365C53.5868 27.6755 53.5148 27.3965 53.3438 27.1894C53.1728 26.9824 52.9208 26.8654 52.6508 26.8654V26.8564Z" fill="white"/>
<path d="M62.1009 51.7957C58.4919 51.7957 55.6928 50.5987 53.7848 48.2316C51.8858 45.8736 51.2738 42.8766 51.9668 39.3395C52.6328 35.8655 54.5318 32.7514 57.3309 30.5914C60.0579 28.3773 63.505 27.1533 67.024 27.1533H67.249C69.031 27.1533 70.7771 27.5043 72.4241 28.1793C73.9451 28.7553 75.3401 29.7004 76.4562 30.8974C76.6182 31.0774 76.6182 31.3474 76.4472 31.5184L71.2631 36.7475C71.1821 36.8375 71.0651 36.8825 70.9391 36.8825C70.9391 36.8825 70.9211 36.8825 70.9121 36.8825C70.7861 36.8825 70.6691 36.8105 70.5881 36.7115C70.0301 36.0185 69.31 35.4425 68.5 35.0554C67.699 34.6324 66.817 34.4074 65.935 34.3894C64.621 34.3894 63.37 34.8934 62.4249 35.8115C61.3539 36.7745 60.6249 38.0705 60.3729 39.4745C60.0849 40.9595 60.2739 42.1746 60.9399 43.1106C61.6059 44.0286 62.5509 44.4786 63.847 44.4876C64.747 44.4246 65.656 44.2176 66.52 43.8576L67.537 38.7005C67.582 38.4935 67.762 38.3405 67.978 38.3405H74.2781C74.4131 38.3405 74.5391 38.4035 74.6291 38.5025C74.7101 38.6105 74.7461 38.7455 74.7191 38.8715L72.8291 48.4387C72.8021 48.5647 72.7301 48.6727 72.6131 48.7357C71.0021 49.6807 69.274 50.4187 67.474 50.9137C65.737 51.4537 63.919 51.7507 62.0829 51.7867H62.0739L62.1009 51.7957Z" fill="black"/>
<path d="M67.0331 27.5944C67.1051 27.5944 67.1771 27.5944 67.2491 27.5944C68.9681 27.5944 70.6691 27.9364 72.2621 28.5844C73.7382 29.1424 75.0612 30.0335 76.1322 31.1945L70.9481 36.4236C70.3451 35.6675 69.5801 35.0645 68.7071 34.6505C67.8611 34.2005 66.9161 33.9575 65.953 33.9395C64.522 33.9395 63.145 34.4975 62.119 35.4875C60.976 36.5136 60.2109 37.8906 59.9409 39.3936C59.6259 41.0046 59.8419 42.3276 60.58 43.3717C61.327 44.4067 62.416 44.9287 63.856 44.9377C64.918 44.8747 65.953 44.6137 66.9251 44.1817L67.9871 38.7996H74.2872L72.3971 48.3667C70.8221 49.2938 69.1301 50.0138 67.3661 50.4998C65.656 51.0308 63.874 51.3188 62.083 51.3548C58.5999 51.3548 55.9449 50.2208 54.1179 47.9617C52.2908 45.6937 51.7238 42.8587 52.3988 39.4386C53.0378 36.0725 54.8919 33.0575 57.6009 30.9515C60.265 28.7914 63.595 27.6124 67.0241 27.6124M67.0241 26.7124C63.397 26.7124 59.8509 27.9724 57.0339 30.2585C54.1629 32.4815 52.2008 35.6855 51.5168 39.2676C50.7878 42.9397 51.4358 46.0537 53.4248 48.5287C55.4229 51.0038 58.3389 52.2638 62.092 52.2638C63.982 52.2278 65.845 51.9218 67.6361 51.3638C69.4451 50.8688 71.2091 50.1128 72.8561 49.1498C73.0811 49.0238 73.2342 48.7987 73.2792 48.5467L75.1692 38.9796C75.2232 38.7186 75.1512 38.4396 74.9802 38.2326C74.8092 38.0256 74.5572 37.9086 74.2872 37.9086H67.9871C67.5551 37.9086 67.1861 38.2146 67.1051 38.6376L66.133 43.5517C65.395 43.8307 64.621 44.0017 63.829 44.0557C62.704 44.0467 61.885 43.6597 61.318 42.8677C60.715 42.0306 60.562 40.9596 60.823 39.5916C61.066 38.2776 61.732 37.0626 62.722 36.1806C63.613 35.3255 64.756 34.8665 65.953 34.8665C66.7451 34.8845 67.5641 35.0915 68.2841 35.4695C69.0581 35.8385 69.7331 36.3696 70.2461 37.0086C70.4081 37.2066 70.6421 37.3326 70.9031 37.3416C70.9211 37.3416 70.9301 37.3416 70.9481 37.3416C71.1911 37.3416 71.4161 37.2426 71.5871 37.0716L76.7712 31.8425C77.1132 31.5005 77.1222 30.9515 76.7892 30.6005C75.6282 29.3494 74.1702 28.3684 72.5771 27.7654C70.8851 27.0724 69.0851 26.7214 67.2401 26.7214H67.0241V26.7124Z" fill="white"/>
<path d="M85.6184 51.8227C81.9734 51.8227 79.1383 50.6257 77.1943 48.2677C75.2593 45.9096 74.6293 42.8946 75.3223 39.3125C75.9703 35.8475 77.8603 32.7424 80.6323 30.5644C83.2964 28.3684 86.6714 27.1624 90.1275 27.1624H90.3075C93.9525 27.1624 96.7876 28.3504 98.7226 30.6904C100.667 33.0304 101.297 36.0095 100.595 39.5465C99.9016 43.0026 98.0206 46.1347 95.2936 48.3667C92.5665 50.5987 89.1285 51.8317 85.6094 51.8317L85.6184 51.8227ZM89.1645 34.4435C87.8865 34.4705 86.6984 34.9745 85.7984 35.8655C84.7364 36.8375 84.0164 38.1335 83.7644 39.5375C83.4764 41.0046 83.6564 42.1746 84.3224 43.1376C84.6104 43.5876 85.0064 43.9476 85.4654 44.1906C85.8974 44.4156 86.3924 44.5416 86.8784 44.5416C86.8784 44.5416 86.9684 44.5416 86.9774 44.5416C88.1385 44.5416 89.1915 44.0646 90.2175 43.0836C91.2525 42.0846 91.9365 40.8066 92.1885 39.3935C92.4765 37.9445 92.3145 36.7475 91.7115 35.8115C91.4415 35.3705 91.0635 35.0195 90.6135 34.7765C90.1995 34.5605 89.7405 34.4435 89.2815 34.4435H89.1555H89.1645Z" fill="black"/>
<path d="M90.1275 27.6124C90.1905 27.6124 90.2445 27.6124 90.3075 27.6124C93.8355 27.6124 96.5266 28.7284 98.3896 30.9694C100.253 33.2104 100.847 36.0365 100.163 39.4475C99.4876 42.8046 97.6696 45.8286 95.0145 48.0067C92.3685 50.1757 89.0384 51.3727 85.6184 51.3727C82.0903 51.3727 79.3993 50.2387 77.5453 47.9797C75.6822 45.7206 75.0972 42.8586 75.7722 39.4025C76.4022 36.0455 78.2293 33.0304 80.9203 30.9154C83.5214 28.7734 86.7794 27.6034 90.1365 27.6034M86.8874 44.9826C86.8874 44.9826 86.9504 44.9826 86.9864 44.9826C88.2554 44.9826 89.4344 44.4516 90.5415 43.3986C91.6395 42.3366 92.3775 40.9596 92.6475 39.4655C92.9535 37.8995 92.7735 36.5945 92.1075 35.5595C91.8015 35.0555 91.3605 34.6505 90.8475 34.3715C90.3705 34.1195 89.8394 33.9844 89.2994 33.9844C89.2544 33.9844 89.2004 33.9844 89.1554 33.9844C87.7784 34.0114 86.4734 34.5695 85.4924 35.5325C84.3584 36.5585 83.6023 37.9355 83.3323 39.4385C83.0263 41.0046 83.2333 42.3186 83.9624 43.3806C84.2864 43.8846 84.7364 44.2986 85.2674 44.5776C85.7714 44.8386 86.3294 44.9826 86.8964 44.9826M90.1455 26.7033C86.5814 26.7033 83.1073 27.9544 80.3533 30.2134C77.5093 32.4454 75.5652 35.6495 74.8992 39.2225C74.1792 42.9306 74.8362 46.0716 76.8612 48.5377C78.8953 51.0037 81.8383 52.2547 85.6274 52.2547C89.2544 52.2547 92.7915 50.9857 95.5995 48.6817C98.3986 46.3866 100.343 43.1646 101.054 39.6095C101.783 35.9285 101.126 32.8234 99.0826 30.3754C97.0486 27.9274 94.0965 26.6943 90.3165 26.6943H90.1365L90.1455 26.7033ZM86.8964 44.0826C86.4734 44.0826 86.0594 43.9836 85.6904 43.7856C85.2944 43.5786 84.9614 43.2726 84.7184 42.9036C84.1064 42.0216 83.9534 40.9596 84.2144 39.6275C84.4484 38.3135 85.1234 37.0985 86.0954 36.2075C86.9414 35.3705 88.0214 34.9115 89.1734 34.8935H89.2994C89.6864 34.8935 90.0825 34.9835 90.4245 35.1725C90.8025 35.3705 91.1175 35.6675 91.3425 36.0365C91.9005 36.9005 92.0355 37.9625 91.7655 39.2945C91.5225 40.6356 90.8835 41.8236 89.9205 42.7596C88.9844 43.6506 88.0304 44.0916 86.9954 44.0916H86.8964V44.0826Z" fill="white"/>
<path d="M118.748 51.5709C118.613 51.5709 118.487 51.5079 118.397 51.4089C118.307 51.3009 118.28 51.1659 118.307 51.0399L120.251 41.0947L115.787 49.0778C115.706 49.2218 115.553 49.3118 115.391 49.3118H110.576C110.36 49.3118 110.171 49.1498 110.135 48.9338L108.803 40.9237L106.796 51.1929C106.751 51.4089 106.571 51.5529 106.355 51.5529H99.9645C99.8295 51.5529 99.7035 51.4899 99.6135 51.3909C99.5235 51.2829 99.4965 51.1479 99.5235 51.0219L104.096 27.8285C104.141 27.6215 104.321 27.4685 104.537 27.4685H112.295C112.511 27.4685 112.691 27.6215 112.736 27.8285L114.959 38.8087L121.574 27.6845C121.655 27.5495 121.799 27.4685 121.961 27.4685H129.719C129.854 27.4685 129.98 27.5315 130.07 27.6305C130.16 27.7385 130.187 27.8735 130.16 27.9995L125.588 51.2289C125.543 51.4359 125.363 51.5889 125.147 51.5889H118.748V51.5709Z" fill="black"/>
<path d="M129.71 27.9005L125.138 51.1299H118.748L121.232 38.4217L115.391 48.8618H110.576L108.839 38.3947L106.355 51.1029H99.9555L104.528 27.9095H112.286L114.743 40.0327L121.952 27.9005H129.71ZM129.71 27.0005H121.952C121.637 27.0005 121.34 27.1715 121.178 27.4415L115.157 37.5667L113.159 27.7295C113.078 27.3065 112.709 27.0095 112.277 27.0095H104.519C104.087 27.0095 103.718 27.3155 103.637 27.7385L99.0645 50.9319C99.0105 51.1929 99.0825 51.4719 99.2535 51.6789C99.4245 51.8859 99.6765 52.0029 99.9465 52.0029H106.346C106.778 52.0029 107.147 51.6969 107.228 51.2739L108.758 43.4437L109.685 49.0058C109.757 49.4378 110.135 49.7618 110.576 49.7618H115.391C115.715 49.7618 116.021 49.5818 116.174 49.3028L119.27 43.7767L117.866 50.9589C117.812 51.2199 117.884 51.4989 118.055 51.7059C118.226 51.9129 118.478 52.0299 118.748 52.0299H125.138C125.57 52.0299 125.939 51.7239 126.02 51.3009L130.592 28.0715C130.646 27.8105 130.574 27.5315 130.403 27.3245C130.232 27.1175 129.98 27.0005 129.71 27.0005Z" fill="white"/>
<path d="M47.3049 24.9572C47.1699 24.9572 47.0438 24.8942 46.9538 24.7952C46.8728 24.6962 46.8368 24.5522 46.8638 24.4262L51.3909 1.05284C51.4359 0.83684 51.6159 0.683838 51.8319 0.683838H59.185C59.32 0.683838 59.446 0.746839 59.536 0.84584C59.626 0.944842 59.653 1.08884 59.626 1.21485L55.09 24.5972C55.045 24.8042 54.865 24.9572 54.649 24.9572L47.3049 24.9392V24.9572Z" fill="#FFDB4D"/>
<path d="M59.185 1.1339L54.6489 24.5163L47.3048 24.4983L51.8319 1.1339H59.185ZM59.185 0.233887H51.8319C51.3999 0.233887 51.0309 0.539892 50.9499 0.962898L46.4228 24.3363C46.3688 24.5973 46.4408 24.8763 46.6118 25.0833C46.7828 25.2903 47.0348 25.4073 47.3048 25.4073L54.6489 25.4253C55.0809 25.4253 55.4499 25.1193 55.5309 24.6963L60.058 1.3769C60.076 1.3049 60.085 1.2239 60.085 1.1429C60.085 0.647893 59.68 0.242887 59.185 0.242887V0.233887Z" fill="white"/>
<path d="M125.003 64H10.7192C10.2872 64 9.9632 63.604 10.0442 63.181L11.5832 54.9999C11.6462 54.6759 11.9252 54.4419 12.2582 54.4419H126.542C126.974 54.4419 127.298 54.8379 127.217 55.2609L125.678 63.442C125.615 63.766 125.336 64 125.003 64Z" fill="white"/>
<path d="M17.2442 60.508H17.2622L18.7923 56.71H20.0883L19.3233 61.831H18.3423L18.8283 58.609H18.8103L17.4063 61.831H16.7402L16.2992 58.627H16.2812L15.8042 61.831H14.8142L15.5792 56.71H16.8662L17.2532 60.508H17.2442Z" fill="black"/>
<path d="M24.3634 59.995C24.2644 60.625 24.0304 61.093 23.6434 61.426C23.2564 61.759 22.7794 61.912 22.2124 61.912C21.6454 61.912 21.2494 61.741 20.9524 61.399C20.6554 61.057 20.5474 60.589 20.6464 59.995L20.8624 58.564C20.9524 57.943 21.1954 57.466 21.5734 57.1329C21.9514 56.7999 22.4374 56.6379 23.0044 56.6379C23.5714 56.6379 23.9674 56.8089 24.2734 57.1509C24.5794 57.493 24.6784 57.961 24.5884 58.555L24.3724 59.986L24.3634 59.995ZM23.5894 58.555C23.6434 58.168 23.6164 57.88 23.4904 57.7C23.3644 57.52 23.1664 57.43 22.8694 57.43C22.5724 57.43 22.3654 57.529 22.1854 57.718C22.0054 57.907 21.8884 58.186 21.8344 58.564L21.6184 60.004C21.5554 60.4 21.5824 60.688 21.6994 60.868C21.8164 61.048 22.0234 61.138 22.3114 61.138C22.5904 61.138 22.8154 61.039 23.0044 60.85C23.1934 60.661 23.3104 60.373 23.3644 59.995L23.5804 58.555H23.5894Z" fill="black"/>
<path d="M28.7014 57.493H26.7754L26.6224 58.519H27.2974C27.7924 58.519 28.1794 58.672 28.4494 58.987C28.7194 59.302 28.8274 59.698 28.7554 60.175C28.6744 60.679 28.4674 61.084 28.1164 61.381C27.7654 61.678 27.3244 61.831 26.8114 61.831H25.1373L25.9023 56.71H28.8274L28.7104 57.484L28.7014 57.493ZM26.5054 59.302L26.4513 59.671L26.2443 61.066H26.9194C27.1354 61.066 27.3154 60.976 27.4774 60.805C27.6394 60.634 27.7294 60.418 27.7654 60.175C27.8014 59.923 27.7654 59.716 27.6664 59.554C27.5674 59.392 27.4054 59.302 27.1804 59.302H26.5054Z" fill="black"/>
<path d="M32.7785 56.71H33.7776L33.0126 61.831H32.0135L32.4995 58.609H32.4815L30.3755 61.831H29.3855L30.1505 56.71H31.1405L30.6545 59.941H30.6725L32.7785 56.71Z" fill="black"/>
<path d="M38.6016 56.71L37.8366 61.831H36.8466L37.4946 57.493H36.3786L36.1626 59.023C36.0186 60.022 35.7756 60.742 35.4336 61.183C35.0916 61.624 34.6416 61.84 34.0926 61.84H33.9666L34.0836 61.066H34.2006C34.4616 61.066 34.6686 60.922 34.7946 60.634C34.9206 60.346 35.0556 59.806 35.1636 59.023L35.4966 56.719H38.6016V56.71Z" fill="black"/>
<path d="M40.4646 58.519H41.1396C41.6347 58.519 42.0217 58.672 42.2917 58.987C42.5617 59.302 42.6697 59.698 42.5977 60.175C42.5167 60.679 42.3097 61.084 41.9587 61.381C41.6077 61.678 41.1666 61.831 40.6536 61.831H38.9796L39.7446 56.71H40.7436L40.4736 58.519H40.4646ZM40.3476 59.293L40.0866 61.057H40.7616C40.9776 61.057 41.1576 60.967 41.3196 60.796C41.4817 60.625 41.5717 60.409 41.6077 60.166C41.6437 59.914 41.6077 59.707 41.5087 59.545C41.4097 59.383 41.2477 59.293 41.0226 59.293H40.3476Z" fill="black"/>
<path d="M46.9087 61.831H45.9187L46.2427 59.698H44.5956L44.2716 61.831H43.2816L44.0466 56.71H45.0366L44.7036 58.924H46.3507L46.6837 56.71H47.6737L46.9087 61.831Z" fill="black"/>
<path d="M49.5458 58.519H50.2208C50.7158 58.519 51.1028 58.672 51.3728 58.987C51.6428 59.302 51.7508 59.698 51.6788 60.175C51.5978 60.679 51.3908 61.084 51.0398 61.381C50.6888 61.678 50.2478 61.831 49.7348 61.831H48.0608L48.8258 56.71H49.8248L49.5548 58.519H49.5458ZM49.4288 59.293L49.1678 61.057H49.8428C50.0588 61.057 50.2388 60.967 50.4008 60.796C50.5628 60.625 50.6528 60.409 50.6888 60.166C50.7248 59.914 50.6888 59.707 50.5898 59.545C50.4908 59.383 50.3288 59.293 50.1038 59.293H49.4288ZM53.3169 61.831H52.3269L53.0919 56.71H54.0819L53.3169 61.831Z" fill="black"/>
<path d="M57.2499 56.7099H58.2489L57.4839 61.831H56.4849L56.9709 58.6089H56.9529L54.8468 61.831H53.8568L54.6218 56.7099H55.6118L55.1258 59.9409H55.1438L57.2499 56.7099ZM57.7269 55.1709V55.1889C57.6999 55.5039 57.5649 55.7469 57.3399 55.9269C57.1149 56.1069 56.8269 56.1969 56.4849 56.1969C56.1428 56.1969 55.8908 56.0979 55.7108 55.9089C55.5308 55.7199 55.4678 55.4769 55.5218 55.1799V55.1619H56.2508C56.2328 55.2969 56.2508 55.3959 56.2958 55.4769C56.3408 55.5579 56.4399 55.5939 56.5749 55.5939C56.6919 55.5939 56.7909 55.5489 56.8629 55.4679C56.9349 55.3869 56.9799 55.2789 56.9979 55.1619H57.7269V55.1709Z" fill="black"/>
<path d="M62.308 56.71L61.66 61.057H63.055L63.703 56.71H64.693L64.045 61.057H65.4221L66.0701 56.71H67.0601L66.2951 61.831H60.553L61.318 56.71H62.308Z" fill="black"/>
<path d="M70.7771 56.71H71.7761L71.0111 61.831H70.0121L70.4981 58.609H70.4801L68.374 61.831H67.384L68.149 56.71H69.1391L68.653 59.941H68.6711L70.7771 56.71Z" fill="black"/>
<path d="M75.7632 61.831H74.7731L75.0972 59.698H73.4501L73.1261 61.831H72.1361L72.9011 56.71H73.8911L73.5581 58.924H75.2052L75.5382 56.71H76.5282L75.7632 61.831Z" fill="black"/>
<path d="M80.8302 59.995C80.7312 60.625 80.4972 61.093 80.1102 61.426C79.7232 61.759 79.2462 61.912 78.6792 61.912C78.1122 61.912 77.7162 61.741 77.4192 61.399C77.1222 61.057 77.0142 60.589 77.1132 59.995L77.3292 58.564C77.4192 57.943 77.6622 57.466 78.0402 57.1329C78.4182 56.7999 78.9042 56.6379 79.4712 56.6379C80.0382 56.6379 80.4342 56.8089 80.7402 57.1509C81.0462 57.493 81.1452 57.961 81.0552 58.555L80.8392 59.986L80.8302 59.995ZM80.0562 58.555C80.1102 58.168 80.0832 57.88 79.9572 57.7C79.8312 57.52 79.6332 57.43 79.3362 57.43C79.0392 57.43 78.8322 57.529 78.6522 57.718C78.4722 57.907 78.3552 58.186 78.3012 58.564L78.0852 60.004C78.0222 60.4 78.0492 60.688 78.1662 60.868C78.2832 61.048 78.4902 61.138 78.7782 61.138C79.0572 61.138 79.2822 61.039 79.4712 60.85C79.6602 60.661 79.7772 60.373 79.8312 59.995L80.0472 58.555H80.0562Z" fill="black"/>
<path d="M84.0252 60.508H84.0432L85.5733 56.71H86.8693L86.1043 61.831H85.1233L85.6093 58.609H85.5913L84.1873 61.831H83.5212L83.0802 58.627H83.0622L82.5852 61.831H81.5952L82.3602 56.71H83.6472L84.0343 60.508H84.0252Z" fill="black"/>
<path d="M91.1444 59.995C91.0454 60.625 90.8114 61.093 90.4244 61.426C90.0374 61.759 89.5604 61.912 88.9934 61.912C88.4264 61.912 88.0304 61.741 87.7334 61.399C87.4364 61.057 87.3284 60.589 87.4274 59.995L87.6434 58.564C87.7334 57.943 87.9764 57.466 88.3544 57.1329C88.7324 56.7999 89.2184 56.6379 89.7854 56.6379C90.3524 56.6379 90.7484 56.8089 91.0544 57.1509C91.3604 57.493 91.4594 57.961 91.3694 58.555L91.1534 59.986L91.1444 59.995ZM90.3704 58.555C90.4244 58.168 90.3974 57.88 90.2714 57.7C90.1454 57.52 89.9474 57.43 89.6504 57.43C89.3534 57.43 89.1464 57.529 88.9664 57.718C88.7864 57.907 88.6694 58.186 88.6154 58.564L88.3994 60.004C88.3364 60.4 88.3634 60.688 88.4804 60.868C88.5974 61.048 88.8044 61.138 89.0924 61.138C89.3714 61.138 89.5964 61.039 89.7854 60.85C89.9744 60.661 90.0914 60.373 90.1454 59.995L90.3614 58.555H90.3704Z" fill="black"/>
<path d="M95.5455 61.831H94.5555L94.8795 59.698H93.2325L92.9085 61.831H91.9185L92.6835 56.71H93.6735L93.3405 58.924H94.9875L95.3205 56.71H96.3105L95.5455 61.831Z" fill="black"/>
<path d="M100.325 57.493H99.1185L98.4705 61.8311H97.4715L98.1195 57.493H96.9495L97.0665 56.719H100.433L100.316 57.493H100.325Z" fill="black"/>
<path d="M102.683 60.724H101.405L100.946 61.831H99.9105L102.125 56.71H103.151L103.835 61.831H102.8L102.674 60.724H102.683ZM101.72 59.941H102.593L102.413 58.321H102.395L101.729 59.941H101.72Z" fill="black"/>
<path d="M108.254 59.689H107.984L107.66 61.831H106.67L106.994 59.689H106.706L105.482 61.831H104.24L106.022 59.032L105.068 56.71H106.301L106.904 58.816H107.111L107.426 56.71H108.416L108.101 58.816H108.308L109.505 56.71H110.738L109.118 59.023L110.036 61.831H108.803L108.245 59.689H108.254Z" fill="black"/>
<path d="M116.408 61.8311H115.418L114.284 58.564H114.266L113.78 61.8311H112.79L113.555 56.71H114.545L115.679 59.977H115.697L116.183 56.71H117.173L116.408 61.8311ZM119.396 60.85H117.614L117.731 60.076H119.513L119.396 60.85ZM117.983 57.826C118.037 57.466 118.172 57.178 118.397 56.971C118.622 56.764 118.892 56.647 119.225 56.647C119.558 56.647 119.774 56.755 119.936 56.98C120.098 57.205 120.161 57.484 120.107 57.826L120.044 58.24C119.99 58.6 119.846 58.888 119.63 59.104C119.414 59.32 119.135 59.419 118.811 59.419C118.487 59.419 118.253 59.311 118.091 59.086C117.929 58.861 117.866 58.582 117.92 58.24L117.983 57.826ZM118.487 58.24C118.451 58.456 118.469 58.627 118.532 58.744C118.595 58.861 118.712 58.933 118.874 58.933C119.027 58.933 119.153 58.87 119.261 58.744C119.369 58.618 119.441 58.447 119.468 58.249L119.531 57.835C119.558 57.628 119.54 57.457 119.477 57.34C119.414 57.223 119.297 57.151 119.135 57.151C118.973 57.151 118.847 57.214 118.739 57.34C118.631 57.466 118.559 57.637 118.532 57.835L118.469 58.249L118.487 58.24Z" fill="black"/>
<path d="M122.177 61.831H121.178L121.817 57.574L120.881 57.601L120.989 56.8359L122.951 56.6379L122.168 61.831H122.177Z" fill="black"/>
</g>
<defs>
<clipPath id="clip0_0_2129">
<rect width="132.41" height="64" fill="white"/>
</clipPath>
</defs>
</svg>
