<svg width="416" height="416" fill="none" xmlns="http://www.w3.org/2000/svg"><path d="M12 13 25 0h391v391l-12.5 12.5L391 416H0V25l12-12Z" fill="#16171B"/><mask id="a" style="mask-type:luminance" maskUnits="userSpaceOnUse" x="0" y="0" width="416" height="416"><path d="M416 0H0v416h416V0Z" fill="#fff"/></mask><g mask="url(#a)"><path d="M161.475 395.674c8.661-8.878 10.674-22.514 8.877-34.778-.715-4.867-2.962-10.616-7.837-11.224-2.322-.291-4.593.749-6.648 1.872-16.806 9.236-28.729 26.841-31.067 45.877-.557 4.568-.433 9.651 1.473 13.919 3.145 7.031 5.458 4.626 10.142.849 7.812-6.315 17.954-9.235 25.06-16.507v-.008Z" fill="#CE9542"/><path d="M190.079 423.487a996.656 996.656 0 0 0-.915-55.727c-.25-5.558-.599-11.324-3.245-16.224-4.06-7.513-17.655-6.149-25.143-2.039-2.546 1.398-4.942 3.453-5.716 6.249-3.278 11.764 3.561 23.762 6.772 35.551a108.797 108.797 0 0 1 3.769 31.416c-.05 1.914-.108 3.986.974 5.567 1.04 1.514 2.879 2.221 4.634 2.77 3.553 1.107 7.355 1.905 10.982 1.057 3.628-.849 7.855-4.901 7.896-8.62h-.008ZM138.162 426.233c.033 1.015.025 2.146-.649 2.903-.632.707-1.656.882-2.596 1.007l-13.553 1.847c-4.468.607-9.052 1.215-13.445.216-4.393-.998-8.636-3.952-9.851-8.295-.616-2.213-.408-4.576-.033-6.847 1.997-12.247 8.877-23.471 18.42-31.308 4.343-3.569 10.891-8.412 16.632-9.161 4.801-.624 3.577 1.947 3.719 6.515.133 4.326.274 8.661.408 12.988l.948 30.135Z" fill="#FFDB4D"/><path d="M95.081 30.534c.15-3.211 2.047-6.281 4.842-7.854.658-.366 1.381-.666 2.13-.682.599-.009 1.182.15 1.781.191 2.221.158 4.193-1.34 6.356-1.897 1.315-.341 2.688-.316 4.052-.3 2.454.034 4.9.075 7.355.109 4.018.058 8.753.516 10.783 3.985.357-1.705 2.579-2.43 4.226-1.847 1.639.582 2.796 2.03 3.869 3.403 1.306 1.689 2.654 3.461 3.028 5.566.658 3.636-1.73 7.064-4.06 9.934-.366.45-.749.915-1.256 1.19-.699.374-1.531.358-2.321.374-4.61.067-9.077 1.448-13.545 2.58-4.468 1.13-9.152 2.021-13.662 1.09-6.181-1.265-13.87-9.178-13.561-15.842h-.017Z" fill="#CE9542"/><path d="M160.46 175.917c-8.47 3.811-17.339 6.673-26.183 9.527-6.973 2.246-14.028 4.518-21.333 5.067-8.778.657-17.306-.899-25.917-2.729-.94-2.197-1.356-4.618-1.48-7.006-6.582 18.496-16.49 34.412-25.91 51.634-2.944 5.375-2.345 11.914-3.502 17.938-1.639 8.561-6.789 15.975-10.192 23.995-2.779 6.564-3.503 13.986-4.6 21.025-.45 2.853.898 5.649 1.58 8.461 1.023 4.227.532 8.653.042 12.979-.217 1.864-.425 3.736-.641 5.6-.083.748-.183 1.539-.657 2.121-.965 1.198-7.63 6.906-9.394 9.585-1.031 1.564-2.08 3.161-2.645 4.95-.341 1.09-.491 2.23-.79 3.328a13.114 13.114 0 0 1-2.48 4.867c-.458.566-.99 1.115-1.68 1.34-.691.225-1.573.008-1.898-.641-.183-.357-.166-.782-.15-1.189.2-3.753.9-7.68 1.873-11.316a63.907 63.907 0 0 1-3.886-9.559c-1.24-3.961-2.097-8.162-1.398-12.256.433-2.512 1.431-4.892 2.089-7.363 1.713-6.506.915-13.362.399-20.068a232.327 232.327 0 0 1-.45-28.479c.192-4.293.516-8.62 1.773-12.73 2.72-8.894 10.85-15.774 11.606-25.043 1.839-22.572 16.141-41.891 24.885-62.783 3.054-7.296 5.616-15.134 11.266-20.666 9.767-9.577 32.464-6.715 34.603-20.226a100.533 100.533 0 0 0 1.114-20.792c1.623.208 3.195-1.464 4.793-1.822a67.36 67.36 0 0 1 24.893-.907c2.122 7.613 1.398 15.5 3.844 23.013 9.268-4.201 19.219-7.513 29.153-9.743 7.289-1.63 14.71-2.72 21.849-4.908 4.018-1.232 7.92-2.796 11.814-4.368 7.654-3.079 15.317-6.157 22.972-9.236 8.619-12.188 22.014-19.352 33.953-28.312 9.776-7.339 18.562-15.892 27.315-24.42 1.073-1.04 2.654-.94 4.06-.416 1.398.524 2.571 1.514 3.703 2.496 1.173 1.015 2.362 2.055 3.194 3.361.832 1.307 1.282 2.946.849 4.435-4.193 14.252-16.474 24.428-25.617 36.134-9.144 11.706-19.993 22.48-33.363 28.945-7.405 3.578-15.542 5.816-22.24 10.592-11.49 8.186-25.534 12.138-38.297 18.154-1.73.815-3.444 1.697-4.892 2.953-3.228 2.812-4.684 7.147-5.416 11.365-.732 4.219-.899 8.562-2.205 12.639-1.306 4.076-2.504 8.744-6.406 10.499v-.025Z" fill="#FFDB4D"/><path d="M91.703 162.797c-1.689-3.228-5.533-5.616-8.994-4.485-1.947 11.707-3.985 23.696-9.867 33.996-6.032 10.558-16.3 20.575-19.377 32.332a15.958 15.958 0 0 0-2.239-7.405c0 13.728-.066 27.838-5.15 40.585-1.514 3.794-3.453 7.413-4.917 11.232-1.897 4.967-2.953 10.208-4.002 15.417-.565 2.804-1.131 5.599-1.689 8.403-.233 1.165-.466 2.346-.35 3.528.117 1.139.567 2.221 1.024 3.278 2.496 5.707 5.641 11.39 6.798 17.413.008-.099.025-.199.033-.299.49-4.318.982-8.753-.042-12.979-.682-2.812-2.021-5.6-1.58-8.462 1.098-7.039 1.822-14.468 4.6-21.024 3.403-8.029 8.553-15.434 10.193-23.995 1.148-6.024.557-12.555 3.502-17.938 9.418-17.223 19.328-33.139 25.909-51.634.124 2.388.532 4.809 1.48 7.005 1.665.35 3.32.699 4.976 1.015.55-5.092 1.057-10.2 1.273-15.317.15-3.636.116-7.455-1.573-10.683l-.008.017ZM245.731 101.711c-3.045 2.297-6.14 4.568-9.559 6.265-5.567 2.754-11.815 3.869-17.406 6.565-4.293 2.071-8.087 5.025-12.239 7.355-6.364 3.577-13.445 5.632-20.458 7.662-4.552 1.315-9.527 2.621-13.903.824-8.187-3.361-10.741-15.733-19.286-18.046.075 1.107.092 3.187.175 4.293a179.326 179.326 0 0 0-19.569 4.651l.05-10.433c0-.965.008-1.947.316-2.862.408-1.223 1.306-2.205 2.205-3.137.599-.624 1.215-1.256 1.822-1.897-.349-3.42-.724-6.847-1.664-10.209a67.537 67.537 0 0 0-24.893.907c-1.598.358-3.17 2.03-4.793 1.822.092 1.772.125 3.545.125 5.317 2.962 4.509 6.581 8.594 10.733 12.039 1.822 1.514 3.81 2.987 4.867 5.108.541 1.082.799 2.28 1.057 3.47 1.106 5.183 2.155 10.633.674 15.725-1.365 4.717-4.726 8.553-7.854 12.338a201.266 201.266 0 0 0-19.968 29.012c19.002-10.358 38.014-20.708 57.017-31.067 4.842 4.668 6.997 10.766 9.018 17.181.533 1.681 1.065 3.386 1.124 5.15.05 1.514-.25 3.012-.516 4.501 2.138-2.238 3.078-5.707 4.077-8.827 1.306-4.077 1.472-8.42 2.204-12.638.733-4.219 2.189-8.553 5.417-11.366 1.439-1.256 3.161-2.138 4.892-2.953 12.763-6.007 26.815-9.959 38.297-18.154 6.697-4.776 14.834-7.014 22.239-10.592 13.379-6.464 24.22-17.239 33.363-28.945.966-1.24 1.964-2.454 2.987-3.66a605.995 605.995 0 0 1-30.551 24.601Z" fill="#CE9542"/><path d="M225.838 87.492c.89-1.24 3.553-.333 5.067-.233 4.975.341 8.17-6.165 13.154-6.44-2.138-1.164-4.767-.174-6.989.816-3.203 1.431-8.037 4.426-11.24 5.849l.008.008Z" fill="#CE9542"/><path d="M146.124 75.153a39.51 39.51 0 0 1-.607 9.552c-.258 1.373-.599 2.762-1.331 3.952-.733 1.19-2.388 1.58-3.778 1.764-.108 4.293-.283 8.777-2.421 12.496-3.428 5.949-11.182 8.279-17.971 7.28-2.754-.407-5.491-1.289-7.721-2.962-4.626-3.469-6.664-8.91-8.012-14.526-1.822-.075-3.395-1.423-4.26-3.029-.865-1.606-1.14-3.453-1.414-5.25-.333-2.263-.674-4.526-1.007-6.78 11.157-3.254 22.971-3.204 34.586-3.02 4.468.074 9.468.465 13.936.532v-.009Z" fill="#FFDB4D"/><path d="M138.836 92.052c-.408-5.774-.391-11.415-.25-17.189-2.171-.108-4.343-.208-6.398-.241a449.876 449.876 0 0 0-8.212-.067c-.624.466-.79 1.207-.632 1.997a58.024 58.024 0 0 1 1.032 9.435c0 .266 0 .549-.15.765-.141.2-.383.292-.607.375a18.396 18.396 0 0 1-6.64 1.056c2.014 2.397 5.625 2.413 8.753 2.238.324.899.474 1.872.424 2.83-.715.474-1.539.973-2.379.798-.491-.1-.915-.433-1.39-.599-1.397-.49-2.845.44-4.235.982-1.539.599-3.228.715-4.875.832l4.127 1.364c.499.167 1.006.333 1.472.583.5.266.949.615 1.448.89 2.147 1.19 4.792.724 7.197.233-.499 1.264-1.955 1.847-3.303 2.055-1.34.208-2.762.183-3.969.815 2.346.408 4.776.375 7.105-.1.841 1.581.433 3.728-.923 4.893-.549.474-1.223.79-1.739 1.289-.516.508-.865 1.306-.532 1.955.141.275.382.483.64.649.233.15.491.275.749.383 5.083-.582 9.926-2.987 12.438-7.355.475-.824.832-1.681 1.14-2.571.125-2.745-.091-5.566-.283-8.295h-.008ZM140.55 86.685a5.87 5.87 0 0 1 1.872-2.113c.407-.283.923-.658.807-1.148-.366-.05-.749-.109-1.057-.308-.308-.2-.532-.591-.416-.949.117-.34.474-.516.774-.715 1.722-1.165 1.373-5.009-.965-3.228-1.065.807-.757 1.996-.724 3.178.042 1.764-.008 3.536-.291 5.283ZM103.684 89.646c-.541-.407-1.107-.857-1.331-1.497-.183-.508-.125-1.057-.2-1.59-.075-.532-.366-1.106-.89-1.214-.233-.05-.516 0-.691-.167-.116-.1-.158-.257-.175-.416-.141-.981.275-2.071-.232-2.912-.15-.25-.375-.457-.5-.715-.29-.616.067-1.406.674-1.706.699-.34 1.423.042 2.055.15.217 1.697.175 3.436.391 5.142.108.882.192 4.385.899 4.917v.008Z" fill="#CE9542"/><path d="M143.77 64.945a37.16 37.16 0 0 0 3.719-12.638c.191-1.814.249-3.686-.341-5.416-.566-1.673-1.698-3.079-2.796-4.452-1.314-1.63-2.621-3.261-3.935-4.892-1.839-2.28-3.919-4.717-6.798-5.258-1.947-.366-3.985.216-5.932-.183-1.847-.383-3.394-1.598-5.058-2.496-6.124-3.32-14.419-1.947-19.145 3.17-2.13 2.304-3.552 5.225-5.832 7.38-1.231 1.156-2.754 2.163-3.311 3.76-1.099 3.129 2.13 6.673.798 9.71-.324.732-.89 1.356-1.098 2.121-.275 1.016.108 2.072.491 3.054l2.887 7.438c15.409-2.172 30.826-2.346 46.351-1.306v.008ZM78.483 433.488c-6.723-13.561-13.645-28.363-10.833-43.239 1.93-10.208 8.104-19.677 12.92-28.887-3.502-9.784-7.004-19.56-10.507-29.344-2.272-6.349-4.585-12.963-3.91-19.677.482-4.768 2.454-9.319 2.695-14.103.208-4.185-.915-8.32-1.39-12.488-1.763-15.533 4.452-31.125 11.549-45.061-2.03-18.762-3.062-34.362 5.491-57.142 10.95-10.791 22.797-20.675 33.247-31.957s19.593-24.219 23.836-38.996c3.745-.815 7.355-1.506 11.108-2.321 4.701 8.37 9.942 15.958 14.643 24.328 2.529 4.501 5.067 9.035 6.747 13.919 4.227 12.322 2.646 25.842 0 38.596-2.429 11.748-5.715 23.313-9.726 34.612 3.07 10.3 4.709 21.715 5.392 32.439 1.489 23.554 7.446 47.599 13.636 70.379 3.544 13.046 10.134 26.383 6.573 39.42-4.227-5.79-12.106-9.692-19.203-8.694-7.097.998-13.486 5.034-18.595 10.067-5.1 5.034-9.085 11.074-13.095 17.015-7.605 11.273-15.509 22.455-25.168 32.032-9.66 9.576-22.298 15.4-35.385 19.094l-.025.008Z" fill="#FFDB4D"/><path d="M105.706 210.786c16.723-28.62 38.596-54.887 48.247-86.602-3.586 21.058-14.243 40.144-24.627 58.822-16.632 29.919-53.847 98.575-54.48 103.135 3.587-9.685 5.733-20.101 9.36-29.886 3.703-10 7.963-19.793 12.747-29.319a290.454 290.454 0 0 1 8.753-16.15ZM90.621 319.195c4.96-6.831 10.916-12.913 15.684-19.885 9.784-14.327 14.002-31.608 20.5-47.698 13.728-34.004 38.297-64.406 42.59-100.822a127.613 127.613 0 0 1-15.275 36.841c-6.956 11.332-15.642 21.515-22.889 32.664-4.9 7.53-9.127 15.5-12.629 23.77 3.727-4.21 7.446-8.428 11.173-12.638-1.697 9.435-8.153 17.181-12.704 25.618-6.931 12.862-9.552 27.705-16.574 40.526-3.569 6.523-8.22 12.405-11.706 18.97-4.143 7.812-5.807 15.891-7.08 24.536 4.393-10.783 4.434-15.734 8.902-21.89l.008.008ZM169.878 256.188c-.05-.674-.108-1.34-.15-2.013a175.033 175.033 0 0 0-1.656-15.434c-6.106 21.249-20.084 40.618-20.883 62.749a205.452 205.452 0 0 1 22.697-45.302h-.008ZM105.764 341.144c16.182-15.292 27.356-35.01 38.289-54.404 2.945-5.225 5.923-10.533 7.388-16.349 2.196-8.695.882-18.03 3.344-26.649.916-3.212 2.338-6.248 3.761-9.277l5.857-12.505c-.025-.075-.041-.15-.058-.225 4.01-11.306 7.297-22.871 9.726-34.611 0-.033.017-.066.025-.108a162.517 162.517 0 0 1-2.238 4.884c-1.339 2.829-2.438 5.366-3.644 8.253a529.9 529.9 0 0 1-44.396 84.432 127.954 127.954 0 0 0 21.075-22.897c-7.006 16.574-14.335 33.006-22.214 49.18-3.961 8.137-8.146 16.332-14.336 22.938-6.024 6.431-13.678 11.065-20.633 16.482-2.962 2.304-5.841 4.834-8.37 7.621.416 1.148.823 2.305 1.24 3.453-.475.915-.974 1.83-1.473 2.745a78.375 78.375 0 0 1 2.08-1.996c7.887-7.347 16.756-13.57 24.585-20.975l-.008.008ZM120.79 159.792c-15.5 19.219-31.134 38.655-43.19 60.121 0 6.772.617 13.428 1.382 20.525 3.76-5.217 6.44-11.124 9.152-16.964 10.059-21.632 21.158-42.774 32.656-63.69v.008ZM98.692 409.643c3.569-5.084 5.782-10.966 8.711-16.44 2.978-5.583 6.697-10.733 10.491-15.792 3.803-5.075 7.738-10.167 9.984-16.099 2.322-6.123 2.713-12.854 5.142-18.936 2.014-5.042 5.35-9.435 8.645-13.753a349.894 349.894 0 0 0-31.891 34.361c2.388-10.682 8.653-20.076 15.459-28.662a214.23 214.23 0 0 1 28.87-29.91c-9.867 6.281-19.785 12.688-28.088 20.924-8.312 8.237-15.001 18.537-16.99 30.069-.324 1.897-.54 3.852-1.447 5.549-.724 1.356-1.847 2.446-3.012 3.453-5.367 4.651-11.848 7.912-16.948 12.846-5 4.842-8.428 11.041-11.773 17.139-2.57 4.676-5.142 9.394-7.363 14.244a70.51 70.51 0 0 0 1.456 5.092c1.24-1.73 2.654-3.361 4.052-4.967 10.816-12.405 21.632-24.819 32.448-37.224-7.854 17.655-25.285 29.778-35.136 46.043 1.223 3.22 2.63 6.407 4.102 9.535 9.136-4.135 17.614-9.385 23.296-17.48l-.008.008ZM282.056 45.3c.483-.914 1.182-1.697 1.606-2.637 1.232-2.72-.083-5.874.058-8.86.15-3.079 1.872-5.866 3.928-8.162 2.263-2.521 5.249-4.71 8.644-4.793 3.386-.083 6.931 2.746 6.573 6.115.815-1.722 2.529-3.136 4.434-3.111 1.906.025 3.736 1.872 3.337 3.735 1.198-.865 2.479-1.755 3.952-1.838 1.472-.083 3.111 1.031 3.003 2.496 1.506-3.02 6.307-2.704 8.595-.233 2.288 2.48 2.737 6.082 3.07 9.435.083.848-.133 2.046-.982 2.013-.374-.017-.666-.291-.923-.566a33.59 33.59 0 0 1-5.383-7.355c-.924-.19-1.798.641-2.064 1.548-.274.907-.133 1.872-.158 2.82-.1 3.744-3.087 7.206-6.772 7.855l-.516-2.114c-.907 1.514-2.205 2.937-3.927 3.303-1.723.366-3.811-.782-3.877-2.546a12.848 12.848 0 0 1-4.011 2.03c1.847-.05 2.779 2.538 1.914 4.169-.865 1.63-2.712 2.446-4.426 3.145-3.345 1.364-9.119 4.6-12.747 2.962-3.169-1.431-4.9-6.398-3.319-9.41h-.009Z" fill="#FFDB4D"/><path d="M297.024 66.251h-6.381v38.58h6.381v-38.58Z" fill="#CE9542"/><path d="M303.555 43.005c3.162 2.23 5.275 5.874 5.65 9.726.374 3.844-.999 7.83-3.669 10.633-13.77 14.444-39.862-.682-23.163-21.74 1.88-2.371 5.017-3.47 7.987-4.035 1.19-.225 2.496-.308 3.528.316 1.031.624 1.547 2.196.723 3.078-.69.732-4.692 1.049-5.89 1.64a16.987 16.987 0 0 0-5.591 4.417c-2.979 3.611-4.335 8.362-1.215 12.38 4.959 6.398 14.984 7.03 20.717 1.39 2.313-2.28 3.802-5.508 3.494-8.736-.308-3.228-2.654-6.307-5.824-6.989.866-1.14 1.814-1.905 3.237-2.063l.016-.017ZM286.283 94.281a12.234 12.234 0 0 1 1.215 6.207c-.225 3.137-1.664 6.207-1.182 9.318.516 3.345 3.536 6.166 6.914 6.332 3.378.166 6.714-2.43 7.264-5.766.199-1.206.066-2.446.025-3.669a23.604 23.604 0 0 1 2.778-11.823c-.307.574-3.818 1.099-4.559 1.448-1.456.69-3.087 2.762-4.618 2.987-2.853.424-5.108-3.994-7.829-5.042l-.008.008Z" fill="#FFDB4D"/><path d="M339.248 114.216c-3.228-2.121-7.188-2.72-11.007-3.278a14.642 14.642 0 0 1 3.844-3.161c-4.46-1.564-9.402.183-13.512 2.529-4.11 2.346-7.962 5.333-12.538 6.531-4.576 1.19-10.3-.091-12.322-4.368-2.022 4.277-7.746 5.558-12.322 4.368-4.576-1.19-8.428-4.185-12.538-6.531-4.11-2.346-9.053-4.093-13.512-2.529a14.642 14.642 0 0 1 3.844 3.161c-3.819.55-7.779 1.157-11.008 3.278-3.228 2.122-5.491 6.224-4.259 9.885 1.231 3.644 6.073 5.524 9.443 3.669 2.155-1.182 3.536-4.019 2.421-6.207-.674-1.315-2.355-1.872-3.752-1.597 1.314-.907 2.803-1.573 4.334-1.623 6.889-.199 12.58 5.4 19.303 6.914 2.021.458 4.11.524 6.181.533 3.403 0 7.106-.283 9.652-2.546 1.081-.957 1.788-2.114 2.213-3.387.424 1.265 1.131 2.43 2.213 3.387 2.546 2.263 6.248 2.554 9.651 2.546 2.072 0 4.16-.084 6.182-.533 6.731-1.506 12.413-7.113 19.302-6.914 1.531.042 3.012.707 4.335 1.623-1.389-.275-3.078.274-3.752 1.597-1.115 2.188.266 5.017 2.421 6.207 3.369 1.855 8.212-.025 9.443-3.669 1.24-3.661-1.032-7.763-4.26-9.885ZM147.847 81.136a116.807 116.807 0 0 0-38.272-1.015c-4.61.64-9.202 1.572-13.52 3.294-.733-6.556-.666-13.611-1.406-20.167 16.689-7.563 37.123-7.796 53.564.291.116 5.358-.034 12.239-.366 17.588v.009Z" fill="#FFDB4D"/><path d="M279.277 204.531c0 1.148-16.856 14.285-35.701 14.285s-32.523-13.137-32.523-14.285c0-1.148 15.276-2.08 34.112-2.08 18.837 0 34.112.932 34.112 2.08Z" fill="#CE9542"/><path d="M245.165 206.611c18.84 0 34.112-.932 34.112-2.08 0-1.149-15.272-2.08-34.112-2.08-18.839 0-34.112.931-34.112 2.08 0 1.148 15.273 2.08 34.112 2.08Z" fill="#FFDB4D"/><path d="M368.443 204.531c0 1.148-16.856 14.285-35.701 14.285s-32.523-13.137-32.523-14.285c0-1.148 15.275-2.08 34.112-2.08 18.836 0 34.112.932 34.112 2.08Z" fill="#CE9542"/><path d="M334.331 206.611c18.839 0 34.112-.932 34.112-2.08 0-1.149-15.273-2.08-34.112-2.08-18.84 0-34.112.931-34.112 2.08 0 1.148 15.272 2.08 34.112 2.08Z" fill="#FFDB4D"/><path d="M94.673 63.856c8.429-4.593 17.963-5.134 27.381-4.643 4.793.25 9.568.79 14.311 1.49 4.127.607 8.553.965 11.989 3.519.449.333 1.015-.408.599-.774-3.045-2.679-6.723-3.394-10.633-4.093-5.142-.915-10.292-1.839-15.5-2.205-9.951-.699-19.785 1.206-28.571 5.99-.474.258-.05.974.416.716h.008ZM96.146 83.824c8.669-2.347 17.588-3.328 26.557-3.645 8.653-.3 16.815.849 25.385 1.648.566.05.615-.782.125-.949-8.104-2.695-17.805-3.278-26.292-2.945-8.894.35-17.555 2.371-26.008 5.059-.524.166-.308.973.225.823l.008.009Z" fill="#282421"/><path d="M147.988 63.64a95.626 95.626 0 0 1-.583 17.464c-.108.882 1.323.907 1.407 0 .515-5.791.557-11.665.099-17.464-.041-.582-.956-.599-.923 0ZM94.224 63.232c-.183 6.556.15 13.254.874 19.768.124 1.148 1.938 1.157 1.805 0-.774-6.598-1.348-13.154-1.847-19.768-.042-.533-.815-.541-.832 0ZM97.976 83.108c-.857 3.686 1.656 9.86 5.849 10.226.915.083.974-1.24.208-1.523-1.98-.707-3.436-1.756-4.276-3.744-.682-1.614-.64-3.478-1.406-5.017-.075-.158-.333-.116-.366.05l-.009.008Z" fill="#282421"/><path d="M102.394 81.968c.009 4.052.649 8.07 1.473 12.031.74 3.578 1.364 7.721 3.586 10.741 3.453 4.709 10.025 7.014 15.691 6.739 5.957-.283 11.59-3.378 15.043-8.245 4.476-6.306 3.394-15.25 2.962-22.53-.042-.674-1.082-.683-1.057 0 .216 5.832 1.015 12.83-1.131 18.362-2.43 6.248-9.269 10.283-15.825 10.6-5.566.266-12.53-2.139-15.317-7.314-1.539-2.853-2.072-6.381-2.896-9.484a86.694 86.694 0 0 1-2.138-10.908c-.033-.25-.407-.266-.399 0l.008.008Z" fill="#282421"/><path d="M141.39 90.987c1.756.133 3.361-1.63 3.969-3.136.832-2.047.932-4.576 1.198-6.756.116-.949-1.556-1.19-1.689-.225-.258 1.856-.316 3.76-.674 5.6-.208 1.064-.649 1.897-1.456 2.645-.641.591-1.165.774-1.548 1.531-.083.158.017.333.2.341ZM99.732 60.811c3.328-.64 3.486-5.733 7.546-4.285.799.283 1.29.674 2.155.774 1.373.166 3.078-.191 4.46-.416.424-.067.366-.699 0-.799-1.656-.466-3.345-.557-4.967-1.173-1.232-.466-2.031-.907-3.445-.632a5.169 5.169 0 0 0-2.779 1.539c-1.206 1.298-1.273 3.727-3.17 4.285-.466.133-.266.807.2.715v-.008ZM116.072 56.393c.375-.075.824.183 1.132.374.233.15.441.358.724.366a.148.148 0 0 0 .141-.183c-.091-.307-.424-.44-.715-.524-.433-.125-.849-.025-1.282-.116-.066-.017-.066.091 0 .083ZM113.551 53.064c.716-.158 1.872.849 2.43 1.24.516.358.382.358.823.599.674.366 1.415.45 2.164.574 1.164.191 2.021.391 2.945 1.215.657.582.915 1.015 1.739 1.314.432.158 1.007-.258.965-.732-.208-2.105-2.446-2.554-4.277-2.63-.807-.032-1.614.1-2.412-.082-1.107-.25-1.548-1.032-2.446-1.54-.741-.416-1.174-.416-1.981-.1-.083.034-.05.159.042.142h.008ZM126.73 58.24c.533-.208.816-.425 1.182-.882.199-.241.358-.732.582-.907.849-.674 2.38-.666 3.303-.3 1.731.683 3.936.566 5.758.4a.507.507 0 0 0 .49-.491c.1-1.032-.648-1.548-1.605-1.706-1.539-.25-2.987.608-4.576.4-.915-.125-1.947-.358-2.837.05-1.332.624-1.29 2.271-2.505 2.978-.241.142-.083.574.192.466l.016-.008Z" fill="#282421"/><path d="M140.625 58.156c-1.764-1.556-3.52-.657-5.758-1.015-2.072-.333-4.085-.849-5.907.524a.977.977 0 0 0 1.19 1.54c1.489-1.157 3.552-.234 5.2-.359 1.422-.1 4.143-2.055 5.025-.507.116.2.416-.042.241-.192l.009.009ZM145.667 61.327c.682-1.248.698-2.396.074-3.703-.391-.832-.956-1.539-1.539-2.246-.765-.524-1.231-1.281-1.397-2.263a2.2 2.2 0 0 0 .016-.732c-.882-2.13-3.852-4.119-6.198-3.412-.192.059-.133.308.041.333 1.415.167 3.67.64 4.535 1.897.715 1.032.574 2.471.865 3.636.591 2.346 2.712 3.702 2.821 6.29.016.4.565.59.773.208l.009-.008Z" fill="#282421"/><path d="M141.107 48.688c1.015.708 2.23 1.631 2.538 2.912.183.774-.142 1.59.008 2.363.175.882.807 1.548.974 2.438.216 1.107-.233 2.088-.125 3.187.05.499.582.948 1.073.615 1.132-.765 1.381-1.897 1.223-3.261-.166-1.415-1.256-2.055-1.78-3.253-.441-1.007-.075-1.989-.724-2.979-.691-1.048-1.939-1.755-2.962-2.404-.242-.15-.458.224-.225.382Z" fill="#282421"/><path d="M146.282 57.74c1.24-1.323 1.273-2.654 1.406-4.385.134-1.763.899-2.97.425-4.859-.824-3.244-3.495-6.847-7.106-5.932-.108.025-.083.183.025.192 2.089.133 4.277 2.354 5.267 4.093 1.165 2.055.399 2.62-.266 4.485a4.73 4.73 0 0 0-.3 1.23c.108.833.233 1.665.383 2.489a37.003 37.003 0 0 1-.399 2.338c-.059.316.324.607.574.332l-.009.017ZM139.567 42.68c.049 0 .049-.082 0-.082s-.049.082 0 .082Z" fill="#282421"/><path d="M133.669 39.487c1.082 2.271 1.997 3.386 4.568 3.62 1.913.174 3.802.49 5.499 1.488 2.138 1.257 2.737 3.195 3.553 5.358.083.208.358.167.383-.05.307-2.554-1.373-5.283-3.287-6.855-.99-.807-2.047-1.315-3.328-1.514-.69-.108-1.306-.067-1.997-.025-2.304.15-3.769-.125-5.225-2.122-.066-.092-.208-.017-.158.092l-.008.008ZM99.516 45.46c1.098 5.409-4.734 5.176-5.95 9.277-.731 2.463.592 5.716 2.322 7.43.366.366.949.075.974-.408.116-1.78-.74-2.912-1.124-4.6-.657-2.88 1.581-3.977 3.145-5.833 1.49-1.772 1.706-3.81.924-5.949-.067-.183-.325-.108-.291.084Z" fill="#282421"/><path d="M95.405 53.222c1.365-1.68.924-3.42.466-5.458-.632-2.829-.1-5.358 2.463-6.855 1.398-.816 2.962-1.323 4.335-2.164 2.662-1.622 3.519-5.383 6.523-6.156 2.346-.608 4.676-.433 6.622-2.03.175-.142-.05-.383-.224-.3-2.871 1.398-6.681.749-9.227 2.696-.965.74-1.415 1.755-2.147 2.695-1.813 2.347-4.076 2.455-6.614 3.511-6.365 2.638-4.143 8.495-3.053 13.837.074.357.615.524.856.224Z" fill="#282421"/><path d="M99.2 39.736c3.469-5.308 8.461-10.766 15.292-11.166 5.424-.316 10.541 3.96 16.091 4.218.698.034.715-.915.149-1.14-3.727-1.489-7.554-2.811-11.307-4.25-3.178-1.216-6.339-1.016-9.484.232-5.234 2.08-9.718 6.406-11.349 11.84-.108.374.408.565.608.257v.009Z" fill="#282421"/><path d="M122.221 32.922c5.083 2.014 10.916-1.181 15.408 2.73 1.889 1.647 2.779 3.768 4.085 5.807 1.099 1.73 3.786 3.244 4.51 4.942.158.366.765.258.84-.108.408-1.972-.407-2.205-1.664-3.636-2.213-2.53-3.419-5.7-5.815-8.087-1.506-1.498-3.295-2.58-5.408-2.937-4.036-.682-7.721 1.747-11.807.757-.349-.083-.465.4-.141.524l-.008.008ZM110.581 57.708c1.514.399 2.912.715 4.501.715 1.024 0 1.331-1.689.25-1.855-1.739-.267-3.137-.042-4.751.574-.258.1-.299.482 0 .566Z" fill="#282421"/><path d="M112.495 56.592c1.248.366 2.363 1.04 3.544 1.573.857.383 1.581-.766.749-1.29-1.298-.815-2.846-.848-4.293-.582-.158.033-.142.258 0 .3Z" fill="#282421"/><path d="M115.407 57.457c.399-.158.765-.15 1.115.084.366.25.715.64 1.148.732.516.116 1.007-.233 1.015-.774.025-.907-1.04-1.53-1.864-1.456-.69.066-1.306.25-1.789.765-.241.258 0 .79.375.641v.008ZM102.685 42.78c.683-.449 1.365-.906 2.047-1.347 1.581-1.365 3.245-1.39 4.992-.075 3.103 1.023 2.346.799 3.944 2.346 1.589 1.54 4.143 1.947 6.123 2.762 1.548.641 3.253 1.074 3.869 2.946.133.39-.441 1.04-.258 1.497.865 2.114 2.305 4.51 1.439 6.848-.257.698.857.998 1.115.307.591-1.589.941-2.937.549-4.609-.332-1.423-1.339-1.406-1.073-3.303.441-3.178.233-4.185-3.253-5.616-2.038-.84-4.168-.932-6.232-1.572-2.121-.658-3.378-2.596-5.424-3.287-2.979-1.007-5.907.99-8.121 2.737-.199.159.059.5.275.358l.008.009Z" fill="#282421"/><path d="M116.563 36.89c.816 1.664 1.123 4.31 3.154 4.917.782.233 1.464.142 2.213.566.665.375 1.248.907 1.639 1.573.882 1.506.765 3.311 1.106 4.967.042.208.308.2.416.058 1.706-2.296 1.997-5.541-.482-7.413-.882-.666-1.989-.965-3.087-.99-1.173-.017-1.489.39-2.671-.716-.757-.707-1.472-2.23-1.98-3.145-.108-.2-.399-.025-.299.175l-.009.008ZM98.842 39.203c-.009-1.015-.2-1.031-.716-1.913-1.098-1.889-1.938-3.545-1.78-5.791.075-1.023.316-1.939.34-2.962.026-.998-.399-.582-.074-1.98.35-1.498 1.107-1.897 2.48-2.588 2.029-1.023 2.853-.773 4.883-.141.624.191 1.14.308 1.789.4 1.464.199 2.837.39 3.677-.9.067-.1-.075-.182-.149-.116-1.798 1.506-3.711.241-5.275-.707-.325-.2-.433-.707-.824-.832-1.048-.324-1.789-.158-2.854.158-2.055.608-5.2 1.98-5.799 4.302-.34 1.322.233 2.67.1 4.035-.15 1.53-.433 2.787-.017 4.343.508 1.922 1.814 4.884 4.077 4.85a.158.158 0 0 0 .158-.158h-.016Z" fill="#282421"/><path d="M99.54 25.966c.808 1.065 1.823 1.34 3.137 1.315.932-.025 1.847-.241 2.771-.225 1.705.025 2.579.782 3.577 2.014.774.956 2.38-.292 1.706-1.315-2.596-3.927-7.912.6-10.883-2.03-.158-.142-.466.05-.316.241h.008ZM103.168 29.669c.674.008 1.323.066 1.997.108.549.041 1.398-.009 1.755.507.358.516 1.207.017.841-.49-.982-1.373-3.212-.541-4.593-.45-.208.017-.208.325 0 .325ZM103.775 23.254c3.694-.882 6.29-2.072 10.209-1.714 3.02.275 5.616.05 8.62-.332 2.429-.308 4.434-.383 6.597 1.023 2.205 1.43 2.047 3.386-.233 4.975-.491.341-1.156.408-1.664.774-.582.433-1.023 1.514-1.539 1.872-.466.324-.033 1.09.449.774 1.323-.866 2.405-2.23 3.844-2.846.974-.416 2.064-.332 2.738-1.306 1.589-2.288-1.365-5.075-3.104-6.207-4.002-2.595-8.977-.407-13.328-.582-4.984-.2-8.969-.616-13.088 2.712-.424.341.042.965.499.857Z" fill="#282421"/><path d="M127.571 23.545c.915 1.772-3.902 1.672-4.66 1.822-1.198.241-2.429.965-3.028 2.055-.632 1.148 1.098 2.163 1.764 1.032.574-.974 1.231-1.631 2.271-2.13 1.09-.524 2.255-.275 3.353-.666.974-.35 1.747-1.755.583-2.388-.184-.1-.367.1-.275.275h-.008ZM132.105 23.836c2.629-1.264 4.842-1.015 6.049 1.698.49 1.106.557 1.813 1.497 2.546 1.14.881 2.455 1.106 3.162 2.604 1.19 2.52-.558 4.958-2.363 6.606-.458.416.208 1.065.674.674 2.03-1.74 3.461-3.728 3.461-6.54 0-2.57-1.498-3.311-3.12-4.809-1.739-1.606-1.614-4.243-4.11-5.266-2.172-.89-4.119.574-5.691 1.905-.341.291.092.757.449.582h-.008Z" fill="#282421"/><path d="M135.391 27.098c.832 1.872 3.054.582 4.452 1.48.79.508 1.872 1.232 2.571 1.84.723.623.607 1.597 1.289 2.28a.351.351 0 0 0 .549-.076c1.123-1.764.108-3.203-1.398-4.102-.898-.54-1.905-1.123-2.953-1.272-1.215-.175-3.42.981-4.235-.317-.116-.183-.366-.025-.283.167h.008ZM116.68 88.467c1.506 1.589 3.819 3.07 6.057 2.92 1.555-.1 3.702-.557 4.467-2.088.075-.15-.091-.358-.249-.25-1.19.824-2.837-.058-4.227.175-.69.116-1.381.466-2.08.482-1.431.034-2.546-.89-3.76-1.506-.167-.083-.341.125-.208.267ZM105.98 101.046c-.424 4.302-.1 8.637-.757 12.938-.582 3.827-1.872 7.105-3.261 10.675-.084.224.258.432.416.241 5.466-6.873 6.473-15.542 4.21-23.929-.092-.349-.566-.249-.6.084l-.008-.009Z" fill="#282421"/><path d="M104.333 119.017c-4.002 4.218-8.212 6.823-13.786 8.595-4.918 1.564-10.051 2.537-14.743 4.759-9.818 4.642-14.17 14.493-17.78 24.12-4.302 11.464-10.617 21.54-15.941 32.489-5.017 10.325-7.28 21.491-7.513 32.939-.009.516.815.649.915.125 2.255-11.889 3.52-23.105 9.102-34.062 5.033-9.868 10.89-19.07 14.801-29.495 2.097-5.591 4.152-11.282 7.655-16.174 3.868-5.416 9.143-8.403 15.408-10.333 7.663-2.355 18.845-4.144 22.423-12.547.141-.341-.25-.74-.549-.424l.008.008Z" fill="#282421"/><path d="M35.094 216.494c-1.914 7.654-4.826 14.551-9.136 21.149-3.336 5.108-5.54 10.134-6.223 16.241-.79 7.08-.316 14.343.017 21.432.358 7.538.574 15.483 2.263 22.863.15.649 1.148.5 1.148-.158.1-14.668-3.087-29.453-1.364-44.137.931-7.963 5.258-13.312 9.002-20.06 3.003-5.416 4.709-11.049 4.942-17.239.017-.374-.558-.449-.65-.091Z" fill="#282421"/><path d="M22.422 295.733c-.465 2.679-.416 5.433-1.006 8.087-.524 2.347-1.573 4.535-2.188 6.856-1.032 3.927-1.29 8.586.549 12.297.15.308.624.15.632-.175.05-5.507-.058-10.075 1.756-15.408 1.33-3.919 1.697-7.621.649-11.657-.05-.183-.358-.199-.392 0Z" fill="#282421"/><path d="M22.006 313.04c-.29 4.484-6.514 13.819-.25 16.864.267.133.567-.083.5-.382-.283-1.273-.965-2.372-1.256-3.645-.425-1.863-.025-3.777.39-5.607.566-2.471 1.307-4.668 1.215-7.23-.016-.383-.574-.383-.599 0Z" fill="#282421"/><path d="M23.08 319.763c.649 4.168-2.663 7.255-2.272 11.298.183 1.872 1.132 3.861 3.112 4.069.457.05.724-.533.507-.89-.615-1.015-1.48-1.681-1.797-2.888-.457-1.722.009-3.594.375-5.291.474-2.23 1.023-4.16.599-6.44-.067-.349-.583-.199-.524.142Z" fill="#282421"/><path d="M27.564 324.413c-1.456 5.424-4.493 9.718-5.034 15.383-.183 1.922-1.963 9.494 1.906 9.402 2.812-.066 4.55-4.809 5.35-6.93 1.015-2.671 1.705-5.408 2.986-7.979 1.39-2.779 3.295-5.259 4.701-8.021.117-.233-.166-.466-.366-.283-2.596 2.388-4.834 5.475-6.281 8.695-1.49 3.319-1.84 7.18-3.67 10.341-.64 1.099-2.021 2.663-3.128.841-.291-.474.158-2.455.2-3.037.2-2.779.316-5.633 1.206-8.278 1.14-3.387 2.313-6.44 2.554-10.084.017-.25-.374-.3-.432-.059l.008.009Z" fill="#282421"/><path d="M33.63 332.608c2.936-1.98 6.398-4.243 8.719-6.905 1.855-2.122 1.689-4.876 1.839-7.555.183-3.295.557-6.689.207-9.976-.507-4.675-1.946-9.018-2.03-13.778 0-.332-.49-.499-.657-.174-2.745 5.399 1.098 11.972.932 17.671-.092 3.17.042 6.898-.674 9.993-.915 3.968-6.099 7.155-8.786 10.15-.266.3.083.832.45.583v-.009Z" fill="#282421"/><path d="M42.2 299.911c.898-13.553 3.51-25.443 10.84-37.066 6.348-10.067 7.255-22.705 3.727-34.095-.124-.408-.698-.316-.723.1-.516 7.23 1.114 14.452-.075 21.69-1.074 6.548-5.358 11.432-8.304 17.172-4.992 9.718-7.945 21.383-6.265 32.307.075.483.774.325.808-.108h-.009Z" fill="#282421"/><path d="M86.237 169.944c-.391 7.064-1.722 12.929-4.551 19.435-2.571 5.899-5.516 11.665-8.512 17.364-2.92 5.558-5.973 11.041-9.21 16.424-2.579 4.293-6.298 8.769-6.64 13.944-.066 1.007 1.407 1.123 1.698.233 2.089-6.423 6.365-11.931 9.726-17.738a284.81 284.81 0 0 0 9.244-17.297c4.576-9.335 11.365-21.641 8.611-32.407-.058-.216-.358-.158-.374.05l.008-.008Z" fill="#282421"/><path d="M85.438 183.738c6.373-4.992 12.147-10.916 18.038-16.474 6.015-5.674 11.972-11.432 17.472-17.622 9.368-10.541 18.079-22.68 21.507-36.566.241-.99-1.156-1.34-1.506-.416-5.358 14.377-13.528 26.74-23.912 37.972-5.175 5.6-10.699 10.866-16.207 16.133-5.5 5.25-11.423 10.392-15.974 16.507-.275.374.29.699.59.457l-.008.009Z" fill="#282421"/><path d="M137.471 102.136c-.174 4.351.782 9.177 2.513 13.162.408.94 1.955.266 1.647-.699a186.744 186.744 0 0 1-3.411-12.563c-.1-.433-.732-.316-.757.1h.008Z" fill="#282421"/><path d="M141.398 113.318c1.872.117 3.736-.408 5.55-.799 2.038-.432 4.21-.69 6.157-1.431.832-.316.807-1.73-.225-1.672-2.038.117-4.035.757-5.999 1.281-1.922.508-3.96.94-5.641 2.039a.315.315 0 0 0 .158.582Z" fill="#282421"/><path d="M152.281 110.722c4.335 8.029 9.094 15.817 13.512 23.804 2.204 3.977 4.476 7.995 6.348 12.139 2.346 5.183 2.596 10.117 3.012 15.7.69 9.335-.766 18.711-2.879 27.813-1.955 8.412-5.275 16.94-5.982 25.576-.075.865 1.19.94 1.439.191 3.045-9.06 5.333-18.836 7.314-28.188.915-4.318 1.53-8.678 2.03-13.062.574-5.042.341-9.66.099-14.702-.441-9.052-3.752-15.932-8.07-23.787-4.9-8.919-10.142-17.638-15.883-26.041-.399-.583-1.298-.075-.957.557h.017Z" fill="#282421"/><path d="M152.955 260.474c1.697-10.017 2.521-18.986 7.912-27.905 4.127-6.831 9.535-15.609 8.653-23.97-.033-.325-.508-.541-.682-.183-1.872 3.86-2.671 8.278-4.285 12.272-2.005 4.95-5.059 9.31-7.347 14.11-3.652 7.68-5.433 17.148-4.634 25.626.017.191.333.275.375.05h.008Z" fill="#282421"/><path d="M164.52 224.19c4.293 14.152 4.318 29.028 5.899 43.655 1.522 14.169 3.419 29.053 8.727 42.373.225.566 1.065.367.924-.257-3.411-15.309-6.224-30.393-7.788-46.027-.715-7.18-1.198-14.385-1.972-21.565-.682-6.365-1.597-12.954-4.809-18.595-.299-.525-1.164-.175-.99.416h.009Z" fill="#282421"/><path d="M178.156 304.835c1.107 9.444 3.145 19.12 5.882 28.222 3.137 10.442 8.77 19.71 5.217 30.825-.2.624.674.924 1.007.425 5.691-8.487.324-19.144-2.646-27.548-3.686-10.441-4.643-21.74-8.694-32.032-.142-.366-.824-.374-.766.1v.008Z" fill="#282421"/><path d="M189.48 364.308c-4.077-9.793-15.367-12.472-24.769-9.136-11.465 4.077-18.653 14.743-25.234 24.345-7.463 10.882-14.477 22.281-23.762 31.757-10.276 10.5-23.163 16.748-37.108 20.85-1.148.341-.665 2.088.491 1.789 11.108-2.846 21.882-7.68 30.934-14.785 8.944-7.014 15.999-15.999 22.456-25.276 6.914-9.942 13.079-21.158 21.94-29.536 9.218-8.719 26.557-13.354 33.696.541.374.724 1.664.208 1.339-.566l.017.017ZM80.729 194.105c-5.491 14.96-3.894 31.109-2.488 46.592.067.757 1.248.774 1.198 0-.973-15.55-1.439-31.1 1.756-46.467.066-.308-.358-.416-.466-.125Z" fill="#282421"/><path d="M102.627 192.383c-4.984 9.127-9.069 18.754-13.586 28.114-4.052 8.394-8.894 16.298-13.32 24.494-4.236 7.845-7.755 16.041-8.92 24.951-1.273 9.776.316 19.411 1.64 29.079.082.599 1.122.466 1.056-.142-1.082-10.108-1.939-20.633-.266-30.717 1.53-9.252 5.849-17.672 10.408-25.759 9.027-16.024 16.998-32.573 23.146-49.945.033-.091-.108-.15-.158-.066v-.009Z" fill="#282421"/><path d="M100.289 235.356c-9.859 19.052-20.509 37.689-30.393 56.709-4.185 8.062-6.406 16.132-4.809 25.226.915 5.192 2.605 10.225 4.119 15.267 1.456 4.842 2.57 10.051 4.85 14.577.133.258.583.141.558-.15-.882-9.169-4.85-18.204-6.922-27.165-2.655-11.481.582-20.617 6.09-30.617 9.66-17.547 18.861-35.252 26.907-53.598.116-.266-.267-.507-.408-.233l.008-.016Z" fill="#282421"/><path d="M72.5 338.191c1.406 8.145 2.405 16.565 6.19 24.02.608 1.19 2.297.15 1.764-1.032-3.36-7.454-4.251-15.691-7.62-23.129-.092-.2-.367-.05-.334.141Z" fill="#282421"/><path d="M117.038 328.157c-11.049 16.107-30.377 24.535-41.592 40.643-9.91 14.235-13.329 36.966-3.67 52.291.359.566 1.34.208 1.116-.474-3.045-9.26-5.35-17.863-4.244-27.747 1.14-10.167 5.383-19.502 11.981-27.273 5.666-6.681 12.563-12.172 19.161-17.872 6.764-5.849 12.53-11.997 17.58-19.369.142-.208-.191-.399-.332-.199Z" fill="#282421"/><path d="M78.666 361.879c.19.191.382.407.482.657.1.249.033.507.042.765.566-.149 1.123-.308 1.689-.457-.275-.366-.333-.699-.466-1.123-.142-.425-.474-.799-.965-.658-.508.15-.674.782-.633 1.248.05.516.208 1.007.5 1.448.482.724 1.689.482 1.689-.458 0-1.006-.89-2.03-1.83-2.304-.508-.15-.891.516-.517.882h.009ZM152.897 111.105c13.661-4.867 28.338-5.399 41.866-10.666 6.864-2.67 13.462-5.982 20.434-8.378 6.631-2.28 14.036-3.453 20.301-6.623.05-.025.025-.108-.034-.108-14.726.324-28.487 8.52-41.941 13.487-13.295 4.9-28.587 4.176-41.034 11.34-.499.283-.166 1.156.399.948h.009Z" fill="#282421"/><path d="M226.695 87.318c7.13-10.391 19.028-17.239 28.887-24.843 9.784-7.538 19.61-15.026 29.287-22.705.848-.674-.292-2.172-1.165-1.515-10.525 7.921-20.883 16.05-31.292 24.128-5.092 3.952-10.2 7.904-15.209 11.964-4.343 3.52-9.035 7.247-11.348 12.48-.25.566.482 1.016.84.491Z" fill="#282421"/><path d="M290.435 36.375c-7.006 2.721-12.006 8.212-12.905 15.85-1.04 8.844 3.253 16.257 12.289 18.13 7.471 1.547 15.949-2.156 19.211-9.211 2.978-6.448.807-15-5.225-18.828-.516-.333-1.123.432-.666.857 4.984 4.56 6.881 11.731 3.511 17.863-3.319 6.049-11.065 8.77-17.572 7.022-8.178-2.205-11.198-9.843-9.593-17.63 1.282-6.215 5.658-10.666 11.149-13.537.275-.141.083-.624-.216-.507l.017-.009Z" fill="#282421"/><path d="M284.76 39.96c1.29-.39 5.949-2.246 7.022-1.564 3.262 2.088-2.52 3.403-3.411 3.844-2.812 1.381-5.233 3.835-6.506 6.714-2.388 5.416-.216 12.106 4.975 15.043 5.184 2.928 14.835.932 18.113-4.21 3.203-5.034 1.04-12.888-3.819-15.966-.982-.624-1.847.898-.907 1.547 3.545 2.438 5.342 7.904 3.669 12.031-1.913 4.717-9.801 6.864-14.21 5.616-9.127-2.596-8.304-14.901-.865-18.895 1.805-.973 9.152-2.204 6.431-6.173-2.363-3.445-8.412-.117-10.675 1.556-.216.158-.099.557.192.466l-.009-.009Z" fill="#282421"/><path d="M287.356 44.162c.142.566.383 1.098.766 1.54.307.357.94.906 1.456.698.141-.058.257-.2.208-.358-.15-.424-.658-.64-.991-.923a3.439 3.439 0 0 1-.915-1.181c-.141-.3-.599-.084-.524.216v.008Z" fill="#282421"/><path d="M286.058 45.893c4.085 3.303 8.844-2.57 12.996.3 1.681.233 2.022 1.406 1.007 3.519-.583.383-1.19.724-1.806 1.04-1.564.832-3.203 1.506-4.85 2.171-3.802 1.523-6.972 2.205-10.533-.574-.267-.208-.816-.025-.649.383 1.281 3.12 4.16 4.21 7.413 3.67 3.952-.658 9.842-3.162 12.821-5.858 2.421-2.188 1.389-4.393-1.281-5.824-1.606-.857-3.52-1.273-5.333-1.206-3.22.116-5.983 2.62-9.269 1.505-.482-.166-.923.55-.516.882v-.008Z" fill="#282421"/><path d="M287.256 44.163c-.05.066-.1.133-.174.175-.591.349-.325 1.248.341 1.273.357.008.649-.109.882-.392.258-.307.299-.757 0-1.056-.258-.258-.807-.316-1.057 0h.008Z" fill="#282421"/><path d="M294.137 40.85c-1.548 1.864-3.212 2.88-5.683 2.788-.399-.017-.757.291-.865.657-.025.075-.025.158-.033.242-.017.357.291.798.657.865 2.779.482 6.149-1.331 6.531-4.302.042-.3-.424-.482-.607-.25Z" fill="#282421"/><path d="M284.311 40.668c.799-1.382.84-2.205.791-3.87-.1-3.61.291-5.49 2.62-8.386 1.481-1.847 3.237-4.526 5.342-5.732 4.118-2.355 7.588.516 8.586 4.493.691 2.77 2.172 16.174-2.696 14.418-2.354-.849-.707-.25-1.497-1.889-.25-.524-.433-1.297-.699-1.855-1.473-3.145-2.829-5.333-3.228-9.002-.042-.366-.574-.383-.583 0-.075 2.205-.125 4.376.616 6.473.79 2.255 1.672 3.852 1.872 6.306.158 1.914.616 3.262 2.862 3.12 7.962-.515 6.282-10.516 5.541-15.808-.79-5.715-4.676-11.506-11.199-8.145-3.244 1.672-6.156 5.658-8.145 8.603-2.346 3.47-.84 7.114-1.115 11.032-.033.508.691.666.932.25v-.008Z" fill="#282421"/><path d="M302.939 27.19c1.615-1.806 3.794-2.08 6.54-.832.233.823.433 1.655.616 2.487.491 2.08.956 4.16 1.098 6.299.133 1.988.358 5.45-1.048 7.038-3.994 4.51-5.209-1.98-5.874-3.752-.233-.616-1.015-.474-1.099.15-.416 3.203 1.223 7.895 5.292 7.355 3.769-.5 4.692-5.541 4.801-8.603.099-2.787-.441-5.591-1.082-8.287-.408-1.697-.732-4.177-2.238-5.375-3.012-2.388-6.099.508-7.654 3.02-.258.416.307.807.657.508l-.009-.008Z" fill="#282421"/><path d="M311.725 27.514c2.563-3.445 5.558.74 6.224 2.82.366 1.148.541 2.38.549 3.586.008 1.223-.125 2.48-.474 3.652a9.54 9.54 0 0 1-1.115 2.397c-.741 1.597-1.997 1.955-3.786 1.09-.283-.8-1.423-.857-1.68 0-.749 2.462 1.938 3.81 4.068 3.028 3.137-1.157 4.726-5.117 5.034-8.162.316-3.128-.325-7.38-2.879-9.535-1.922-1.622-4.851-1.73-6.473.316-.125.15-.191.375-.075.55.058.083.117.166.166.258.109.166.317.15.425 0h.016Z" fill="#282421"/><path d="M317.05 27.49c2.33-.434 4.368-.683 6.573.498 2.18 1.173 3.428 3.703 4.152 5.974.183.582 1.006 2.812.707 3.286-.691 1.082-2.463-1.206-2.854-1.589-1.456-1.43-2.787-3.028-4.459-4.21-.383-.274-.749.242-.591.591.874 1.864 2.354 3.42 3.736 4.934 1.006 1.098 2.288 3.012 3.977 3.078 2.986.125 2.279-3.61 1.813-5.466-.807-3.162-2.504-6.664-5.499-8.262-2.355-1.264-5.841-1.264-7.871.624-.258.242.017.608.325.558l-.009-.017Z" fill="#282421"/><path d="M321.427 32.548c.199.133.258.158.175.066-.025-.041-.034-.05-.025-.016-.491-.74-1.656-.283-1.448.607.183.79.998.998 1.672.699.691-.316.308-1.348-.366-1.356h-.008ZM295.052 54.155c-3.153 1.739-5.441 5.258-7.064 8.37-.557 1.073 1.14 1.996 1.598.931 1.439-3.394 3.744-5.79 5.982-8.636.283-.358-.067-.915-.516-.665ZM283.72 67.217c-8.003 8.52-14.443 18.38-22.697 26.682-8.686 8.728-19.194 13.986-30.093 19.386-10.982 5.441-21.907 11.016-32.964 16.307-5.283 2.529-10.716 4.643-16.091 6.964-3.802 1.639-8.07 3.694-10.217 7.413-.457.791.574 1.523 1.223.949 8.32-7.397 19.685-10.442 29.611-15.309a16310.762 16310.762 0 0 0 33.821-16.648c9.868-4.876 18.97-10.126 26.707-18.055 7.929-8.129 15.401-17.455 21.699-26.907.399-.599-.508-1.298-.999-.773v-.009ZM290.718 69.83c-.941 4.558-.616 9.426-.633 14.06-.016 4.61-.566 9.61.383 14.127.091.45.824.45.915 0 .949-4.534.391-9.518.383-14.127-.017-4.634.308-9.51-.632-14.06-.042-.209-.375-.209-.416 0ZM296.491 69.264c-.815 4.576-.465 9.443-.474 14.077-.008 4.634-.466 9.535.358 14.11.067.375.682.375.749 0 .823-4.583.374-9.467.358-14.11-.009-4.634.332-9.51-.475-14.077-.041-.258-.466-.258-.516 0Z" fill="#282421"/><path d="M285.343 94.29c1.73 1.872 3.918 3.262 5.832 4.926.89.782 1.165 3.07 2.654 2.771.341-.067.433-.475.3-.749-.366-.757-.125-1.523-.458-2.28-.341-.79-1.115-1.231-1.805-1.68-1.947-1.282-4.152-2.555-6.398-3.22-.134-.042-.225.133-.134.224l.009.008Z" fill="#282421"/><path d="M303.747 94.748c-2.396.024-5.358.815-7.397 2.105-1.339.848-3.661 2.762-2.953 4.542.141.358.49.533.848.35.716-.366.816-.824 1.257-1.49.624-.965 1.464-1.747 2.387-2.42 1.847-1.332 3.977-1.673 5.974-2.63.225-.108.108-.45-.125-.45l.009-.007Z" fill="#282421"/><path d="M286.083 95.18c.35 3.494.932 6.806.108 10.292-.449 1.88-1.198 3.577-.832 5.533.616 3.286 3.719 5.582 6.973 5.79 3.103.2 6.373-1.514 8.053-4.11.999-1.547 1.307-3.27 1.398-5.083.216-4.302-.483-7.805 1.631-11.865.266-.507-.474-.948-.774-.449-1.581 2.563-2.479 5.133-2.629 8.154-.216 4.434.15 9.251-4.959 11.007-2.704.932-6.098.283-7.596-2.488-1.389-2.571.283-5.566.533-8.145.291-2.979-.4-5.907-1.315-8.72-.1-.299-.624-.274-.591.084ZM265.35 114.042c-1.182-.075-2.222-1.548-3.054-2.28a22.213 22.213 0 0 0-2.562-1.93c-1.631-1.073-3.503-2.28-5.475-2.471-.615-.058-.707.774-.291 1.065 2.163 1.514 4.784 2.271 6.972 3.852 1.464 1.057 2.538 2.246 4.435 1.947.108-.017.075-.175-.025-.175v-.008Z" fill="#282421"/><path d="M255.149 108.251c4.626-.275 8.703.2 12.872 2.371 2.92 1.523 5.549 3.544 8.469 5.075 4.485 2.355 9.768 3.736 14.469 1.223.948-.507.291-2.163-.749-1.772-12.888 4.917-21.765-12.654-35.169-7.654-.374.141-.357.782.1.757h.008ZM248.901 122.653c1.298-2.762 3.253-2.696 5.874.225l-.982 3.394c-1.539 2.346-4.493 2.163-6.323.499-3.087-2.82-3.187-5.849-.691-9.093 1.789-2.322 4.202-3.961 7.056-4.676 2.962-.741 5.558.1 8.495.141.382 0 .665-.541.332-.807-4.85-3.977-12.995-1.006-16.764 3.145-1.739 1.914-3.578 4.684-3.145 7.38.407 2.513 2.762 5.608 5.025 6.764 4.068 2.089 9.892-2.296 8.836-6.814-1.007-4.293-6.906-4.626-8.071-.324-.058.216.275.366.366.158l-.008.008Z" fill="#282421"/><path d="M251.955 120.132c6.223-2.247 10.608.449 16.099 3.145 4.035 1.98 8.378 3.086 12.887 3.095 6.182.008 15.434-2.463 13.371-10.492-.242-.948-1.648-.541-1.456.4.765 3.669-2.521 6.356-5.591 7.288-2.255.682-4.693.849-7.039.782-4.967-.125-9.294-1.755-13.678-3.952-4.393-2.196-10.808-5.042-14.86-.74-.183.191 0 .565.275.465l-.008.009ZM296.641 115.232c3.187 4.019 8.653 3.495 12.83 1.406 3.286-1.639 5.99-4.193 9.127-6.082 4.393-2.654 8.528-2.645 13.437-2.612.757 0 .832-1.032.174-1.265-5.017-1.78-10.782.017-15.109 2.754-5.882 3.719-12.704 10.891-19.86 5.2a.424.424 0 0 0-.599.599Z" fill="#282421"/><path d="M333.199 107.152c-1.564-.291-2.87.599-3.985 1.615-.898.815-1.714 1.672-2.737 2.346-1.082.707-2.238 1.223-3.303 1.963-.308.217-.175.641.183.683 4.617.499 6.015-4.601 9.842-5.758.383-.116.441-.757 0-.84v-.009Z" fill="#282421"/><path d="M327.226 111.895c5.516-.1 15.45 2.471 15.883 9.593.249 4.193-4.951 7.18-8.595 5.2-1.731-.941-3.062-3.278-1.747-5.209 1.855-2.72 4.185-.981 5.466.574.2.25.557.025.574-.241.383-4.859-6.589-4.193-8.079-.541-1.971 4.843 3.204 8.645 7.638 7.871 5.774-1.007 8.536-6.931 5.35-11.931-3.137-4.925-11.166-8.586-16.648-5.907-.283.141-.142.591.158.582v.009Z" fill="#282421"/><path d="M334.439 119.408c-5.067-3.86-12.297 0-17.181 2.33-6.614 3.153-18.587 6.756-23.337-1.298-.674-1.14-2.355-.133-1.764 1.032 2.854 5.599 9.901 6.389 15.5 5.566 4.035-.591 7.571-2.164 11.174-3.994 5.324-2.704 9.551-3.827 15.516-3.311.192.016.208-.233.092-.325ZM212.626 205.204c10.017 2.754 21.307 2.904 31.633 3.195 5.416.15 10.841.116 16.257-.058 5.075-.167 10.658.083 15.55-1.381.582-.175.408-.924-.133-.999-5.275-.682-10.916.283-16.232.433-5.142.15-10.301.158-15.442.083-10.509-.166-21.125-1.714-31.6-1.506-.133 0-.158.191-.033.233Z" fill="#282421"/><path d="M214.989 205.313c-1.489-.583-2.945-.949-4.493-1.365.058.433.116.866.166 1.298 4.443-2.671 10.999-2.113 16.025-2.379a267.6 267.6 0 0 1 16.174-.391c10.807.066 21.49 1.347 32.265 1.805.574.025.707-.882.133-1.007-11.315-2.537-23.271-2.795-34.828-2.754-5.932.017-11.872.225-17.788.741-4.185.358-9.102.358-12.704 2.779-.616.416-.333 1.248.357 1.323 1.573.174 3.045.366 4.626.366.242 0 .258-.316.05-.4l.017-.016Z" fill="#282421"/><path d="M273.736 204.04c1.531.15 3.278.674 4.501 1.622.117-.457.242-.907.358-1.364-1.156.482-2.313.948-3.527 1.264-1.09.283-2.355.267-3.295.907-.449.3-.325.874.141 1.074 1.115.457 2.505.016 3.619-.292 1.273-.349 2.53-.823 3.695-1.456.557-.308.499-1.09 0-1.406-1.781-1.14-3.628-1.447-5.558-.59-.142.058-.05.241.066.257v-.016Z" fill="#282421"/><path d="M210.03 205.727c18.429 18.97 49.388 16.44 68.831.433.666-.549-.183-1.423-.857-1.115-6.023 2.762-11.29 6.822-17.546 9.21a46.582 46.582 0 0 1-17.048 3.045c-12.122-.125-23.279-4.75-32.656-12.288-.499-.4-1.182.241-.716.715h-.008ZM302.465 205.204c10.018 2.754 21.308 2.904 31.633 3.195 5.416.15 10.841.116 16.257-.058 5.075-.167 10.658.083 15.55-1.381.583-.175.408-.924-.133-.999-5.275-.682-10.916.283-16.232.433-5.142.15-10.3.158-15.442.083-10.508-.166-21.125-1.714-31.599-1.506-.134 0-.158.191-.034.233Z" fill="#282421"/><path d="M304.82 205.313c-1.489-.583-2.945-.949-4.493-1.365.058.433.117.866.166 1.298 4.443-2.671 11-2.113 16.025-2.379a267.6 267.6 0 0 1 16.174-.391c10.808.066 21.49 1.347 32.265 1.805.574.025.707-.882.133-1.007-11.315-2.537-23.271-2.795-34.828-2.754-5.932.017-11.872.225-17.788.741-4.185.358-9.102.358-12.704 2.779-.616.416-.333 1.248.357 1.323 1.573.174 3.046.366 4.626.366.242 0 .258-.316.05-.4l.017-.016Z" fill="#282421"/><path d="M363.576 204.04c1.531.15 3.278.674 4.501 1.622.116-.457.241-.907.358-1.364-1.157.482-2.313.948-3.528 1.264-1.09.283-2.355.267-3.295.907-.449.3-.324.874.142 1.074 1.115.457 2.504.016 3.619-.292 1.273-.349 2.529-.823 3.694-1.456.557-.308.499-1.09 0-1.406-1.78-1.14-3.627-1.447-5.558-.59-.141.058-.05.241.067.257v-.016Z" fill="#282421"/><path d="M299.869 205.727c18.429 18.97 49.388 16.44 68.832.433.665-.549-.183-1.423-.857-1.115-6.024 2.762-11.29 6.822-17.547 9.21a46.578 46.578 0 0 1-17.048 3.045c-12.122-.125-23.279-4.75-32.656-12.288-.499-.4-1.181.241-.715.715h-.009ZM211.17 205.063c3.827-6.265 6.789-13.188 9.992-19.802 3.112-6.423 6.224-12.838 9.302-19.269 6.074-12.705 11.964-25.509 17.056-38.647.458-1.189-1.439-1.688-1.905-.524-5.425 13.678-11.548 27.04-17.888 40.311-5.899 12.347-12.921 24.619-17.63 37.473-.233.649.74 1.007 1.081.458h-.008ZM248.077 128.843c-.873 5.982-.424 12.256-.449 18.288-.025 6.606-.016 13.22-.025 19.826 0 13.138-.807 26.566.441 39.653a.441.441 0 0 0 .882 0c1.248-13.087.449-26.515.441-39.653 0-6.606 0-13.22-.025-19.826-.025-6.032.424-12.306-.449-18.288-.058-.407-.766-.407-.824 0h.008ZM251.638 128.976c2.164 8.803 5.541 17.38 8.495 25.933a4905.238 4905.238 0 0 0 14.286 40.793c1.139 3.212 2.304 6.423 3.436 9.635.424 1.198 2.346.682 1.922-.533-7.854-22.364-15.384-44.861-23.712-67.067-1.149-3.054-2.272-6.149-3.645-9.11-.208-.458-.898-.125-.782.332v.017Z" fill="#282421"/><path d="M300.56 205.063c3.836-6.257 6.789-13.196 9.992-19.802 3.087-6.373 6.182-12.738 9.252-19.111 5.982-12.405 11.781-24.885 16.765-37.731.458-1.19-1.439-1.689-1.905-.524-5.3 13.37-11.349 26.399-17.589 39.353-5.915 12.289-12.921 24.544-17.597 37.366-.232.648.741 1.006 1.082.457v-.008ZM337.476 128.843c-.874 5.982-.425 12.256-.449 18.288-.025 6.606-.017 13.22-.025 19.826 0 13.138-.807 26.566.441 39.653.058.566.832.566.881 0 1.248-13.087.45-26.515.441-39.653 0-6.606 0-13.22-.025-19.826-.025-6.032.425-12.306-.449-18.288-.058-.407-.765-.407-.824 0h.009ZM339.614 127.912c2.313 8.885 5.832 17.538 8.927 26.166a5175.494 5175.494 0 0 0 15.126 41.583c1.19 3.229 2.405 6.448 3.586 9.677.433 1.189 2.355.674 1.922-.533-8.278-22.705-16.232-45.552-24.985-68.082-1.19-3.07-2.371-6.182-3.786-9.152-.216-.45-.906-.125-.782.332l-.008.009ZM99.557 37.306a7.135 7.135 0 0 1-1.622-3.245c-.092-.424-.325-1.398-.125-1.83.258-.183.524-.358.782-.54-.025.116-.041.232-.067.357.025.166-.041.39-.041.566-.033 1.605.79 3.045 2.105 3.935.2.133.399-.191.191-.325-.89-.565-1.564-1.38-1.872-2.404a4.38 4.38 0 0 1-.191-1.39c-.017.433.141-.973.141-.973-.124-.457-.407-.699-.882-.383-.74.491-.54 2.372-.44 3.062.2 1.331.823 2.48 1.722 3.47.191.216.499-.1.316-.317l-.017.017ZM106.346 40.003c.375-.275.757-.524 1.165-.757.824-.666 1.672-.699 2.554-.1 1.448.466 1.348.607 2.247 1.556.773.815 1.705 1.198 2.695 1.689 1.007.5 1.664 1.314 2.571 1.922 1.04.699 2.654.915 3.844 1.081.15.017.2-.166.058-.224-.89-.358-1.855-.474-2.737-.816-1.148-.44-1.248-.798-2.063-1.422-1.406-1.065-3.112-1.315-4.377-2.638-.732-.773-1.181-1.672-2.313-1.88-1.356-.25-2.679.724-3.694 1.473-.066.05 0 .158.067.108l-.017.008ZM116.68 37.231c.333-1.023 1.547 1.406 1.855 1.822.391.516.849 1.007 1.439 1.29.616.3 1.132.125 1.773.208 2.121.258 2.021 1.93 2.354 3.536.033.158.258.108.266-.033.1-1.365-.307-3.195-1.755-3.728-1.306-.482-2.255.216-3.428-.973-.882-.89-1.356-2.072-2.296-2.929-.075-.075-.183-.017-.192.083-.025.242-.05.475-.083.716 0 .041.067.05.075.008h-.008ZM99.05 60.992c1.189-1.405 2.454-2.845 3.519-4.36.275-.39.441-.765.657-1.18.566-1.057.832-1.814 2.03-2.164a4.987 4.987 0 0 1 2.322-.1c2.08.383 2.812 1.897 4.434 2.912 1.107.69 2.554.949 3.836.832.158-.016.216-.258.041-.3-1.131-.274-2.338-.232-3.394-.79-.924-.49-1.514-1.356-2.338-1.963-1.248-.915-2.871-1.265-4.393-.982-1.057.192-2.147.633-2.654 1.623.516-1.007-1.689 4.21-.366 1.472-.35.732-1.098 1.431-1.598 2.072-.748.948-1.497 1.88-2.213 2.854-.05.066.067.158.117.091v-.017ZM114.35 52.799c.691-.242 1.789-.208 2.463.083.241.108.64.649 1.015.774.358.116.383.141.815.091.94-.108 1.739-.765 2.754-.782 3.395-.05 3.32 2.72 2.904 4.959-.058.324.432.466.499.133.524-2.613.233-5.633-3.087-5.541-1.755.05-2.754.915-4.493.191-1.106-.458-1.822-.649-2.953-.116-.108.05-.033.24.083.2v.008Z" fill="#282421"/><path d="M124.983 54.487c.075.832.15 1.664.266 2.496.033.217.375.158.375-.05 0-.682-.034-1.364-.017-2.046h-.366c.033.582-.083 1.14-.083 1.722 0 .208.266.208.332.041.225-.532.184-1.198.117-1.763-.025-.225-.374-.242-.366 0 .025.682 0 1.364 0 2.046l.374-.05c-.116-.807-.283-1.614-.441-2.42-.016-.109-.199-.084-.191.024ZM133.569 39.479c.882.74 1.856 1.14 3.021 1.031 1.214-.108 2.196-.524 3.402-.041 1.007.4 1.748 1.214 2.605 1.855.166.125.341-.133.216-.274-.915-1.057-2.238-2.072-3.678-2.255-2.038-.25-3.452.957-5.416-.508-.108-.083-.249.1-.15.192ZM126.68 56.717c-.54-.233.391-2.388.533-2.546.299-.34 2.471-1.298 2.962-1.198.158.033.682.566.907.64.424.134.848.067 1.281-.008.433-.083.849-.3 1.273-.407.699-.283 1.389-.283 2.072 0 1.364.05 1.855.973 1.481 2.779-.275.05-.192.44.058.457 1.364.083.923-1.988.424-2.679-.516-.707-1.298-1.056-2.155-1.156-1.314-.158-4.459 1.589-5.191-.175-.034-.075-.084-.117-.167-.125-1.215-.158-2.155.275-2.895 1.248-.599.782-1.406 2.222-1.007 3.212.017.05.058.091.117.091h.266c.058 0 .091-.091.033-.116l.008-.017ZM124.733 51.75c1.016-1.447 2.355-2.837 4.052-3.452.982-.358 3.403-.591 3.478.948.25.532.1.682-.433.458a12.324 12.324 0 0 1-.773-.1c-.292-.033-.549-.083-.849-.108-2.271-.192-4.301.865-5.283 2.962-.108.233.233.44.349.208.774-1.54 2.105-2.63 3.861-2.78.923-.083 2.637.616 3.478.259.648-.283.49-.816.108-1.323-2.388-3.22-6.74.64-8.096 2.862-.041.075.067.133.108.066ZM125.333 46.617c.499-2.313 2.853-3.453 4.992-2.388.083.042.158.025.232-.033 1.115-.957-1.497-1.573-2.021-1.59-1.631-.066-3.345.724-4.227 2.122-.1.167.15.366.275.208.857-1.048 1.938-1.788 3.328-1.922.541-.05 1.331-.091 1.822.2 1.356.815-.233.3-.541.266-1.997-.233-3.652 1.165-3.969 3.104-.016.083.109.116.125.033h-.016ZM99.832 48.181c.532-1.498-.025-3.012-1.14-4.077-.108-.1-.291 0-.25.15.408 1.556.724 3.328-.84 4.376-.632.425-1.423.608-1.989 1.148-.657.633-.973 1.54-.366 2.28.1.125.258-.033.208-.158-.923-2.005 1.748-2.438 2.721-3.27.5-.424.79-.973.899-1.622 0-.042-.117-2.455-.225-2.388.075-.042.674 1.132.765 1.431.217.707.175 1.398.092 2.113 0 .075.1.075.116.017h.009ZM96.138 62.432c.748-.765 1.48-1.738 1.572-2.845.042-.508-.1-.84-.258-1.306-.091-.133-.174-.266-.266-.391-.258-1.365.083-2.213 1.04-2.546.333-.175.732-.167.782-.516-.033.2-.582.707-.665.948-.092.258-.134.541-.117.816.042.507.291.923.557 1.331.8 1.19 1.032 2.238-.025 3.411-.183.208.109.508.308.308.591-.616 1.123-1.34.94-2.238-.316-1.556-2.828-3.037-.549-4.518.142-.091.059-.324-.116-.274-1.09.316-2.53.79-2.754 2.096-.117.683.166.949.45 1.54.781 1.622-.175 2.828-.99 4.126-.034.05.04.108.082.067l.009-.009ZM120.274 48.946c-2.147 1.123-4.626 1.223-6.706-.133-1.273-.832-2.18-2.113-3.528-2.854a6.748 6.748 0 0 0-5.358-.466c-.923.316-.607.325.034.15 2.471-.649 4.326-.624 6.639.732 1.398.816 2.504 2.072 4.002 2.72 1.215.525 2.571.666 3.885.5 1.764-.233 3.728-1.789 5.458-.948.258.124.483-.258.225-.392-1.598-.765-2.896.167-4.468.633-2.937.865-5.175-.108-7.496-1.822-2.779-2.047-6.34-3.237-9.402-1.065-.141.1-.017.316.141.233 2.155-1.123 4.676-1.123 6.74.258 1.264.848 2.155 2.138 3.519 2.862 2.038 1.081 4.46.898 6.39-.3.066-.041 0-.15-.067-.108h-.008ZM94.89 65.77c2.604-2.023 5.849-2.563 8.994-3.212 1.888-.391 3.793-.74 5.715-.907.433-.034 2.089-.358 2.322-.108.016-.067.033-.125.05-.192-.483.05-.966.108-1.448.167-5.591.732-10.966 2.512-15.95 5.125-.183.1-.024.374.167.274 5.624-2.953 11.648-4.726 17.963-5.366.166-.017.174-.266 0-.266-3.536-.025-6.947.615-10.4 1.356-2.688.582-5.383 1.181-7.53 2.995-.083.075.033.191.125.125l-.008.008ZM95.755 80.513c4.21-.824 8.27-2.122 12.538-2.754a84.395 84.395 0 0 1 13.512-.907c8.819.125 17.538 1.68 25.883 4.518.291.1.416-.366.125-.458a84.196 84.196 0 0 0-26.391-4.426 84.07 84.07 0 0 0-12.846.907c-4.243.624-8.877 1.373-12.838 3.095-.016 0 0 .033.017.033v-.008Z" fill="#282421"/><path d="M95.464 79.638c17.547-4.526 35.31-5.416 53.032-1.181.241.058.341-.308.099-.366-17.272-3.994-36.175-3.977-53.173 1.398-.1.033-.058.183.042.15ZM94.69 73.365c17.139-5.7 35.535-6.598 53.09-2.221.141.033.2-.184.058-.217-17.497-4.351-36.142-3.652-53.156 2.388-.034.008-.017.058.016.05h-.008Z" fill="#282421"/><path d="M118.352 70.787c10.425-1.04 20.476.2 30.509 3.07.225.066.317-.275.092-.342-9.768-3.078-20.451-3.835-30.609-2.803-.05 0-.059.091 0 .083l.008-.008ZM95.539 75.528a40.467 40.467 0 0 1 3.569-.857c.69-.125 3.37-.166 3.561-.599-.15.341-3.245.666-3.72.757-1.239.242-2.487.474-3.735.682-.116.017-.075.208.05.184 2.68-.575 5.392-1.024 8.087-1.515.133-.025.108-.25-.033-.241-2.671.15-5.283.59-7.837 1.398-.117.041-.067.224.05.191h.008Z" fill="#282421"/><path d="M94.757 71.294c17.863-3.262 36.167-7.156 53.946-1.232.217.075.308-.266.092-.332-17.564-5.675-36.483-2.388-54.055 1.514-.033 0-.025.066.017.058v-.008ZM148.329 65.635c-6.922-2.487-14.951-3.802-22.214-2.263-.15.034-.084.258.066.233 4.11-.698 8.353.225 12.439.758 1.896.25 3.893.357 5.707 1.015 1.597.582 2.895 1.53 4.618 1.713.149.017.183-.224.033-.257-1.864-.392-3.428-1.473-5.25-1.98-1.414-.392-2.912-.508-4.36-.691-3.685-.466-7.513-1.273-11.24-1.04-.508.033-1.057.241-1.19.324.907-.549 2.713-.399 3.786-.457a34.32 34.32 0 0 1 5.391.174c4.177.441 8.112 1.673 12.189 2.563.05.008.067-.058.017-.075l.008-.017ZM102.552 82.559c12.896-.491 25.792-1.548 38.663-2.355.242-.016.25-.4 0-.382-12.879.815-25.808 1.38-38.663 2.52-.141.009-.141.225 0 .225v-.008Z" fill="#282421"/><path d="M104.807 82.068c5.832-.44 11.656-.865 17.505-1.123 5.841-.258 11.723-.208 17.547-.699.067 0 .067-.108 0-.108-5.832-.166-11.723.208-17.547.49-5.84.284-11.698.625-17.505 1.349-.058 0-.066.1 0 .1v-.009ZM100.506 81.918c-.674 1.198-.608 2.197.524 2.904.798.5.649.89.773 1.722.042.275.1.516.217.774.299.666.823 1.165 1.531 1.365.099.024.158-.109.066-.167-.94-.599-1.439-1.19-1.572-2.321-.042-.358.025-.724-.142-1.057-.091-.191-.208-.258-.357-.407-.342-.35-1.124-.74-1.273-1.298-.092-.342.233-1.09.332-1.465.017-.058-.066-.091-.099-.041v-.009ZM142.846 80.679c-.408.54-1.14 1.464-1.223 2.154-.033.275.042.466.291.6.292.15 1.415-.109 1.506.24.058.225-1.289.841-1.439.9-.333.124-.674.166-.999.316-.091.041-.033.158.05.174 1.015.133 2.122-.665 2.779-1.356.05-.058.067-.158 0-.216-.416-.358-.823-.2-1.331-.266-.799-.1-.399-.857-.15-1.315.217-.391.433-.782.599-1.198.025-.058-.058-.083-.091-.042l.008.009Z" fill="#282421"/><path d="M124.159 80.496c-.008.35-.008.69 0 1.04 0 .025.042.025.042 0 .008-.35 0-.69 0-1.04 0-.025-.033-.025-.033 0h-.009ZM114.633 95.572c1.481-.117 2.887-.233 4.368-.075 1.614.166 3.212.474 4.842.383 3.004-.175 5.816-1.398 8.853-1.257.291.017.291-.44 0-.449-3.287-.158-6.323 1.281-9.585 1.298-2.754.008-5.89-1.198-8.486.075-.017.008-.009.041.008.041v-.016ZM121.064 98.125c1.831 1.09 5.109.74 6.848-.39.066-.042.025-.159-.059-.134-1.214.316-2.296.732-3.569.782-1.098.042-2.13-.274-3.203-.324-.042 0-.05.05-.017.066ZM121.88 101.071c.74.316 1.639.283 2.437.25.807-.034 1.706-.092 2.447-.433.099-.042.049-.2-.059-.2-.798.034-1.581.258-2.388.308-.798.042-1.622-.108-2.412 0-.034 0-.067.058-.017.075h-.008ZM138.145 79.048c-.133 7.347 1.29 14.735.059 22.023-.034.208.257.3.316.092 1.006-3.261.615-6.847.441-10.192-.217-3.96-.292-7.979-.757-11.914 0-.034-.059-.034-.059 0v-.009Z" fill="#282421"/><path d="M106.263 97.693c1.023 3.961 2.521 7.413 6.465 9.177 3.203 1.431 6.955 1.706 10.4 1.215 6.988-.99 14.252-5.533 17.022-12.239.025-.066-.074-.1-.108-.05-3.519 5.924-8.694 10.284-15.575 11.723-3.411.716-7.08.641-10.408-.466-4.51-1.506-6.49-5.042-7.754-9.376 0-.025-.05-.017-.042.008v.008Z" fill="#282421"/><path d="M140.799 92.56c-.907 6.864-5 13.121-11.673 15.409-3.419 1.173-7.221 1.955-10.832 1.656-4.194-.35-7.239-2.272-9.652-5.633-.049-.067-.174-.025-.141.058 3.045 7.779 14.236 6.382 20.392 4.335 6.914-2.296 11.324-8.603 11.948-15.825 0-.025-.033-.025-.033 0h-.009Z" fill="#282421"/><path d="M110.431 105.539c5.001 4.268 12.056 4.401 17.913 2.055 5.492-2.197 10.276-5.699 11.873-11.723.042-.141-.175-.241-.25-.1-1.239 2.288-2.188 4.618-3.935 6.614-2.005 2.288-5.034 3.661-7.812 4.784-6.224 2.505-12.106 1.781-17.739-1.697-.041-.025-.091.033-.058.075l.008-.008Z" fill="#282421"/><path d="M107.486 103.01c4.285 4.551 10.076 8.561 16.54 8.752 5.292.15 10.7-2.379 13.071-7.263.1-.216-.2-.399-.324-.191-2.779 4.709-7.663 7.879-13.196 7.995-5.982.125-10.367-3.294-13.969-7.696-.183-.224-.491.092-.316.316 3.402 4.36 7.879 7.671 13.603 7.796 4.992.1 9.751-2.254 12.821-6.173.125-.158 1.14-1.348 1.065-1.531-.275-.632-.691.557-.807.74-.89 1.357-2.097 2.488-3.453 3.362-2.338 1.506-5.158 2.279-7.929 2.304-6.698.075-12.388-4.11-16.989-8.544-.075-.075-.183.041-.117.116v.017Z" fill="#282421"/><path d="M133.944 107.295c-.508 2.063-.674 4.243-.766 6.364a46.62 46.62 0 0 0-.008 3.586c.033 1.04-.125 2.613.241 3.578.075.2.1.424.208.607.058.092 1.223 1.065 1.14.974.749.848.757 1.331.607 2.421-.357 2.512-1.763 4.875-2.803 7.147-.1.216.191.399.324.191 1.123-1.83 1.972-3.919 2.613-5.974.416-1.331.807-3.036-.233-4.21-.733-.832-1.29-.981-1.565-2.346-.249-1.273-.199-2.696-.208-3.985-.025-2.812.35-5.55.574-8.337 0-.075-.108-.091-.124-.016Z" fill="#282421"/><path d="M133.927 121.247c3.295.058 6.09-2.754 7.505-5.525.083-.166-.133-.358-.275-.208-2.163 2.413-3.627 5.192-7.23 5.5-.15.016-.15.224 0 .233ZM103.343 122.245c-.142.067-.275.125-.416.217-.033.025-.017.083.025.066.15-.058.283-.133.424-.208.05-.025 0-.1-.041-.075h.008ZM86.503 173.08c.05-2.205-.341-4.376-1.09-6.44-.283-.774-.64-1.506-.982-2.255-.2-.432-.973-1.497-.815-2.03.45-1.531 1.573.175 1.939.932 1.064 2.18.931 5.375.915 7.763-.017 2.646-.466 5.2-.799 7.812-.017.15.216.175.258.034 1.123-3.878 1.065-8.154.715-12.131-.208-2.38-.624-5.158-3.328-5.782-.108-.025-.24.049-.233.174.117 1.589.808 2.854 1.448 4.285 1.098 2.454 1.573 4.975 1.764 7.646.008.133.208.142.208 0v-.008ZM86.104 181.566c3.494-4.992 3.311-11.856 2.67-17.646-.008-.092-.157-.1-.15 0 .084 5.965.741 12.288-2.653 17.572-.059.091.083.166.141.083l-.008-.009Z" fill="#282421"/><path d="m88.641 167.015.2.624h.008l-.2-.624h-.008ZM56.8 233.059c-.465-2.255-.831-5.882.683-7.895.624-.832.141-.683.49.099.4.882.608 1.623 1.216 2.43.074.1.208.108.282 0 5.275-7.979 10.4-16.083 15.459-24.203 4.268-6.847 9.085-14.743 10-22.938.017-.142-.207-.167-.249-.034-1.206 4.485-2.438 8.72-4.493 12.921-1.98 4.052-4.335 7.921-6.739 11.732-2.513 3.993-5.058 7.962-7.596 11.939-1.29 2.022-2.58 4.043-3.869 6.073-.624.982-1.19 2.122-1.93 3.012-.266.325-.433.915-.998.791-.65-.142-.89-2.813-.907-3.104 0-.158-.217-.224-.308-.083-1.664 2.82-2.255 6.157-1.265 9.318.042.134.233.075.2-.058h.025ZM21.324 308.43c-.474.832-.624 1.73-.274 2.662.183.474.499.749.79 1.123.932 1.157 1.115 1.972.965 3.328-.133 1.223-.333 2.571.441 3.645.874 1.206 2.338 1.198 3.02 2.753.408.941.433 1.689 1.232 2.413.956.874 1.88 1.348 2.546 2.546.357.641.682 1.373 1.156 1.939 1.764 2.096 4.002.233 5.167-1.473.091-.133-.117-.299-.225-.175-.308.375-.799 1.182-1.24 1.423l-3.744-.433c-.158-.266-.316-.532-.466-.807-.532-.94-.956-1.946-1.747-2.704-.632-.607-1.048-.099-1.78-1.139-.291-.408-.375-.991-.524-1.456-.167-.508-.275-1.082-.616-1.515-.358-.449-.724-.466-1.19-.732-2.313-1.314-1.789-2.745-1.664-4.992.034-.64.158-1.506-.241-2.088-.092-.133-.258-.225-.366-.341-1.132-1.148-1.997-2.155-1.157-3.919.034-.067-.066-.125-.1-.058h.017Z" fill="#282421"/><path d="M83.982 186.284c12.355-7.612 24.045-15.791 33.205-27.214 4.144-5.167 7.804-10.708 11.191-16.391 3.619-6.082 7.213-12.33 10.183-18.761.05-.109-.1-.2-.158-.092-3.469 5.932-6.448 12.147-9.95 18.079-3.47 5.883-7.222 11.615-11.499 16.948-4.226 5.267-8.96 10.076-14.235 14.302-5.957 4.776-12.439 8.836-18.837 12.988-.091.058 0 .208.092.15l.008-.009ZM77.343 220.904c7.155-11.015 14.352-21.981 21.981-32.672a679.087 679.087 0 0 1 11.665-15.858c3.96-5.225 8.195-10.259 12.089-15.534.083-.116-.1-.258-.192-.15-4.143 4.735-7.887 9.885-11.689 14.893a662.047 662.047 0 0 0-11.906 16.174c-7.688 10.783-15.167 21.765-22.048 33.081-.042.066.058.124.1.058v.008Z" fill="#282421"/><path d="M122.271 157.614c-4.235 6.481-8.112 13.212-11.856 19.984-3.727 6.74-7.58 13.579-10.658 20.651-.067.149.141.274.225.133 3.669-6.823 6.963-13.828 10.707-20.625 3.736-6.79 7.713-13.429 11.648-20.102.025-.041-.033-.074-.058-.033l-.008-.008ZM77.443 219.631c-.05 2.039.1 4.052.54 6.049.35 1.564.733 3.644 1.706 4.959 1.564 2.121 3.67-.416 4.693-1.789 5.041-6.772 8.952-14.419 11.423-22.489.05-.175-.216-.25-.275-.075-1.972 6.049-4.542 11.848-7.904 17.264a71.69 71.69 0 0 1-2.43 3.669A54.645 54.645 0 0 1 83.9 229a6.875 6.875 0 0 1-1.706 1.797l-2.396-.474c-.865-.708-1.364-3.636-1.614-4.693-.458-1.972-.666-3.977-.707-5.999a.017.017 0 0 0-.033 0ZM129.617 140.242c-7.704 13.52-16.69 26.224-26.998 37.881-8.903 10.067-19.136 19.818-24.361 32.473-.058.141.191.249.258.108 5.94-13.121 16.199-23.005 25.509-33.721a210.948 210.948 0 0 0 25.642-36.716c.017-.034-.033-.059-.05-.034v.009ZM148.961 111.604c.624.474.433 2.238.283 2.895-.125.533-.249 1.065-.391 1.598a46.118 46.118 0 0 1-.857 2.812c-.732 2.163-1.622 4.268-2.604 6.323-1.814 3.777-3.952 7.388-6.115 10.974-4.243 7.006-8.661 13.969-11.315 21.765-.034.1.091.192.174.133 3.095-1.988 4.934-5.125 6.756-8.228a280.205 280.205 0 0 0 7.097-12.854 288.25 288.25 0 0 0 11.74-25.684c.074-.192-.233-.275-.308-.084-5.658 14.211-12.247 28.496-20.517 41.401-.965 1.506-2.039 2.97-3.395 4.143-.965.841-1.273 1.024-.782-.324a55.29 55.29 0 0 1 1.098-2.746c1.348-3.145 2.954-6.165 4.651-9.127 3.253-5.666 6.889-11.115 9.893-16.931 1.605-3.104 3.028-6.315 4.076-9.651.466-1.481 2.263-5.284.558-6.498-.05-.034-.092.041-.05.083h.008ZM78.474 275.666v.275c0 .008.017.008.017 0v-.275c0-.008-.017-.008-.017 0ZM78.574 277.372c9.393-38.654 31.749-72.051 51.825-105.789 5.3-8.902 10.459-17.888 15.085-27.164a226.115 226.115 0 0 0 6.023-13.071c.45-1.073.891-2.147 1.323-3.228.424-1.065 1.256-2.463 1.398-3.619-.241 1.905-1.14 4.892-1.731 7.072-2.687 10.025-7.138 19.51-11.747 28.778-4.56 9.169-9.502 18.138-14.527 27.057-11.299 20.026-23.321 39.82-32.407 60.986-.083.191.192.357.283.166 14.985-33.172 35.726-63.298 50.952-96.329 4.202-9.102 7.854-18.512 9.451-28.454.034-.208-.241-.291-.316-.092-8.137 21.849-20.425 41.775-32.448 61.643-11.298 18.679-22.672 37.423-31.516 57.425-4.934 11.157-9.035 22.68-11.83 34.569-.026.117.149.167.174.05h.008Z" fill="#282421"/><path d="M77.45 278.412c-.864-4.66 1.024-9.236 2.455-13.595a400.292 400.292 0 0 1 4.135-12.006c2.97-8.204 6.265-16.274 9.66-24.311.041-.092-.083-.167-.133-.083-9.094 16.124-18.779 33.047-17.622 52.233.008.158.258.158.25 0-.89-14.694 4.642-28.571 11.431-41.301 1.648-3.087 3.37-6.132 5.1-9.169.433-.765.824-1.58.192-.316-.358.708-.633 1.456-.949 2.188a413.065 413.065 0 0 0-1.863 4.41 390.224 390.224 0 0 0-7.646 20.018 382.864 382.864 0 0 0-3.894 11.665c-1.065 3.369-2.047 6.764-1.24 10.291.017.075.133.042.117-.033l.008.009ZM162.074 125.906c1.597 20.842-9.327 39.329-20.759 55.811-11.423 16.465-22.414 33.005-31.716 50.801-4.85 9.277-9.642 18.829-10.999 29.337-.016.141.208.199.275.075a932.032 932.032 0 0 1 14.119-28.097c4.717-9.002 9.302-18.254 15.209-26.557 5.633-7.921 12.405-14.976 18.196-22.781 5.458-7.363 10.4-15.167 14.077-23.578 3.894-8.92 6.224-18.438 6.107-28.197 0-.233-.366-.233-.366 0 .216 18.653-8.536 35.726-19.261 50.469-5.624 7.729-12.172 14.693-17.879 22.348-6.008 8.053-10.567 17.139-15.234 26a884.792 884.792 0 0 0-13.82 27.348c-.258.54-.49 1.356-.873 1.813-.625.741 0-.649.058-1.006.191-1.099.407-2.18.665-3.262.574-2.404 1.323-4.767 2.18-7.089 1.772-4.784 4.019-9.376 6.34-13.911 9.077-17.738 19.743-34.419 31.175-50.718 12.097-17.248 24.669-36.75 22.689-58.798-.009-.116-.192-.116-.183 0v-.008ZM70.287 330.679c-.066-8.611.117-17.289 3.97-25.185 3.66-7.496 9.026-14.36 14.284-20.783.566-.691 1.14-1.381 1.723-2.072.449-.532 1.472-1.922.457-.582-1.314 1.739-2.296 3.894-3.37 5.791a284.69 284.69 0 0 0-5.973 11.107c-2.912 5.716-5.466 11.198-6.989 17.438-1.522 6.232-2.72 12.639-3.211 19.045-.009.141.208.141.224 0 .849-8.287 2.272-16.798 4.892-24.71 1.623-4.893 4.227-9.51 6.598-14.07a293.96 293.96 0 0 1 8.894-15.791c.084-.141-.116-.308-.233-.175-6.14 7.114-12.255 14.735-16.706 23.038-4.56 8.503-4.843 17.531-4.66 26.966 0 .066.1.066.1 0v-.017ZM78.99 359.333c2.663-6.398 8.453-10.509 13.861-14.461 5.167-3.777 9.943-7.854 14.011-12.829a66.705 66.705 0 0 0 14.552-34.104c.025-.174-.241-.191-.291-.041-4.177 12.613-12.189 23.346-21.216 32.914-4.335 4.592-9.036 8.802-13.479 13.287-3.785 3.827-7.355 8.378-7.097 14.036.009.191.308.191.3 0-.258-5.7 3.428-10.251 7.246-14.07 3.561-3.561 7.305-6.938 10.833-10.541 6.997-7.147 13.57-14.868 18.454-23.637a69.953 69.953 0 0 0 3.037-6.115c.466-1.057.898-2.13 1.306-3.212.15-.408.374-.873.466-1.289.416-1.856-.108.624-.2 1.198a65.404 65.404 0 0 1-3.785 13.786c-3.678 9.26-9.444 17.697-16.807 24.419-7.238 6.606-17.364 11.066-21.274 20.617-.025.058.075.083.1.025l-.017.017ZM76.41 348.133c.791-8.428 2.863-16.681 6.382-24.386 3.345-7.33 8.204-13.786 11.965-20.891 7.296-13.753 10.058-29.278 12.737-44.446.025-.158-.199-.224-.241-.066-1.764 6.88-3.511 13.769-5.291 20.65-1.706 6.581-3.703 12.979-6.964 18.978-5.974 10.982-14.535 20.634-18.08 32.822-1.797 6.182-2.213 12.797 0 18.92.042.125.242.075.2-.058-4.201-12.522 1.523-25.102 8.129-35.618 3.27-5.2 6.822-10.234 9.784-15.625 2.92-5.317 4.909-10.933 6.481-16.782 1.748-6.522 3.378-13.087 5.059-19.626.108-.408.898-2.521.715-2.796-.249-.374-.382 1.098-.424 1.331-.283 1.589-.566 3.179-.865 4.768a288.54 288.54 0 0 1-1.822 9.143c-2.738 12.564-6.906 24.295-13.678 35.269-3.678 5.949-7.289 11.864-9.768 18.429a72.676 72.676 0 0 0-4.451 19.993c0 .074.108.074.116 0l.017-.009ZM152.672 259.168c.632-3.287 1.265-6.365 2.737-9.41 1.348-2.787 2.979-5.408 4.227-8.245 2.371-5.4 4.468-11.449 5.458-17.264.016-.108-.125-.15-.167-.05-1.09 3.003-1.722 6.198-2.679 9.252-1.023 3.286-2.196 6.531-3.694 9.643-2.504 5.208-5.824 10.067-5.99 16.057 0 .058.091.075.108.017ZM173.788 150.592c-.474 13.262-2.995 26.349-7.887 38.704-4.817 12.181-12.472 22.822-18.096 34.595-1.406 2.937-2.663 5.957-3.669 9.06-.574 1.764-1.44 4.135.324 5.475.083.066.208.008.258-.067 13.112-20.758 23.903-44.112 27.814-68.498 1.015-6.332 1.789-12.855 1.456-19.269-.008-.167-.258-.167-.258 0-.175 11.689-1.756 23.229-4.909 34.494-3.278 11.732-8.145 23.13-13.62 33.996a224.072 224.072 0 0 1-9.21 16.515c-.15.241-.948 1.889-1.198 1.93-1.481.233-.99-1.93-.865-2.562.274-1.34.807-2.671 1.273-3.961 1.14-3.145 2.529-6.198 4.035-9.185 5.3-10.466 11.964-20.151 16.432-31.033 5.217-12.713 8.112-26.441 8.253-40.186 0-.092-.141-.092-.141 0l.008-.008ZM170.959 264.992c-.074 8.037-1.031 16.931-6.631 23.179-4.301 4.801-10.857 7.48-13.436 13.712-.067.166.191.258.274.116 1.939-3.086 4.019-5.607 7.089-7.629 2.354-1.548 4.884-2.796 7.205-4.393 3.627-2.496 6.914-6.19 6.681-10.849-.008-.217-.341-.217-.333 0 .3 7.978-8.187 11.282-13.72 14.942-2.387 1.581-4.384 3.478-5.982 5.866-.499.74-1.164 1.864-.208.491.541-.782.982-1.564 1.606-2.297.874-1.031 1.864-1.955 2.887-2.837 4.443-3.802 9.077-6.839 11.623-12.33 2.596-5.599 3.062-11.889 3.045-17.971 0-.058-.091-.058-.091 0h-.009ZM175.735 299.761c-6.04 9.959-18.229 13.145-27.281 19.543-9.685 6.839-17.214 16.183-24.253 25.601-4.751 6.356-9.418 12.779-14.161 19.144-.116.158.15.366.275.208 7.704-9.751 15.425-19.585 24.61-27.997 4.751-4.351 9.876-8.27 15.434-11.531 5.441-3.195 11.232-5.891 16.249-9.759 4.842-3.736 8.902-8.578 10.375-14.619.058-.241-.316-.341-.374-.1-3.229 13.163-16.965 18.421-27.406 24.719-10.267 6.19-18.895 14.66-26.691 23.696a294.522 294.522 0 0 0-5.874 7.055c-1.864 2.313-4.152 4.642-5.699 7.188-.741 1.207.141.3.624-.357.491-.666.973-1.34 1.464-2.006 1.057-1.447 2.13-2.895 3.195-4.343 2.055-2.787 4.102-5.574 6.157-8.353 7.371-9.976 15.059-20.034 25.101-27.489 9.211-6.831 22.398-10.017 28.355-20.534.033-.066-.058-.116-.1-.058v-.008ZM86.47 430.659c18.112-6.323 27.597-25.767 36.949-41.067 6.057-9.901 11.665-20.401 18.953-29.461 6.281-7.804 14.51-14.419 24.96-14.485 10.233-.067 19.46 5.341 24.777 13.977.116.192.399.025.299-.175-3.594-7.196-11.215-12.022-18.936-13.628-8.495-1.764-16.715.549-23.437 5.932-8.72 6.981-14.369 17.056-20.102 26.441-6.056 9.91-11.856 20.027-18.32 29.678-6.365 9.51-14.12 18.653-25.185 22.663-.083.034-.05.159.034.134l.008-.009Z" fill="#282421"/><path d="M192.4 356.303c-2.438-7.471-9.035-12.771-16.482-14.843-8.411-2.346-17.372-.1-24.694 4.335-18.012 10.916-24.444 32.357-33.662 49.987-5.808 11.115-13.67 20.617-22.032 29.893-.141.158 0 .4.208.358.707-.15 1.406-.316 2.105-.482.225-.05.125-.391-.091-.342-.15.025-1.365.308-1.406.217-.017-.042 1.081-1.198 1.015-1.123.84-.941 1.68-1.881 2.512-2.829a216.274 216.274 0 0 0 4.909-5.766c3.045-3.719 5.941-7.563 8.52-11.623 5.566-8.753 9.493-18.387 14.027-27.681 8.104-16.59 21.3-35.826 42.083-35.468 9.784.167 19.452 5.999 22.805 15.417.042.108.216.067.175-.05h.008Z" fill="#282421"/><path d="M107.203 420.792c12.605-7.721 19.644-21.099 26.408-33.729 7.238-13.512 16.132-29.686 32.098-33.987 8.612-2.322 20.642-.2 24.045 9.235.108.291.566.166.466-.125-2.396-6.614-9.435-9.992-16.116-10.392-7.529-.449-14.701 2.621-20.492 7.264-13.179 10.558-19.069 27.131-27.639 41.125-4.884 7.979-10.824 15.467-18.853 20.468-.091.058 0 .199.083.149v-.008ZM188.373 342.384c-2.404-5.366-5.333-10.674-7.138-16.282-1.864-5.791-1.506-11.848-1.165-17.83.016-.266-.4-.266-.416 0-.391 6.007-.674 12.131 1.239 17.921 1.847 5.616 4.784 10.95 7.364 16.249.041.075.149.009.116-.066v.008ZM118.593 243.368c4.967-14.219 14.56-25.7 23.521-37.548 8.969-11.856 16.748-24.602 22.331-38.422 3.236-8.02 5.641-16.282 7.163-24.793.034-.183-.249-.266-.282-.075-2.829 15.076-8.52 29.519-16.1 42.823-7.421 13.029-17.131 24.269-25.684 36.516-4.617 6.623-8.785 13.695-11.182 21.449-.041.15.175.208.225.067l.008-.017ZM147.971 297.082c.333-21.141 13.495-38.896 21.699-57.549.116-.258-.267-.483-.383-.225-8.27 18.803-21.208 36.458-21.466 57.766 0 .1.15.1.15 0v.008ZM154.577 113.301c4.144 3.586 8.004 7.447 11.349 11.79 2.521 3.27 4.759 6.281 9.119 6.905 4.75.674 9.817-.948 14.31-2.313 4.842-1.481 9.901-2.986 14.427-5.283 4.401-2.238 7.737-5.999 12.18-8.17 5.034-2.463 10.284-4.46 15.459-6.606 4.576-1.905 9.202-3.886 13.378-6.573 4.26-2.737 7.979-6.173 11.773-9.501 7.804-6.864 15.825-13.32 22.78-21.083.092-.108-.058-.258-.158-.158-5.807 6.29-12.263 11.756-18.778 17.28-3.711 3.145-7.263 6.49-11.066 9.527-4.118 3.294-8.594 5.824-13.386 7.995-8.728 3.952-18.571 6.531-26.167 12.547-4.276 3.394-8.636 5.524-13.794 7.313-4.901 1.706-9.885 3.461-15.01 4.335-2.928.499-6.165.707-8.927-.591-2.371-1.123-3.869-3.236-5.433-5.25-3.519-4.526-7.488-8.669-12.031-12.18-.025-.025-.066.016-.041.041l.016-.025ZM231.612 85.504c1.997.391 3.678-.715 5.308-1.764 2.272-1.456 4.526-2.953 6.789-4.426.159-.1.059-.374-.133-.316-2.512.757-5.033 1.53-7.396 2.67-2.646 1.282-4.718 3.703-7.422 4.76-.158.066-.099.316.075.266 1.997-.607 3.37-2.213 5.067-3.345 2.055-1.364 4.376-2.28 6.714-3.061.433-.142 2.388-.724 2.28-.849-.033-.042-3.045 1.997-3.228 2.113-2.338 1.531-5.1 3.994-8.029 3.786-.1 0-.116.15-.025.175v-.009ZM300.077 24.111c-2.72-1.722-6.339-.757-8.028 1.93-.084.125.074.267.199.2 2.871-1.564 5.957-2.304 9.219-2.196.208 0 .208-.316 0-.325-2.746-.066-5.416.4-7.929 1.54-.566.257-1.697 1.114-.4-.159a5.523 5.523 0 0 1 2.147-1.29c1.606-.532 3.228-.349 4.701.45.1.058.191-.091.091-.158v.008ZM310.611 26.624c-2.513-1.214-5.957-1.73-7.854.758-.059.074-.009.182.058.224.882.574 1.655.042 2.512-.374 1.972-.957 3.719-.874 5.833-.724.108 0 .116-.142.025-.175-1.731-.682-3.894-.35-5.55.383-.432.191-2.321 1.547-1.689-.075.192-.483 1.731-.674 2.105-.707 1.548-.15 3.029.466 4.51.774.05.008.091-.067.041-.092l.009.008ZM315.045 26.29c-1.381-.157-2.612.492-3.278 1.706-.05.092.058.225.158.159 1.706-1.224 3.395-1.132 5.325-.625.083.025.133-.1.058-.141-1.09-.657-2.587-.649-3.785-.3-.275.084-1.456.458-1.415.766-.05-.358 1.032-1.015 1.265-1.132.532-.266 1.081-.34 1.672-.307.083 0 .083-.117 0-.125ZM293.688 30.526c-.15 1.206.299 2.437 1.414 3.053 1.44.79 1.997-.424 2.896 2.23.341 1.007.141 2.08.582 3.103.408.957 1.256 1.947 2.404 1.897 1.107-.041 1.773-.898 1.623-1.922-.009-.083-.125-.05-.133.017-1.398 1.847-2.438 2.013-3.12.499a2.334 2.334 0 0 1-.832-1.53c-.192-.65-.192-1.39-.275-2.064-.066-.483-.025-1.281-.383-1.69-.291-.324-.449-.274-.832-.398-1.755-.575-3.494-.458-3.278-3.195a.03.03 0 0 0-.058 0h-.008Z" fill="#282421"/><path d="M303.289 27.114c.499 2.588 1.156 5.15 1.764 7.721.383 1.598.64 3.561 1.78 4.843 2.147 2.412 4.984.216 6.29-1.922.075-.125-.108-.267-.208-.159-1.031 1.115-2.205 2.846-3.943 2.788-2.139-.067-2.804-2.463-3.237-4.102-.807-3.062-1.448-6.165-2.33-9.202-.025-.075-.133-.042-.116.033Z" fill="#282421"/><path d="M312.366 29.652c.1 2.221.233 4.484.524 6.698.183 1.406.549 2.928 1.847 3.719 2.596 1.58 4.56-1.523 4.851-3.736.016-.108-.15-.116-.175-.025-.416 1.173-.89 2.837-2.146 3.428-1.099-.308-2.197-.616-3.287-.924-.166-.382-.333-.757-.499-1.14-.258-.79-.283-1.639-.374-2.454-.2-1.864-.375-3.727-.641-5.574 0-.059-.1-.042-.1.016v-.008ZM318.09 28.828c-.258 1.28-.1 2.529 1.398 2.837.632.133 1.248-.042 1.814-.325-.059.025 1.156-.782 1.123-.799.258.125-.075 1.307-.083 1.623-.017.582-.092.699.283 1.056.116.109.79.317.84.333.915.408 1.597.916 2.196 1.706.816 1.081 1.348 3.028 3.004 2.77.166-.025.108-.258-.033-.274-1.739-.2-2.513-3.012-3.936-4.002-.424-.3-1.306-.45-1.647-.782-.691-.674-.166-2.147-.067-3.012.017-.175-.216-.233-.324-.133a8.565 8.565 0 0 1-1.539 1.19c-2.263-.009-3.245-.732-2.929-2.172 0-.05-.083-.066-.091-.017h-.009ZM283.887 39.345c2.987-2.487 6.265-5.225 10.425-4.085.191.05.274-.25.083-.3-4.193-1.131-7.729 1.54-10.666 4.227-.109.1.05.258.166.166l-.008-.008ZM291.233 39.111c-4.268.367-7.737 3.811-9.06 7.755-1.506 4.5-.816 11.182 2.646 14.693 3.228 3.278 9.501 3.827 13.678 2.413 4.467-1.515 8.969-6.315 10.117-10.9 1.414-5.649-2.155-9.434-7.197-11.232-.133-.05-.225.167-.1.225 2.596 1.331 5.333 2.413 6.565 5.292 1.189 2.795.599 5.965-.882 8.536-1.448 2.513-3.761 4.867-6.19 6.448-2.546 1.664-5.5 2.013-8.478 1.772-2.804-.233-5.791-1.048-7.688-3.27-1.972-2.32-2.796-5.94-2.879-8.91-.166-6.099 3.386-11.415 9.46-12.697.075-.016.058-.141-.017-.133l.025.008Z" fill="#282421"/><path d="M290.925 39.228c1.032-.008 2.014.208 3.037.283.092 0 .125-.125.042-.166-.932-.475-2.064-.491-3.079-.375-.158.017-.166.25 0 .25v.008ZM282.639 50.767c.116 3.312 4.692 1.223 6.29.616a65.48 65.48 0 0 0 5.324-2.313c2.288-1.115 5.142-3.428 7.763-2.354.25.1.358-.3.108-.4-2.529-1.04-4.875.757-7.055 1.88a66.02 66.02 0 0 1-7.322 3.204c-1.131.416-4.626 2.03-4.959-.624-.008-.092-.149-.1-.149 0v-.009ZM293.879 70.445c-.2 4.892-.083 9.81-.083 14.702 0 4.892-.125 9.809.066 14.7 0 .142.217.142.217 0 .191-4.891.066-9.8.066-14.7 0-4.893.108-9.81-.083-14.702 0-.116-.175-.116-.183 0Z" fill="#282421"/><path d="M286.89 95.73c2.846 2.862 4.909 5.973 5.841 9.942.033.15.241.167.316.042a128.202 128.202 0 0 1 3.661-5.724c1.339-1.972 2.612-4.219 4.817-5.3.15-.075.042-.333-.116-.266-1.515.615-2.48 1.788-3.42 3.094a96.48 96.48 0 0 0-2.263 3.295c-.665.999-1.431 2.995-2.363 3.711-.599.458-.133.707-.632-.2-.25-.457-.35-1.056-.541-1.547a18.578 18.578 0 0 0-1.165-2.396c-1.048-1.814-2.379-3.462-4.027-4.751-.083-.067-.191.041-.116.116l.008-.016Z" fill="#282421"/><path d="M292.606 105.672c.167 1.173.325 2.354.383 3.536.05.981.249 2.346-.025 3.294-.915 3.154-4.568.924-5.708-.715-.074-.1-.249-.042-.208.091.608 2.014 3.462 3.195 5.359 2.222 1.04-.541.923-1.423.956-2.496a26.356 26.356 0 0 0-.507-5.999c-.034-.158-.258-.083-.233.067h-.017ZM248.643 123.51c.608-1.048 1.373-.99 2.28.167 2.504.773 2.113 1.697-1.157 2.762-1.472-.275-2.246-2.022-2.229-3.353.016-1.631.915-3.137 2.08-4.218 2.238-2.097 5.466-2.97 8.453-3.178 5.982-.416 10.508 2.687 15.533 5.341 3.703 1.947 7.613 2.962 11.748 1.855 3.819-1.023 7.23-3.594 9.052-7.13.125-.233-.224-.441-.357-.208-3.12 5.425-9.494 8.586-15.692 6.972-5.94-1.547-10.45-6.273-16.665-7.105-4.484-.599-10.467.349-13.32 4.276-1.065 1.473-1.631 3.536-.841 5.267.633 1.398 2.305 2.346 3.819 1.747 3.578-1.414-.349-6.814-2.829-3.311-.058.083.075.191.142.108l-.017.008ZM337.368 121.505c-.674-1.314-2.53-1.556-3.37-.224-.849 1.347 0 3.061 1.365 3.619 1.946.79 4.118-.516 4.784-2.396.673-1.889-.283-3.869-1.814-5.026-2.355-1.788-5.741-1.63-8.503-1.206-4.094.624-7.962 2.221-11.931 3.328-3.911 1.09-7.904 1.897-11.956 2.271-3.935.358-12.289.416-10.932-5.824.058-.274-.35-.391-.425-.116-.898 3.344 2.047 5.832 5.067 6.398 4.418.832 9.56-.25 13.903-1.19 5.042-1.09 9.826-3.12 14.868-4.185 3.012-.632 7.088-1.19 9.693.865 1.697 1.332 2.57 3.536 1.198 5.467-.55.773-1.689 1.606-2.729 1.506-.658-.258-1.315-.508-1.981-.766-.499-3.336.367-4.143 2.596-2.421.059.108.225.017.167-.1Z" fill="#282421"/><path d="M298.006 115.672c1.522 1.498 3.311 2.946 5.474 3.328 2.921.516 5.608-1.139 8.071-2.454 5.957-3.187 12.031-7.372 18.795-8.445.166-.025.133-.308-.042-.299-5.133.299-9.917 3.619-14.31 5.973-2.538 1.365-5.051 2.887-7.688 4.061-4.085 1.813-7.022.391-10.258-2.205-.034-.025-.075.016-.042.041ZM257.08 109.042c7.288.541 11.773 7.155 18.47 9.277 5.691 1.805 13.362.99 17.847-3.278.124-.117-.034-.325-.183-.233-3.32 2.038-6.448 3.652-10.417 3.952-3.553.266-7.139-.424-10.292-2.097-5.017-2.662-9.368-7.746-15.425-7.779-.108 0-.108.158 0 .166v-.008ZM215.413 205.553c2.088 3.57 5.217 6.715 8.969 8.52.075.042.141-.075.067-.116-3.636-2.247-6.59-4.868-8.928-8.462-.041-.066-.141 0-.1.058h-.008ZM259.642 206.602c-.532 2.687-1.472 4.917-3.503 6.847-1.913 1.822-4.284 3.087-6.589 4.335-.183.1-.058.383.141.333 2.704-.691 5.167-1.997 7.197-3.919a15.803 15.803 0 0 0 2.53-3.079c.89-1.414 1.281-3.336 2.421-4.534.1-.108-.034-.299-.158-.208-.716.491-.932 1.107-1.257 1.889-.699 1.68-1.547 3.186-2.754 4.576a15.794 15.794 0 0 1-3.145 2.77c-1.023.683-3.053 2.089-4.343 2.014 1.057.058 2.654-1.265 3.611-1.906 1.09-.732 2.138-1.547 3.045-2.504 1.648-1.73 3.062-4.127 2.887-6.589 0-.042-.066-.05-.074-.009l-.009-.016ZM265.025 206.943c-1.356 4.068-4.351 7.213-8.286 8.869-.208.091-.117.432.091.341 4.06-1.639 7.039-5.017 8.279-9.194.016-.058-.067-.075-.084-.025v.009ZM338.05 217.801c4.077-.466 7.122-2.696 9.227-6.165.557-.924 1.04-2.313 1.822-3.045 1.198-1.132 1.414-.133 1.156 1.056-.158.732-.59 1.498-1.031 2.114-1.589 2.254-4.01 3.927-6.473 5.091-.233.109-.033.45.199.342 3.037-1.44 9.968-6.049 7.189-10.217-.058-.092-.216-.142-.3-.042-1.63 2.03-2.62 4.484-4.268 6.498-1.905 2.33-4.584 3.777-7.546 4.251-.058.009-.05.117.017.109l.008.008Z" fill="#282421"/><path d="M346.187 206.885c-.167 2.279-1.215 4.176-2.679 5.898-1.232 1.456-3.153 3.803-5.159 4.027-.141.017-.149.225 0 .225 2.197-.033 4.052-2.521 5.35-4.06 1.498-1.781 2.571-3.719 2.638-6.082 0-.092-.133-.092-.142 0l-.008-.008ZM349.765 215.005c2.412-1.24 4.459-4.21 4.176-7.014-.016-.125-.216-.183-.241-.033-.449 2.97-1.431 5.183-4.027 6.889-.092.058-.008.2.092.15v.008ZM307.973 206.386c.94 3.469 4.21 7.313 7.488 8.811.133.066.233-.108.117-.2-1.565-1.19-3.12-2.238-4.41-3.752-1.306-1.523-2.08-3.195-3.037-4.926-.05-.083-.174-.025-.15.067h-.008ZM190.595 398.312c.782-.699 1.755-1.198 2.579-1.864.474-.383-.058-1.023-.541-.932-3.095.583-3.336 4.094-2.945 6.598.166 1.04.524 2.28 1.747 2.463.79.116 1.489-.366 1.323-1.19-.033-.158-.208-.275-.358-.275-1.364.025-1.439-2.013-1.431-3.02.017-1.472.466-2.937 1.955-3.503a55.875 55.875 0 0 1-.541-.931c-.715.757-1.314 1.697-2.046 2.396-.175.166.083.416.258.258Z" fill="#282421"/><path d="M188.082 364.157c.366 10.533 1.181 21.033 1.314 31.583.125 10.467-1.181 21.199-.366 31.616.034.466.757.632.866.117 2.221-10.159 1.605-21.383 1.456-31.733-.15-10.575-.566-21.266-2.205-31.724-.092-.607-1.09-.466-1.073.141h.008ZM154.353 363.5c-2.538 8.919 3.652 19.219 6.24 27.506 3.527 11.315 4.176 23.063 3.685 34.769-.016.475.708.691.924.25 2.23-4.526 1.556-9.942.99-14.801-.641-5.475-1.315-10.999-2.579-16.366-1.223-5.2-3.278-10.108-5.109-15.109-1.98-5.416-2.662-10.616-3.66-16.249-.042-.258-.425-.224-.491 0ZM159.494 361.039c-1.564 10.366 5.666 19.66 7.563 29.519 2.397 12.414.599 25.343 2.754 37.79.125.698 1.107.457 1.165-.159.558-6.231 0-12.629-.233-18.869-.208-5.708-.241-11.49-1.081-17.148-1.623-10.899-8.038-20.267-9.91-31.142-.025-.124-.233-.124-.249 0l-.009.009Z" fill="#282421"/><path d="M155.043 372.17c0-6.698 9.801-11.207 15.293-12.064 6.098-.957 12.18.857 16.997 4.676.907.715 2.438-.183 1.723-1.332-3.653-5.915-10.45-9.451-17.439-8.37-4.302.666-8.828 2.688-12.796 4.452-2.971 1.323-5.117 3.045-5.35 6.439-.075 1.099 1.331 1.207 1.864.508 3.161-4.168 8.087-5.799 12.896-7.305-.167-.591-.325-1.19-.491-1.781-5.051 1.906-11.956 3.811-13.845 9.485-.299.907.857 1.381 1.473.857 7.563-6.356 17.821-12.38 27.497-6.606.333-.574.674-1.148 1.007-1.722-5.574-3.262-12.438-6.307-17.963-1.306-.981.89.475 2.329 1.456 1.456 4.759-4.269 10.866-1.074 15.509 1.58 1.115.641 2.121-1.089 1.006-1.722-10.524-6.023-21.515.108-29.752 7.089.491.283.982.574 1.473.857 1.614-4.909 8.311-6.623 12.63-8.17 1.106-.4.665-2.13-.491-1.781-5.25 1.581-10.492 3.395-13.97 7.879.566.233 1.14.474 1.706.707.341-4.284 6.173-5.366 9.268-6.548 2.563-.981 5.117-2.063 7.871-2.337 5.907-.591 11.465 2.487 14.544 7.471.574-.441 1.148-.89 1.722-1.331-5.899-4.668-13.445-6.648-20.8-4.585-5.417 1.523-14.319 6.906-13.52 13.529.033.299.482.316.482 0v-.025ZM136.823 386.264c-1.706 6.98-.891 15.259-.591 22.406.308 7.338.374 15.284 2.512 22.347.125.4.716.325.724-.1.267-7.621-1.148-15.425-1.514-23.046-.341-7.055.474-14.66-.666-21.607-.041-.241-.407-.216-.465 0Z" fill="#282421"/><path d="M136.756 412.114c5.757-2.171 11.132-5.716 16.39-8.869 3.237-1.939 7.563-4.243 8.745-8.087.216-.691-.691-1.173-1.182-.691-3.602 3.503-6.997 6.091-11.323 8.72-4.368 2.646-9.028 5.058-12.98 8.32-.274.224.017.732.358.607h-.008ZM137.247 405.05c1.972-7.829 6.015-13.528 10.791-19.884 3.503-4.668 8.27-11 7.688-17.206-.05-.508-.741-.641-.907-.125-1.282 3.994-2.164 7.713-4.393 11.365-1.839 3.012-4.027 5.791-6.124 8.62-3.677 4.958-7.762 10.691-7.804 17.122 0 .424.649.524.757.1l-.008.008Z" fill="#282421"/><path d="M155.534 363.259c-.141-.033-.283-.058-.424-.091-.208-.042-.441-.009-.591.158-2.429 2.712-.84 7.23-3.253 10.233l1.248.724c.957-3.203 1.764-6.465 2.812-9.643.225-.674-.832-1.131-1.156-.491-2.596 5.109-5.134 10.251-7.829 15.309-.491.915.89 1.731 1.397.816 2.804-5.051 5.392-10.192 7.181-15.692.249-.774-.924-1.265-1.315-.557a175.209 175.209 0 0 1-9.535 15.466c.491.283.974.566 1.465.857 2.196-4.393 4.75-8.569 7.363-12.729.466-.741-.674-1.664-1.232-.957-4.151 5.242-8.286 10.492-12.346 15.808l1.522.89c3.553-4.967 7.039-9.984 10.666-14.893.508-.69-.615-1.547-1.181-.915a99.22 99.22 0 0 0-12.929 18.021c.524.308 1.048.616 1.572.916.674-1.548 1.34-3.104 2.005-4.651-.541-.225-1.073-.458-1.614-.683a49.406 49.406 0 0 0-2.513 8.479l1.648.224-.15-3.76h-1.606c.142 3.411-.1 6.705-.674 10.083-.183 1.074 1.307 1.523 1.656.458 1.614-4.917 3.187-9.851 4.767-14.776-.49-.133-.981-.267-1.472-.408-1.24 5.059-2.563 10.109-3.844 15.151-.275 1.073 1.306 1.489 1.647.457 2.313-7.022 5.242-13.694 9.019-20.051-.499-.208-.99-.416-1.489-.624a88.864 88.864 0 0 1-10.392 20.717c.524.308 1.04.607 1.564.915 4.66-7.247 9.261-14.535 13.886-21.807l-1.547-.898c-3.22 5.383-6.448 10.766-9.676 16.141.516.299 1.023.599 1.539.898 3.187-6.806 7.33-13.012 11.548-19.211-.516-.299-1.023-.599-1.539-.898a69.682 69.682 0 0 1-5.059 9.335c-.632.99.899 1.847 1.556.915 1.972-2.82 3.952-5.633 5.924-8.453-.549-.233-1.09-.458-1.639-.691-.907 6.224-6.623 10.217-10.982 14.194.499.291.99.583 1.489.865 1.04-2.629 2.063-5.258 3.145-7.862.391-.94-1.023-1.356-1.539-.649-1.481 2.063-3.129 3.861-5.009 5.55l1.423 1.098c1.098-2.005 2.071-4.06 3.161-6.065-.507-.217-1.006-.425-1.514-.641a10.22 10.22 0 0 1-1.456 3.145c-.641 1.065.965 1.972 1.647.965a43.227 43.227 0 0 0 3.528-6.232c.424-.915-.74-2.055-1.514-1.165-1.365 1.565-2.746 3.087-4.027 4.718l1.531 1.181 1.156-2.071c.558-.999-.898-1.839-1.522-.891-.441.658-.874 1.323-1.315 1.981-.607.923.782 1.996 1.531 1.181 1.398-1.522 2.688-3.145 4.002-4.742l-1.514-1.165a42.488 42.488 0 0 1-3.52 6.232c.55.324 1.099.64 1.648.965a14.757 14.757 0 0 0 1.398-3.669c.216-.882-1.057-1.49-1.515-.641-1.065 2.013-2.238 3.969-3.294 5.99-.475.907.657 1.806 1.422 1.099a36.618 36.618 0 0 0 5.184-5.983c-.516-.216-1.024-.432-1.539-.649-1.049 2.63-2.155 5.225-3.245 7.838-.375.899.898 1.389 1.489.865 4.742-4.143 10.5-8.311 11.448-14.976.142-.998-1.031-1.564-1.639-.69-1.98 2.812-3.952 5.632-5.932 8.444.516.308 1.04.608 1.556.916a69.886 69.886 0 0 0 5.042-9.352c.466-1.04-.882-1.864-1.539-.899-4.219 6.199-8.362 12.406-11.548 19.211-.483 1.024.94 1.897 1.539.899 3.228-5.383 6.448-10.766 9.684-16.141.599-.99-.923-1.872-1.547-.899-4.643 7.264-9.302 14.511-13.903 21.791-.624.99.923 1.88 1.564.915a90.86 90.86 0 0 0 10.392-21.2c.299-.89-1.024-1.406-1.489-.624-3.853 6.457-7.014 13.246-9.261 20.418.549.149 1.099.299 1.648.457 1.214-5.067 2.404-10.15 3.669-15.2.241-.957-1.157-1.332-1.473-.408-1.655 4.909-3.328 9.809-4.959 14.726.55.15 1.107.308 1.656.458a60.32 60.32 0 0 0 .624-10.541c-.025-1.032-1.631-1.04-1.606 0 .025 1.256.05 2.504.084 3.76.016.915 1.439 1.173 1.647.225a50.864 50.864 0 0 1 2.596-8.453c.374-.916-1.207-1.598-1.614-.683-.683 1.54-1.373 3.087-2.055 4.626-.466 1.049 1.006 1.972 1.572.916a96.365 96.365 0 0 1 12.43-17.872c-.391-.308-.79-.607-1.181-.915-3.561 4.975-7.264 9.843-10.891 14.768-.591.799.765 1.864 1.389 1.073 4.119-5.266 8.162-10.591 12.197-15.924a110.8 110.8 0 0 0-1.356-.791c-2.654 4.135-5.258 8.279-7.463 12.672-.491.982.841 1.747 1.465.857a133 133 0 0 0 9.318-15.6 82.101 82.101 0 0 1-1.315-.558c-1.822 5.375-4.509 10.275-7.188 15.259.466.275.932.541 1.398.816 2.629-5.101 5.216-10.226 7.529-15.484-.382-.166-.773-.324-1.156-.491-.89 3.228-2.039 6.39-3.029 9.585-.266.873.891 1.198 1.365.574.815-1.073 3.344-9.943 2.77-10.051.749.142 1.074-.99.317-1.156l.016.008Z" fill="#282421"/><path d="M138.112 399.027c.998 0 .998-1.548 0-1.548s-.998 1.548 0 1.548ZM162.132 360.531c-.25 5.774 2.022 11.39 4.193 16.623 2.48 5.974 4.793 11.765 5.541 18.238.791 6.847.874 13.819.508 20.7-.333 6.24-2.088 12.979-.4 19.119.042.158.275.092.242-.066-1.381-6.498.291-13.329.59-19.877.317-6.864.192-13.836-.715-20.658-1.589-11.923-9.219-21.974-9.843-34.079 0-.075-.116-.075-.116 0Z" fill="#282421"/></g></svg>