<svg width="37" height="28" viewBox="0 0 37 28" fill="none" xmlns="http://www.w3.org/2000/svg">
<path d="M2.8 25L10 25L14.8 15.4L14.8 0.999998L0.400004 0.999997L0.400002 15.4L7.6 15.4L2.8 25ZM22 25L29.2 25L34 15.4L34 1L19.6 0.999999L19.6 15.4L26.8 15.4L22 25Z" fill="#FFDB4D"/>
<path d="M9.6 16.9L2.9 16.9L2.9 3.5L16.3 3.5L16.3 17.282L11.691 26.5L5.60902 26.5L10.0472 17.6236L10.409 16.9L9.6 16.9ZM28.8 16.9L22.1 16.9L22.1 3.5L35.5 3.5L35.5 17.282L30.891 26.5L24.809 26.5L29.2472 17.6236L29.609 16.9L28.8 16.9Z" stroke="white"/>
</svg>
